<?xml version="1.0" encoding="UTF-8"?>
<svg xmlns="http://www.w3.org/2000/svg" version="1.1" xmlns:xlink="http://www.w3.org/1999/xlink" viewBox="0 0 1280 1280">
  <!-- Generator: Adobe Illustrator 29.4.0, SVG Export Plug-In . SVG Version: 2.1.0 Build 152)  -->
  <defs>
    <style>
      .st0, .st1, .st2, .st3, .st4, .st5, .st6, .st7 {
        stroke: #000;
      }

      .st0, .st1, .st2, .st3, .st4, .st5, .st6, .st7, .st8 {
        stroke-miterlimit: 10;
      }

      .st0, .st2, .st3, .st4, .st8 {
        stroke-width: 2.9px;
      }

      .st0, .st5 {
        fill: #09f;
      }

      .st1 {
        stroke-width: 1.4px;
      }

      .st2 {
        fill: none;
      }

      .st9 {
        fill: #fff;
      }

      .st3 {
        fill: #996;
      }

      .st4 {
        fill: #ccc;
      }

      .st5, .st6 {
        stroke-width: 3.5px;
      }

      .st6, .st10 {
        fill: #f93;
      }

      .st7 {
        stroke-width: 12.8px;
      }

      .st11 {
        fill: #fac844;
      }

      .st12 {
        fill: #663;
      }

      .st13 {
        display: none;
      }

      .st14 {
        fill: #f99;
      }

      .st8 {
        fill: #630;
        stroke: #630;
      }

      .st15 {
        fill: #714d35;
      }
    </style>
  </defs>
  <g id="Layer_1" class="st13">
    <image width="1024" height="768" transform="translate(-89.6 228.7) scale(1.3)" xlink:href="../../OneDrive/Pictures/image.jpg"/>
  </g>
  <g id="Layer_6">
    <path class="st7" d="M1072.6,878.2c-.7-3.6-8.2-8.2-25.6-7.2-49.1,3-425.4,13-477.6,18.3-70.2,7.1-294.1,31.1-307.8,32.5v-.6c0,0-34,6.4-34,6.4h0s-.2,0-.2,0c0,0-.2-.3-.6-.9-.2-.3-.4-.7-.7-1-.1-.2-.3-.4-.5-.6,0,0,0,0,0-.1-2.8-3.6-8.7-9.4-17.2-8.1-12,1.8-44.5,7.5-76.2,23.9-3.4,1.8-7.2,4.7-11.2,8.3-1.6.9-3.1,2.1-4.3,3.3-3.3,3.1-6.5,6.3-9.8,9.4-6.2,5.9-10.1,12.9-15.7,18.9-3.1,3.3-12.3,16.2-13,17.5-.3.6.6,1.1,1.2,1,.5-.1,1.1-.2,1.6-.3-.1.7-.3,1.5-.4,2.2-.1.7.9,1.4,1.7.8,4.5-3.7,9.7-6.7,15.4-9.1,6.1-2.5,11.9-7.6,18.3-10,3.6-1.3,7.3-2.6,11-3.8.7-.2.8-.9.3-1.3,2.9-.5,6-.9,9.1-1.2,36-2.9,69.7,10.3,81.9,9.2,12.1-1.1,15.6-14.8,15.6-14.8h.2s0,0,0,0l34.6-1.7v-.5c13.8-.1,241-2.4,310.8-11.8,52-7,423.2-51.1,471.4-59.6,17.1-3,23-9.2,22.6-12.8l-1-6.4Z"/>
  </g>
  <g id="Layer_2">
    <path d="M929.7,343.7c-25.5-2.7-56.3,11.3-70.6,42-1.2-3.4-3.5-6.2-6.5-8.3,9.3-4.9,15.3-14,16.3-23,2.1-20.7-17.3-32.7-27.7-34.3-8.3-1.3-17.3,1.4-24,7.2-1.4,1.2-2.6,2.5-3.8,3.9.5-7.5.8-12.1.9-13.7.3-8.8-5.4-17.7-13.2-20.7-6.1-2.3-17.2-4.1-28-1.5-9,2.2-17.5,5.9-19.1,18.4-.7,5.8-1.2,23.3-1.7,44,0,1,0,1.9,0,2.9-5.2,0-10,.4-13.5,1.3-14.9,3.8-27,12.1-35.5,23.5,0-4.8.1-9.6.3-14.4.2-11.5-6.4-18.6-17.7-19h-1.9c-7.1-.4-13.8-.6-19.6.3-7.5,1.2-13.4,9-13.4,17.6s.3,14.9.7,24.4c.2,5.7.5,12,.7,18.9.2,6.1.7,14.5,1.1,21.8.3,5.8.7,11.4.8,15-.8.8-2.5,2-5,2.8-3.4,1.2-7.6.6-8.7-1.1-2-3.3-3.4-19.9-2.9-33.4,0-1.9.8-18.9,4.9-36.5,1-4.3,3.9-17.3-5.2-22.9-8.3-5.2-17.2-5-23.2-4.4-8.6.8-14.4,8.4-16.3,12.3-.5,1-.9,2.2-1.3,3.5-4.2-7.4-11.2-12-20.1-12.9-.6,0-1.2-.1-1.8-.2,0-8-.1-11-.4-12.8-.7-4.8-3-19.6-16.5-20.3h-2.2c-4.4-.4-10.4-.8-16.2-.8-11.1,0-19,10.3-19.9,19.8-.1,1.3-.3,4.6-.4,18.3-5.4,1.7-12.1,4.2-16.2,7.1-7.3,5.1-11.3,13.9-10.4,21.6-12.5-5.2-25.8-7.4-37.1-9.3-7.1-1.2-13.8-2.3-18.1-3.9-3.9-1.4-6.6-4.9-6.5-8.4,0-4.3,4.2-8.2,11.5-10.7,9.9-3.5,29.5,7.4,33,10.7,2.6,3,6.5,4.6,11.1,4.6h0c7.6,0,16.2-4.3,21.8-11,12.9-15.3,13.8-31.2,2.3-42.4-7.5-7.3-35.9-30.5-86.1-19.4-26.6,5.9-40,21.2-46.6,33-9,16.1-11,35.9-5.5,53.1,10.6,33,38.5,39.7,46.8,41,.9.1,1.9.3,3.1.4,35.5,5,43.8,12.4,44.6,17.8.6,3.7-.5,6.7-3.4,9.4-5.3,5-14.9,6.9-20.2,5.6-6.2-1.6-12.2-5.8-18-9.8-4.4-3-8.5-5.9-12.7-7.7-11.5-4.9-23.4-.1-29.5,12-4.2,8.3-7.8,23.9-.2,32.5,5.5,6.4,35.1,26.6,58.4,28.5,2,.2,4.2.3,6.5.3,24.8,0,61.1-10.2,74.7-34.9,3.7,10.1,11.3,19.6,26.4,23.7,8.2,2.2,15.1,3.1,20.9,3.1,17.5,0,25.3-8,28.2-12.3,2.4-3.6,3.7-8.9,3.8-14.4,3.8,6.9,9.7,13.6,19,17.6,10.7,4.6,29.2,5,39.8-1.8.8-.5,1.5-1,2.3-1.6,1.3,1.8,3.2,3.5,6.1,4.9,4.1,1.9,10,2.9,15.6,2.9,5.4,0,10.6-.9,14-2.6,8.5-4.4,7.5-13.7,7.2-16.7v-.3c-.2-1.7-.4-3.6-.6-5.7-.2-2.1-.5-4.4-.7-6.8,10.2,12.5,24.4,20,38.4,21.4,4.6.5,13,1.3,22.5-3.3,4.9,5.7,13.3,7.6,20.7,7.6s9.5-.9,12.2-2c6.2-2.7,11.1-8.8,12-10l1.7-2.3c0,.7,0,1.3,0,1.7,0,7.6,5.3,18.1,14,18.1s15.9-.8,20.3-2.4c11.6-4.3,14-11.9,14-17.6s0-4.6-.2-9.1c0-4.4-.2-10.5-.3-16.7,1.1,2,2.3,4,3.7,5.9,10.7,15.1,27.5,24.3,47.3,26,1.8.2,3.6.2,5.4.2,38.8,0,62.3-36.2,65.7-73.6,3.2-35.4-26.1-69-52.3-71.7ZM910.2,391.9c3.3-2.7,6.8-4.2,10-4.2s1,0,1.5.1c4.2.7,19.8,10.8,17.5,32.1-1.3,11.8-10.7,27.7-24.8,26.7h0c-16.8-1.1-15.2-30.9-15.2-31.2.6-9.4,4.7-18.3,11.1-23.6ZM755.7,449.4c-1.1.8-2.3,1.3-6.6-1.9-6.1-4.4-9.5-12.2-9.4-21.5.1-11.5,6.7-18.5,12.3-21,.2,0,.5-.2.8-.3.6,17.1,2.2,36.1,2.9,44.7ZM518.1,408.5c.2,0,.4,0,.6,0,0,.3,0,.6,0,.9-.2-.3-.4-.6-.6-.8ZM583.8,452.5c-3.7-1.3-8.3-3-9.5-5.2-.6-2.5-1.2-11.3-.8-37.5,2.3.3,4.6.5,6.7.5,4.5,0,8.6-1.3,12-3.7-.4,17.8,0,30.2,2.9,52.2-.4-.4-.8-.8-1.2-1.2-2.8-2.4-6.4-3.7-10.1-5.1ZM811.6,393.4c0,.3,0,3.7.1,8.9.2,15.4.6,47.3.6,55.1s-.1,13.4-.2,19.1c0,.8,0,1.7,0,2.4v-.4c-1.2-7.9-2.9-21.8-2.9-25.8,0-4.6-.1-9.6-.3-15.3-.4-11.9-.8-26.7.3-44.5.5-7.7,1.1-17.2,1.8-26.8,2.4,4.5,5.8,8.4,10.4,11.1-7.1,3.6-9.7,10.9-9.7,16.2Z"/>
    <g>
      <path d="M634.2,272.1c-7.9,0-13.9-2.7-16.9-7.7-.3-.4-.6-1-1-2-7,2.9-14.9,3.6-20.8,3.6s-9.2-.5-10.6-.8c-26.7-4.5-45.5-33.9-46.6-73.2-.6-19.8,4.2-41.3,13-59.1,9.5-19.1,22.4-31.4,36.2-34.6,2.3-.5,5.4-.8,8.7-.8s5.1.2,7.8.5c.8-11.2,1.8-20.4,2.9-27.4,1.6-10.3,7.6-13.6,16.7-15.6,2.7-.6,5.6-.9,8.5-.9,6.2,0,12.8,1.4,17.6,3.8,6,2.9,10.2,11.1,9.8,18.6,0,1.2-.3,4.1-.7,8.5-1.5,17.4-4.5,53.5-5.1,76.3-.7,27.5.5,46.5,1.4,61.8v1.7c.5,6.7,3.3,30.6,3.3,30.8l.2,1.5-.8,1.4c-.4.8-4.4,7.5-9.7,10.6-3.1,1.9-8.7,3.1-13.9,3.1h0ZM601.1,136.7c-1.4,0-2.8.2-3.8.7-5.7,2.5-17.1,20.7-18.4,46.6-1,20.1,3.1,33.8,12.1,40.6,1.2.9,6.6,2.5,12.8,2.5s3.2-.1,4.5-.4c.2,0,.4-.2.4-.3,0-.1.2-.4.1-.6-4.4-21.8-6.1-60.3-5.8-88.8-.7-.1-1.4-.2-2.1-.2Z"/>
      <path d="M632.1,58.8c6.4,0,12.1,1.6,15.6,3.3,4.3,2.1,7.5,8.5,7.1,14.1-.4,5.6-5.1,56.2-5.8,84.9-.7,28.7.5,48,1.5,63.9.4,6.9,3.2,31.1,3.2,31.1,0,0-3.6,6.3-8,8.9-2.1,1.3-6.7,2.4-11.5,2.4s-10.4-1.4-12.8-5.4c-.7-1.1-1.5-3.3-2.4-6.2-6.9,4.4-16.1,5.5-23.4,5.5s-7.7-.4-9.8-.7c-23.3-3.9-41.5-29.6-42.7-68.7-1.2-39.1,19.4-82.8,45.6-88.9,2-.5,4.6-.7,7.6-.7,3.7,0,7.9.4,12.1,1.2.8-12.2,1.9-23.5,3.2-32.1,1.1-7.1,4.4-9.8,13.1-11.7,2.5-.6,5-.8,7.5-.8M603.8,231.8c1.9,0,3.8-.1,5.4-.5,3-.6,4.9-3.5,4.3-6.5-4.4-22-6-60.7-5.7-87.9,0-2.2-1.5-4.1-3.6-4.5-1.1-.2-2.1-.3-3.2-.3-2.1,0-4.1.4-5.7,1.1-8.4,3.7-19.9,24.7-21.2,50.7-1.3,26,5.6,38.3,14,44.6,2.5,1.9,9.3,3.5,15.6,3.5M632.1,49.3c-3.3,0-6.4.3-9.5,1-8.9,2-18.3,5.8-20.4,19.5-.9,6.1-1.8,13.8-2.5,23-1.1,0-2.3,0-3.4,0-3.8,0-7.1.3-9.8,1-15.2,3.5-29.2,16.7-39.4,37.1-9.2,18.5-14.1,40.8-13.5,61.3.6,20.5,5.6,38.6,14.6,52.4,9,14,21.8,23,36,25.4,1.5.3,5.7.8,11.4.8s12-.5,18.6-2.5c4.1,5.6,11.1,8.7,20.1,8.7s12.5-1.5,16.4-3.8c6.2-3.7,10.5-10.9,11.3-12.4l1.5-2.7-.4-3.1c0-.2-2.8-24.1-3.2-30.6v-1.7c-1-15.2-2.2-34.1-1.5-61.4.6-22.6,3.7-60,5.1-76,.4-4.4.6-7.3.7-8.6.6-9.5-4.7-19.5-12.4-23.2-5.5-2.7-12.8-4.2-19.7-4.2h0ZM593.7,220.6c-7.6-5.9-10.9-18.1-10-36.4.5-10.5,3-21.1,6.9-29.9,3-6.7,6.1-10.5,7.7-11.9,0,26.2,1.5,58.8,5.1,80-4.4,0-8.5-1.1-9.7-1.7h0Z"/>
    </g>
    <g>
      <path d="M792.6,271c-26.4,0-50.5-10.5-67.8-29.5-18-19.8-26.8-46.7-24.2-73.8,5.1-53,50.2-81.9,90.1-82.2h.4c16.5,0,34.7,7.9,48.8,21.2,15.7,14.8,24.4,34.2,24.4,54.5,0,3.8-1.2,7.3-3.3,9.9-2.3,2.8-5.5,4.3-9,4.3h-.1c-9.3-.1-17.6-.2-25.2-.2-13.4,0-22.6.2-29.2.3-10.3.2-25.4,1.9-43.8,4.9,2.2,15.6,11.4,37.4,35,37.4.6,0,1.1,0,1.7,0,16.2-.7,36-13.2,41.5-26.2,2.1-4.9,6.7-8,11.9-8s.3,0,.4,0c9.8.3,21.2,4.6,26.7,10,4.5,4.4,5.7,11.3,3,17.2-10.6,22.8-41.3,59.3-78.6,60.2-.9,0-1.8,0-2.6,0h0ZM786.7,131c-8,0-16,4.2-22.2,11.2,13.1-2,27-3.7,39.3-5-6.6-4.2-12.9-6.1-16.1-6.2-.3,0-.6,0-1,0Z"/>
      <path d="M791.2,90.2c30.2,0,68.4,29.5,68.4,71,0,5.7-3.4,9.4-7.6,9.4s0,0,0,0c-9.8-.1-18.1-.2-25.3-.2-12.4,0-21.4.1-29.3.3-15.1.3-35.9,3.5-48.8,5.7,0,0,0,0,0,0,1.3,20.5,12.8,46.1,40.2,46.1s1.3,0,1.9,0c18.5-.8,39.5-14.6,45.7-29.1,1.3-3.1,4.2-5.1,7.5-5.1s.2,0,.3,0c8.7.3,19,4.2,23.5,8.7,3.1,3.1,3.9,7.8,2,11.8-11,23.7-40.6,56.6-74.4,57.5-.8,0-1.7,0-2.5,0-55.7,0-92.1-48-87.3-98.1,4.9-50.8,48.1-77.7,85.5-78,.1,0,.2,0,.4,0M754.3,148.6c18.8-3.1,43.2-6.2,61.5-7.7-9.7-9.7-21.5-14.3-28-14.6-.4,0-.8,0-1.2,0-12.8,0-25.3,8.8-32.3,22.4M791.2,80.7h-.4c-42,.3-89.5,30.8-94.8,86.5-2.7,28.4,6.6,56.6,25.4,77.4,18.2,20,43.5,31.1,71.3,31.1s1.8,0,2.8,0c17.4-.5,35.3-8.2,51.7-22.5,13-11.3,24.3-26.1,31-40.5,3.5-7.6,2-16.7-3.9-22.5-4.6-4.5-12.4-8.3-20.5-10.1,4.2-.4,8.2-2.6,11-5.9,2.8-3.4,4.4-8,4.4-12.9,0-21.7-9.2-42.3-25.9-58-14.9-14.1-34.4-22.5-52-22.5h0ZM759.2,184.3c16-2.5,29.1-3.9,38.3-4.1,6.6-.1,15.8-.3,29.1-.3s6.9,0,10.6,0c-4.3,1.7-7.9,5.2-9.8,9.7-4.3,10.3-21.6,22.7-37.3,23.4-.5,0-1,0-1.5,0-20,0-27-17.6-29.4-28.7h0Z"/>
    </g>
    <g>
      <path d="M930.8,292.7c-12.3,0-34.3-3.2-53.3-10.2-8.2-3-13.1-11.6-11.6-20.4,7-41.4,10.7-69.6,12.1-91.4,1.7-25.9.8-69.5-1.1-95-.2-3,1.6-6.9,4.6-10.3,4.4-4.8,10.6-7.5,17.6-7.7.8,0,1.5,0,2.3,0,25.3,0,51.3,8.4,63.9,12.4,31.3,10.1,73.7,49.3,70.1,105.2-3.5,54.3-45,114.4-101.3,117.3-1,0-2.1,0-3.2,0ZM929.5,110.2c-1,0-2,0-3,.1-1,0-1.9,1.6-1.9,3.1,1.5,29.9.5,89-8.3,129.7,0,.5.1,1,.5,1.1.9.3,2.1.5,3.5.5,8.5,0,20.7-6.2,25.9-8.8l.5-.2c20-10.1,33.8-24.5,36.4-61.9,1.9-28.1-11.1-42.2-25.5-53.3-9-6.9-18.1-10.2-28-10.2Z"/>
      <path d="M901.4,62.5c24.5,0,49.7,8.1,62.4,12.2,28.5,9.2,70.3,46.2,66.8,100.4-3.5,54.2-44.9,110.2-96.8,112.8-.9,0-1.9,0-2.9,0-12.6,0-34.1-3.4-51.7-9.9-6.1-2.2-9.7-8.7-8.6-15.1,6.1-36.3,10.6-67,12.2-91.9,1.7-25.9.8-69.2-1.1-95.6-.2-3,5.2-12.6,17.6-12.9.7,0,1.5,0,2.2,0M920.2,249.4c9.9,0,23.3-6.9,28.6-9.6,22.4-11.3,36.3-27.7,39-65.8,1.9-28.3-9.9-44-27.3-57.4-7-5.4-17.2-11.2-30.9-11.2-1.1,0-2.2,0-3.4.1-3.9.3-6.5,4.2-6.3,8.1,1.3,27.3.6,87.5-8.2,128.4-.6,2.8.9,5.6,3.6,6.6,1.5.5,3.2.8,5,.8M901.4,53c-.8,0-1.6,0-2.4,0-8.3.2-15.7,3.4-21,9.2-4,4.3-6.1,9.5-5.8,13.8,1.8,25.3,2.7,68.6,1.1,94.4-1.4,21.7-5.1,49.7-12.1,90.9-1.9,11,4.3,21.8,14.7,25.6,19.6,7.2,42.2,10.5,55,10.5s2.4,0,3.4,0c27.1-1.4,53.2-15.8,73.4-40.6,18.7-22.9,30.5-52.4,32.4-81.1,2.2-33.6-11.5-58.5-23.4-73.5-13.5-17.1-32.2-30.7-49.9-36.4-12.8-4.1-39.3-12.6-65.3-12.6h0ZM929.4,114.9s0,0,0,0c8.8,0,17,3,25.1,9.3,15.4,11.9,25.3,24.8,23.7,49.2-2.4,35.3-14.7,48.3-33.8,58l-.5.2c-4.2,2.1-14.9,7.5-22.3,8.3,7.9-40.1,9-95.4,7.7-124.9h0Z"/>
    </g>
    <g>
      <path d="M1062.7,286.2c-2,0-4,0-6.1-.3-19.8-1.9-36.5-11.2-48.2-27-15.2-20.5-20.4-49.7-14.2-80.1,10.2-50.2,46.9-73.1,76.7-73.1s4.6.1,6.8.4c13.6,1.6,28.5,12.4,39.9,28.9,12.3,17.9,18.2,38.9,16.5,59.1-3.5,44.3-27.4,92-71.5,92h0ZM1067.1,150.9c-13.1,0-28.6,17.9-29.9,43.6-.8,16.3,2.8,47.6,22.8,49.1.6,0,1.2,0,1.8,0,17.8,0,30.9-21.7,32.8-41.9,3.2-34-18.8-49.5-25-50.6-.8-.1-1.6-.2-2.4-.2Z"/>
      <path d="M1071,110.5c2.1,0,4.2.1,6.3.4,24.4,2.9,55.6,41.2,52.2,83-3.2,40-24.4,87.6-66.8,87.6s-3.7,0-5.6-.3c-46.1-4.4-68.3-51.3-58.2-101.4,9.5-46.7,43.2-69.3,72.1-69.3M1061.8,248.4c21.5,0,35.5-25,37.5-46.2,3.4-35.2-19.2-54-28.8-55.8-1.1-.2-2.2-.3-3.3-.3-16.1,0-33.2,20.6-34.6,48.1-1.1,21.1,4.5,52.3,27.1,54,.7,0,1.4,0,2.1,0M1071,101c-31.7,0-70.6,24.1-81.4,76.9-6.4,31.7-.9,62.3,15,83.8,12.5,16.9,30.3,26.9,51.5,28.9,2.2.2,4.4.3,6.5.3,22.5,0,41.9-11.5,56-33.1,11-16.9,18.3-39.9,20.2-63.2,3.7-45.9-30.2-89.6-60.6-93.2-2.4-.3-4.9-.4-7.4-.4h0ZM1061.8,238.9c-.5,0-.9,0-1.4,0-15.1-1.1-19.3-27-18.4-44.1.6-11.1,4.1-21.4,9.9-29.2,4.7-6.2,10.4-9.9,15.3-9.9.5,0,1.1,0,1.6.1,1.6.3,7.8,3.5,13.2,11.4,4.5,6.5,9.5,17.7,7.9,34.1-1.7,18.2-13.4,37.6-28.1,37.6h0Z"/>
    </g>
    <g>
      <path d="M1168.4,382.7c-38.6,0-62.7-22.1-71.7-41-5.6-11.8-5.4-25.2.5-35.9,3.9-6.9,9.5-11.4,15.1-12,3.3-.4,5.8-.5,7.9-.5,3.1,0,12.7,0,16.7,8.9.4.9.9,2.1,1.5,3.6,3.1,8,11.5,29.2,22.6,29.2h0c.8,0,1.7-.1,2.6-.4,9.2-2.5,22-22.8,31.1-48.8-5.2,1.3-10.7,1.9-16.3,2-.3,0-.5,0-.8,0-22.9,0-41.8-11.8-54.6-34-10.2-17.7-16.1-41.8-16.1-66,0-20.8,7.7-41.7,21.6-58.8,12.9-15.9,28.9-25.6,42.9-26.1.7,0,1.3,0,2,0,12.2,0,24.8,3.8,36.1,10.9,3.1-7.2,7.9-11.1,13.9-11.1s5.8.9,8.8,2.8c14.4,8.7,20.7,17.5,23.6,23.3.7,1.4,1.6,3.2,0,26-.9,13.9-2.5,31.3-4.4,49.1-.2,6.4-.9,12.8-2.1,18.8-2.4,20-6.2,47.7-10.6,66.3-10.9,46.1-24.8,91.4-64.7,93.6-1.9.1-3.8.2-5.6.2h0ZM1177.5,149.2c-.4,0-.9,0-1.3,0-6.4.6-30.2,14.6-29.6,49.6.3,18.3,10.7,45.5,32,45.7h.2c20.4,0,26.6-31.5,27.1-48.2.4-15.8-4.6-30.7-13.6-39.8-4.6-4.7-9.8-7.3-14.7-7.3Z"/>
      <path d="M1223.4,107.5c1.9,0,4,.6,6.3,2.1,13.4,8.1,19.3,16.3,21.8,21.3,1.3,2.8-.8,35.9-4.8,72.6-.2,6.3-.9,12.5-2.1,18.4-3,25.1-6.7,49.8-10.5,66-10.4,44.2-23.3,87.9-60.4,89.9-1.8,0-3.6.1-5.3.1-34.2,0-58-18.4-67.4-38.3-9.9-20.8,2.5-40.1,11.9-41.2,2.6-.3,5.1-.5,7.4-.5,5.8,0,10.2,1.3,12.4,6.1,2.8,6.1,11.9,35.6,28.4,35.6s2.5-.2,3.8-.5c13.7-3.7,28.7-32.8,37.2-60.7-7.2,2.9-15.1,4.5-23.7,4.6-.3,0-.5,0-.8,0-46.8,0-66-52.6-66-95.3,0-42.9,34.9-79.3,60-80.2.6,0,1.2,0,1.8,0,12.8,0,26.5,4.6,38.6,13.7,1.6-6.7,5.1-13.8,11.4-13.8M1178.7,249.3c23.1,0,31.2-31.3,31.8-52.8.8-29.1-16-52.1-33-52.1-.6,0-1.2,0-1.8,0-10,1-34.5,18.3-33.9,54.4.4,22.5,13.4,50.2,36.7,50.4,0,0,.1,0,.2,0M1223.4,98c-3.4,0-10.4,1.1-15.8,9.2-10.9-5.9-22.7-9.1-34.2-9.1-.7,0-1.4,0-2.2,0-31.1,1.1-69.1,42.7-69.1,89.7,0,25,6.1,49.9,16.7,68.3,13.7,23.8,34,36.4,58.7,36.4s.6,0,.9,0c3,0,5.9-.2,8.9-.6-3.1,7.8-6.5,15-10.1,21.2-6.6,11.3-12.1,16.1-14.8,16.9-.5.1-.9.2-1.4.2-2.6,0-6.1-3-9.5-8.2-3.9-6-6.9-13.5-8.7-18.1-.6-1.6-1.1-2.8-1.5-3.8-3.5-7.7-10.6-11.7-21-11.7-2.3,0-4.9.2-8.4.5-7.1.8-14.1,6.2-18.8,14.4-6.7,12-6.9,27-.7,40.2,5.7,12,15.7,22.9,28,30.5,13.8,8.6,30.4,13.1,48,13.1s3.9,0,5.9-.2c20.1-1.1,36.2-12.6,48-34.1,10.1-18.4,16.2-42.2,21.1-63.2,4.4-18.8,8.2-46.6,10.6-66.7,1.2-6.2,1.9-12.6,2.2-19.2,1.9-17.8,3.4-35.2,4.4-49.1,1.6-24,.6-26-.5-28.3-3.1-6.4-10-16-25.4-25.3-3.8-2.3-7.5-3.4-11.2-3.4h0ZM1178.7,239.8h-.1c-17.4-.1-27-23.9-27.3-41-.3-17,5.8-28,10.9-34.3,6.1-7.4,12.5-10.4,14.5-10.6.3,0,.6,0,.9,0,3.6,0,7.6,2.1,11.3,5.9,7.9,8.2,12.6,22.1,12.2,36.4-.5,17.5-6.8,43.6-22.4,43.6h0Z"/>
    </g>
    <g>
      <path d="M735.6,270.1c-8.2,0-34-1.9-55.5-3.5-20.5-1.5-23.2-14.4-23.5-24-.2-8.9.2-30.4.7-50.2.5-19.1,0-115.8,0-116.8v-.7s.2-.6.2-.6c.9-3.1,5.2-9.1,10-11.4,3.5-1.7,9.9-2.9,14.9-2.9s3.9.2,5.4.6c7.6,2.2,11.4,7.4,11.4,15.5s0,5,0,9.6c.1,17.6.3,50.3,0,66.9-.2,10.8-.7,29.3-1.2,45.6-.4,13.7-.7,26.7-.8,29.4.6,1,3.2,3.3,5.7,3.6,1,.1,2.1.2,3.3.2,3.3,0,6.9-.5,11-1,5.8-.7,12.3-1.6,20.4-1.6s3.9,0,5.9.2c4.5.2,7.8,1.8,9.7,4.7,3.4,5.1,1,11.9-.5,16.4-.3.9-.8,2.2-.8,2.6-1,8-5.8,17.3-16.3,17.3Z"/>
      <path d="M682.4,64.8c1.6,0,3,.1,4.1.5,4.4,1.2,8,3.7,8,10.9s.5,55.4,0,76.5c-.5,21.1-1.9,72.8-1.9,75.5s5,7.3,9.9,7.9c1.3.2,2.5.2,3.8.2,8.2,0,17.6-2.6,31.4-2.6,1.8,0,3.7,0,5.6.1,12.6.6,4.4,14.4,3.9,18.4-.5,4-2.9,13.2-11.6,13.2s-38.7-2.2-55.2-3.5c-16.5-1.2-18.9-10.4-19.1-19.4-.2-8.9.2-30.5.7-49.9.5-19.4,0-117,0-117,.5-1.7,3.9-6.7,7.5-8.4,2.7-1.3,8.3-2.4,12.8-2.4M682.4,55.3c-5.8,0-12.8,1.4-16.9,3.4-6.4,3.1-11.4,10.4-12.5,14.5l-.4,1.3v1.3c0,1,.5,97.7,0,116.7-.5,20.9-1,41.4-.7,50.4.1,4.8.8,12,5.4,18,4.7,6.2,12.3,9.8,22.5,10.5,21.6,1.6,47.5,3.5,55.9,3.5,12.6,0,19.6-10.6,21-21.2.1-.4.4-1.3.6-1.9,1.8-5.1,4.7-13.5,0-20.6-1.9-2.9-5.8-6.4-13.4-6.8-2-.1-4.1-.2-6.1-.2-8.4,0-15.4.9-21,1.6-4,.5-7.5,1-10.4,1s-1.9,0-2.7-.1c-.4,0-1-.4-1.5-.8.1-4.8.4-16.3.7-27.5.4-16.3.9-34.8,1.2-45.6.4-16.7.2-49.5,0-67.1,0-4.6,0-8.1,0-9.6,0-10.2-5.3-17.3-14.9-20-1.9-.6-4.1-.8-6.7-.8h0Z"/>
    </g>
    <g>
      <path d="M333.6,281.7c-22.2,0-42-8.7-57.3-25.2-21.2-22.8-31.7-58.2-28.9-96.9,4.9-66.2,48.9-102.3,87.8-102.7h.4c16.2,0,35.2,11,50.9,29.5,17,20,26.9,44.9,27.9,70,1.4,32.7-5.9,77-30.4,103.4-12.8,13.9-28.8,21.2-47.4,21.8-1,0-1.9,0-2.9,0h0ZM331.2,111.8c-5.7,0-11.6,3-16.9,8.7-10.9,11.7-16.8,31.5-15.4,51.8,1.4,20.3,10.3,58.6,34,58.6s.8,0,1.3,0c23.1-1.3,36.6-31.5,35.9-58.8-1.2-43.7-30.3-59.8-38.1-60.2-.3,0-.6,0-.9,0Z"/>
      <path d="M335.6,61.6c29.4,0,71.9,42.6,74.1,95,2.2,52.5-17.8,118.4-73.3,120.3-.9,0-1.8,0-2.7,0-53.9,0-86.1-54-81.5-117,4.7-64.1,46.8-98,83.1-98.3.1,0,.2,0,.3,0M333,235.6c.5,0,1,0,1.5,0,27.2-1.5,41.1-36.1,40.4-63.7-1.2-44.3-30.8-64.2-42.6-64.8-.4,0-.8,0-1.1,0-20.3,0-39.5,29.4-37,65.6,1.8,25.9,12.6,63,38.7,63M335.6,52.1h-.4c-21.5.2-43.4,10.5-60.2,28.2-13.1,13.8-29.3,38.7-32.3,78.9-3,40.1,8,76.7,30.1,100.5,16.2,17.4,37.2,26.7,60.8,26.7s2,0,3.1,0c19.9-.7,37-8.5,50.8-23.3,11.5-12.4,20.2-29.2,25.7-49.9,4.7-17.8,6.8-37.5,6-57-1.1-26.1-11.4-52-29.1-72.9-16.6-19.5-36.9-31.2-54.5-31.2h0ZM333,226.1c-18.7,0-27.8-32.4-29.3-54.2-1.6-22.8,6.3-39.9,14.1-48.3,4.3-4.6,9.1-7.2,13.4-7.2.2,0,.4,0,.6,0,6.5.4,32.5,15.8,33.6,55.6.6,21.9-10,52.8-31.4,54-.3,0-.7,0-1,0h0Z"/>
    </g>
    <g>
      <path d="M481.9,273.9c-22.2,0-42-8.7-57.3-25.2-21.2-22.8-31.7-58.2-28.9-96.9,4.9-66.2,48.9-102.3,87.8-102.7h.4c16.2,0,35.2,11,50.9,29.5,17,20,26.9,44.9,27.9,70,1.4,32.7-5.9,77-30.4,103.4-12.8,13.9-28.8,21.2-47.4,21.8-1,0-1.9,0-2.9,0h0ZM483,104.9c-.3,0-.6,0-.9,0-7.7.4-36.9,16.5-38.1,60.2-.7,27.3,12.8,57.6,35.9,58.8.4,0,.9,0,1.3,0,23.7,0,32.6-38.3,34-58.6,1.4-20.3-4.5-40.2-15.4-51.8-5.3-5.7-11.1-8.7-16.9-8.7Z"/>
      <path d="M483.8,53.8c29.4,0,71.9,42.6,74.1,95,2.2,52.5-17.8,118.4-73.3,120.3-.9,0-1.8,0-2.7,0-53.9,0-86.1-54-81.5-117,4.7-64.1,46.8-98,83.1-98.3.1,0,.2,0,.3,0M481.2,228.7c26.1,0,37-37.1,38.7-63,2.5-36.2-16.7-65.6-37-65.6-.4,0-.8,0-1.1,0-11.8.6-41.4,20.5-42.6,64.8-.7,27.6,13.2,62.2,40.4,63.7.5,0,1,0,1.5,0M483.8,44.4h-.4c-21.5.2-43.4,10.5-60.2,28.2-13.1,13.8-29.3,38.7-32.3,78.9-3,40.1,8,76.7,30.1,100.5,16.2,17.4,37.2,26.7,60.8,26.7s2,0,3.1,0c19.9-.7,37-8.5,50.8-23.3,11.5-12.4,20.2-29.2,25.7-49.9,4.7-17.8,6.8-37.5,6-57-1.1-26.1-11.4-52-29.1-72.9-16.6-19.5-36.9-31.2-54.5-31.2h0ZM481.2,219.2c-.3,0-.7,0-1,0-21.4-1.2-32-32.1-31.4-54,1.1-39.8,27-55.2,33.6-55.6.2,0,.4,0,.6,0,4.3,0,9.1,2.5,13.4,7.2,7.8,8.4,15.7,25.5,14.1,48.3-1.5,21.8-10.5,54.2-29.3,54.2h0Z"/>
    </g>
    <g>
      <path d="M157,362.9c-11.6,0-20-1.4-20.4-1.5l-3.2-.5-37.5-186.6c-5.6,6-10.4,11.3-13.2,14.5-5.3,6-13.6,9.6-22.2,9.6s-15.8-3.5-18.9-9.3l-20.5-38.1,1.5-2.4c.9-1.4,22.9-35.2,62.9-63.9,22.9-16.4,56.4-25.8,92.1-25.8s43,4.1,55,11.2c17.2,10.2,33.9,29.3,44.7,51,14.8,29.8,19.3,64.9,12.9,101.7-10.3,60-45.9,102.7-73.2,121.1-23.6,15.9-33,17.3-50.2,18.6-3.2.2-6.5.4-9.9.4ZM182.9,285.3c7-4.9,19.3-14.4,30.5-27.5,21.9-25.6,29.2-52.2,21.8-78.9-14.9-53.9-44-62-59.9-62s-12.7,1.5-16.3,2.7c-2.3.8-5.1,2.3-8.4,4.4l32.3,161.3Z"/>
      <path d="M177.7,63.7c22,0,41.5,3.9,52.6,10.5,26.4,15.6,69.5,65.9,55.4,147.8-10.8,62.5-48,102.4-71.2,118-23.2,15.6-32.1,16.6-47.9,17.8-3.3.3-6.5.4-9.5.4-11.3,0-19.6-1.4-19.6-1.4l-38.7-192.4c-9.1,9.5-16.4,17.7-19.6,21.2-4.8,5.5-12.1,8-18.7,8s-12.4-2.4-14.7-6.8c-5.2-9.7-19.2-35.6-19.2-35.6,0,0,22-34.1,61.7-62.6,24.6-17.6,59.3-24.9,89.3-24.9M179.6,293.1s79.1-46.9,60.1-115.5c-14.5-52.4-42.6-65.5-64.5-65.5-6.7,0-12.8,1.2-17.8,2.9-3.4,1.2-7.6,3.6-12.1,6.7l34.3,171.3M177.7,54.2c-36.6,0-71.2,9.7-94.8,26.6-40.7,29.2-63.2,63.7-64.2,65.2l-3,4.7,2.6,4.9s13.9,25.9,19.2,35.6c4,7.4,12.6,11.8,23.1,11.8s19.7-4.2,25.8-11.2c1.6-1.9,4-4.5,6.8-7.5l35.1,174.3,1.3,6.4,6.4,1.1c.4,0,9.2,1.6,21.2,1.6s6.9-.1,10.2-.4c17.6-1.3,27.9-2.8,52.5-19.4,8.8-5.9,26-19.5,42.8-43.9,16.5-24,27.4-51,32.5-80.4,3.5-20.2,3.8-39.9,1-58.5-2.4-16.3-7.3-31.8-14.4-46.1-11.2-22.6-28.6-42.4-46.5-53-12.7-7.5-33.6-11.8-57.4-11.8h0ZM155.9,126.3c2.1-1.2,3.6-1.9,4.6-2.2,3.2-1.1,8.4-2.4,14.7-2.4,17.9,0,41.9,10.2,55.3,58.5,12.7,45.7-24.8,81.7-44.5,96.9l-30.2-150.8h0Z"/>
    </g>
  </g>
  <g id="Layer_4">
    <g>
      <g>
        <path class="st11" d="M732.7,1249.4c-4.2,0-8.5-1.3-11-2.1h-.4c-4.8-1.6-9.5-3.5-13.9-6-.7.2-1.5.3-2.2.3s-.3,0-.4,0c-.5,2.6-2.1,4.9-4.3,6.3l-.2.2-.4.2c-1.3.8-2.9,1.1-4.4,1.1s-1.6-.1-2.3-.3l-2-.5c-4.5-.8-8.7-1.9-12.7-3.3-.3-.1-.7-.2-1-.4h-.2c-6-1.8-11.2-3.5-16-5.3-20.1-7.6-35.1-17.5-45.7-30.4-6.1-7.3-10.6-15.8-13.4-24.6-2,1.1-4.3,2.1-6.7,3-8.1,3.1-17.1,5.9-27.7,8.5-.8.2-1.5.3-2.3.3-4.6,0-8.6-3.6-9.1-8.3-.3-2.6.4-5.1,1.9-6.9.9-6.9,1.1-13.8.4-20.8-7,6.1-15.3,10.5-24.3,12.5-.7.2-1.4.2-2.1.2-4.3,0-8-3-9-7.3-.7-3.2.2-6.4,2.4-8.6,0,0,.1-.2.2-.2,3.1-4,5.6-8.4,7.7-13.1-3.1.2-6.1.3-9.2.3-10.9,0-21.7-1.5-32.1-4.3-.6.1-1.2.2-1.9.2-2.7,0-5.4-1.2-7.2-3.3-1.1-1.3-1.9-2.9-2.1-4.5-.8-2.5-.5-5.2.8-7.5.8-1.4,1.9-2.5,3.2-3.3,1.5-3,2.8-6.1,4.1-9.5.5-1.3,1-2.6,1.6-3.9l.9-2.2c-3.4.6-6.8.8-10.2.8-8.3,0-16.2-1.6-23.7-4.7-4.2-1.8-6.5-6.2-5.6-10.7.9-4.3,4.4-7.4,8.7-7.4s1.4,0,2,.2c.8-.4,1.5-.9,2.3-1.3-6.3-.8-12-3.1-16.8-7-3-2.4-4.2-6.3-2.9-9.9,1.3-3.6,4.7-6.1,8.5-6.3,3.2-1.9,6.3-4,9.4-6.1-.4,0-.7-.2-1.1-.2-4.6-1.1-7.5-5.3-6.9-10,0-.4.1-.8.2-1.2-1.4-1-2.5-2.5-3.1-4.2-1.1-2.9-.7-6,.9-8.4.4-.9.9-1.7,1.6-2.4,6.4-7,11.4-15.3,14.7-24.3-.5,0-1,.1-1.5.1-3.3,0-6.3-1.7-8-4.6-1.2-2-1.5-4.5-1-6.8-1,.5-2.1.9-3.1,1.4-1,.4-2,.6-3.1.6-4.1,0-7.9-2.9-8.9-6.9-.8-3,0-6.1,1.9-8.4,1.7-7.5,2.4-15.3,2.1-23-1.2.6-2.6.9-4,.9s-1.7-.1-2.5-.4c-1.8-.5-3.5-1.6-4.7-3.2-1.3-1.6-2.1-3.7-2.1-5.8,0-7.1-.6-14-1.5-20.6-3.1-22.5-10.8-44.6-22.3-64-6.2-7.3-12-15-17.3-22.9-16.3-23.9-28.7-50.1-37.1-77.9-1.3.6-2.7,1-4.2,1-4.5,0-8.1-3.1-8.9-7.5-2.1-12.5-2.1-25.3,0-37.7l-3.9,3.2c-1.7,1.4-3.9,2.2-6.1,2.2-5,0-9-3.9-9.2-8.9-.3-6.8.3-13.7,1.8-20.5,3.8-17.5,13.4-33.6,26.5-45.3l-15.4-6.6c-4.2-1.8-6.5-6.3-5.6-10.8.9-4.2,4.5-7.1,8.8-7.1s.4,0,.7,0c1.7.1,3.4.2,5,.2,3.5,0,6.9-.3,10.2-.8,12.6-2,24.5-7.4,34.4-15.4-7.5-3.4-14-9-18.5-16.2-1.7-2.8-1.8-6.3-.3-9.3,1.6-3,4.7-4.8,8-4.9,16.6-.3,33-2.6,49.1-6.7-.8-.6-1.5-1.2-2.3-1.8-2.3-2-3.4-5-3-8.1.4-3.1,2.2-5.8,4.9-7.1l16.9-8.5c-.4-1.7-.3-3.5.3-5.2,1.3-3.5,4.5-6,8.2-6.3l16.6-1.2c-1-2.8-.7-5.8.9-8.3,1.7-2.7,4.7-4.3,7.9-4.3s1,0,1.6.1l14.2,2.3c-.6-.4-1.1-.8-1.5-1.3-2.6-2.5-3.4-6.2-2.2-9.6,1.3-3.8,4.8-6.3,8.7-6.3s2.3.2,3.4.7c19.3,2.2,38.1,8.5,54.9,18.3,3.6-3,7.2-5.8,10.7-8.4,20.4-15.2,43-27.5,67-36.4,1.4-4.2,3.2-8.3,5.1-12.2,3.4-6.7,7.6-11,12.8-13.1,2.1-.8,4.3-1.3,6.6-1.3s3.1.2,4.6.6c8.1-9.5,17.2-17.9,27.2-25.1,1.6-1.1,3.4-1.7,5.3-1.7,3.1,0,5.9,1.6,7.6,4.3.4.4.8.9,1.1,1.4,1.5-3.2,4.7-5.3,8.4-5.3s1.7.1,2.5.3c3.1.9,5.4,3.3,6.3,6.3.3-.2.7-.4,1-.6,1.7-1.7,4-2.7,6.6-2.7s6.5,1.9,8.1,4.7l6.9-6.2c1.7-1.5,3.9-2.4,6.1-2.4s.2,0,.3,0c.7-.1,1.3-.2,2-.2,2.6,0,5,1.1,6.7,2.9,1.7,1.8,2.5,4.3,2.3,6.9v.5c16.8-13.1,37.4-20.3,58.3-20.3s5.1.1,7.6.3c.7,0,1.4,0,2.1,0s1.2,0,1.8,0c4.9.4,8.6,4.5,8.6,9.4,1.6,0,3.2.2,4.8.3,4,.2,7.9.5,11.7.5,7.3,0,12.7-.9,17.4-2.9,1.1-.5,2.3-.7,3.5-.7,3.3,0,6.4,1.9,7.9,5,1.7,3.4,1.3,7.4-.9,10.3-4.3,5.6-9.4,10.5-15.2,14.8l4,1.7c3.9,1.6,7.9,3.3,11.8,4.9,4.9,2,10.1,4.1,15.3,5.3,2.8.6,5.5,1,8.1,1,5.9,0,10.6-1.6,13.9-4.9,1.7-1.7,4-2.6,6.5-2.6s5.2,1.1,6.9,3c1.7,1.9,2.5,4.3,2.3,6.9-.1,1.5-.4,3-.7,4.5,9.3-5.2,19.8-9.8,31.2-9.8s1.6,0,2.4,0c3.4.2,6.5,2.3,8,5.5,1.4,3,1.1,6.4-.8,9.1l-11.9,16.4c16.6,1.5,32.6,7.8,45.6,18,3.2,2.5,4.4,6.9,3.1,10.8-.4,1-.9,2-1.5,2.8,3.4.8,6.9,1.8,10.4,3,15.2,5.2,28.8,13.4,41.9,21.4,9.1,5.5,18.5,11.2,28.1,15.6,12,5.5,23.1,8.4,34,8.7,2,0,4,0,6,0,10.3,0,22,.1,32.5,6,3.3,1.9,5.2,5.7,4.6,9.6-.6,3.9-3.4,6.8-7.1,7.6-5.3,1.1-11,3.3-16.9,5.7-.9.4-1.8.7-2.7,1.1,2.6,2.6,5.3,5.2,8,7.5,3.4,3,8.6,6.5,13.6,6.5.8,0,1.5,0,2.2-.2.6-.1,1.3-.2,2-.2,2.7,0,5.4,1.2,7.1,3.2,1.7,1.9,2.5,4.4,2.2,6.9-1.2,10.1-8.9,18.6-19.6,21.4-.9.2-1.9.4-2.8.6,9.4,16.1,14.2,34.8,13.6,53.5-.2,5.1-4.2,9-9.3,9s-7.7-2.7-8.8-6.6c-.2-.7-.4-1.3-.7-1.9-.8,23.8-7.7,47.5-19.6,67.7-1.7,2.9-4.6,4.6-7.8,4.6s-2-.2-3-.5c-6,16-15.2,30.2-24.1,43.8-4.4,6.8-9,13.8-13,20.8-11.5,20.2-19.2,42.3-22.8,65.7,5.5,12,13.8,22.1,24.1,29.3,3.4,2.4,4.9,6.6,3.7,10.4-1.2,3.9-4.8,6.6-8.9,6.6s-1.1,0-1.6-.1c-3.6-.6-7.2-1.3-10.7-2.2-23.3-5.8-45.2-17.9-63-34.6,0,.8-.1,1.5-.1,2.3-1.1,22.8,5.3,45.3,18,63.6,3,1.8,4.7,5.1,4.3,8.8-.5,4.8-4.5,8.4-9.2,8.4s-1.4,0-2.1-.2c-6.8-1.5-13.3-4.6-18.9-8.9-.7,6.3-2,12.4-3.9,18.4,3.9,5.9,8.1,11.6,12.6,16.9,2.1,2.5,2.7,5.8,1.8,8.8-.1,1.7-.6,3.3-1.6,4.8-1.6,2.3-4.1,3.8-6.9,4.1-1.5.1-3,.2-4.5.2-5,0-10-.8-14.8-2.3,0,4.7-.7,9.6-2.5,15.5v.4c-1.3,3.9-2.5,7.9-1.2,10.2,1.6,2.8,1.6,6.4-.1,9.3-1.7,2.9-4.7,4.7-7.9,4.7s-3.9-.7-5.4-1.9c-.2-.1-.4-.3-.6-.4-.3,2.2-.4,4.4-.1,6.6.3,2.6-.4,5.1-2.1,7-1,1.2-2.3,2-3.8,2.5.2,1.2.4,2.4.6,3.7.7,4.2,0,7.6-2.1,10.2-1.7,2.2-4.2,3.5-7.1,3.8-.3,0-.6,0-.9,0-3.4,0-6.1-1.5-8.2-2.9,0,.3.2.6.2.9,2.1,8,7.1,14.6,12.9,21.6,2.3,2.8,2.8,6.8,1.2,10.2-1.5,3.2-4.6,5.2-8.1,5.2s-2-.2-3-.5c-1.4-.5-2.8-1-4.3-1.6-1.2.6-2.5.9-3.9.9s-.9,0-1.3,0c-.8,0-1.6.2-2.4.2.7,3,0,6.3-2.4,8.6-1.6,1.6-3.8,2.6-6.1,2.8,0,1.9-.6,3.8-1.6,5.4-1.6,2.4-4.1,3.8-7,4-1.6.1-3.3.2-4.9.2-5.7,0-11.4-.7-16.9-2.2-8.1-2.1-15.8-5.9-22.6-10.9-1.7,1.7-4.1,2.6-6.5,2.6s-.9,0-1.4-.1c-1.4.1-2.7.2-4.1.2-4.4,0-8.8-.7-13-2.1,3.3,7.5,8.7,14,15.5,18.2,3.5,2.2,5.1,6.4,4,10.4-1.2,4-4.8,6.8-8.8,6.8s-2.9-.4-4.2-1c-.2,0-.5,0-.7,0-6,0-12-.8-17.8-2.5-9.5-2.7-18.1-7.6-25.2-14.2h0c-1.8,1.9-4.2,2.9-6.7,2.9s-2.9-.4-4.1-1c-.4,0-.8,0-1.2-.1,4.8,6.4,11.2,11.5,18.6,14.4,2.6,1,4.5,3.1,5.4,5.7.5,1.5.6,3.1.4,4.6.2,1.9-.3,3.9-1.3,5.6-1.7,2.9-4.7,4.7-8,4.7s-1.2,0-1.8-.2c-10.6-2.1-20.9-5.7-30.5-10.6-1.2-.6-2.5-1.3-3.9-2.1-1.3,7.2-4.2,14-8.4,20-5.6,7.8-13.1,13.8-21.8,17.4.5,1.5.8,3.2.8,5.1-.2,7.2-5.3,11.8-12.9,11.8Z"/>
        <path d="M822.4,422.5c2.6,0,5.1.1,7.7.4.7,0,1.3-.1,2-.1s.8,0,1.3,0c2.6.2,2.7,4.3.2,4.3s-.1,0-.2,0c0,0,0,0,0,0s0,0,0,0,0,0,0,0c-.3.2-.6.3-.9.3s-.2,0-.3,0c-.6,0-1.1,0-1.7-.1-4.6.6-8.4,3.6-11.9,6.9,5.3-1.7,10.8-2.1,16.5-2.1,7.9,0,16.1,1,24.1,1s13.7-.7,20.2-3.4c.3-.1.5-.2.8-.2,1.6,0,2.3,2.5,1.3,3.8-6.7,8.7-15.5,15.6-25.3,20.3,3.8,1.6,7.6,3.2,11.4,4.8,5.8,2.4,11.6,4.8,17.4,7.2,5.3,2.2,10.7,4.3,16.4,5.7,3.1.7,6.4,1.2,9.7,1.2,6.9,0,13.7-1.9,18.9-6.9.4-.4.9-.6,1.5-.6,1.1,0,2.2.8,2.1,2.1-.9,9.4-5.5,18.1-12.3,24.2,5.5-2.6,10.8-5.9,15.9-9.1,10.4-6.3,21.7-12.6,34-12.6.7,0,1.3,0,2,0,1.4,0,2.9,1.8,1.8,3.3-6.7,9.2-13.4,18.4-20,27.6,2.1-.2,4.2-.3,6.3-.3,17.5,0,34.9,5.8,48.8,16.8,1.6,1.2,1,4.1-.9,4.1s-.5,0-.7-.1c-2-.6-3.9-.9-5.9-.9-3.5,0-6.9.8-10.3,1.8,3,2.1,5.5,4.8,7.5,8,8.3.4,16.6,2.2,24.5,4.9,24.8,8.6,45.6,25.7,69.3,36.7,11.7,5.4,24,9,36.8,9.4,11.9.3,24.4-.8,35.3,5.2,1.5.9,1.3,3.6-.5,4-10.2,2-20.6,7.6-31.1,10.9,5.3,5.4,10.5,10.9,16.1,15.8,5.1,4.4,11.5,8.3,18.3,8.3s2.5-.1,3.8-.4c.1,0,.3,0,.4,0,1.1,0,2.4.8,2.2,2.1-.9,7.8-7.2,13.4-14.4,15.4-2,.5-4.1.8-6.1.8-3.1,0-6.2-.6-9.3-1.4,1.4,1.7,2.8,3.5,4,5.3,11.4,16.2,17.5,36.2,16.8,56.2,0,1.4-1.1,2.1-2.1,2.1s-1.7-.5-2-1.5c-2.1-7.2-7.9-12.6-15-14.3.2,2.4.3,4.8.4,7.2.5,25-6,50-18.7,71.3-.4.8-1.1,1.1-1.7,1.1-1.2,0-2.4-1.2-2.2-2.7,1.3-7.8.7-15.8-1.6-23.2,0,9.3-1.9,18.6-5,27.5-8.4,24.3-25,44.2-37.6,66.2-12.3,21.6-20.4,45.5-23.9,70.2,5.9,13.7,15.3,25.7,27.4,34.1,1.9,1.3.9,4-1.2,4s-.3,0-.4,0c-3.4-.6-6.8-1.2-10.1-2.1-26.7-6.7-51.4-22-69.6-43.1-1.3,5.7-2.1,11.5-2.3,17.4-1.2,24.8,6,49.8,20.5,69.8.1,0,.2,0,.4,0,2.5.6,1.7,4.2-.6,4.2s-.3,0-.5,0c-11.2-2.5-21.1-10-27.2-19.8.9,12.6-.8,25.3-5.1,37.2,4.5,7.2,9.5,14.1,15,20.6.8,1,.6,2.1,0,2.9.4,1.2-.3,2.9-1.9,3.1-1.3.1-2.5.2-3.8.2-8.6,0-17.1-2.7-24.3-7.5,1.3,3.5,2,7.2,2.3,10.9.3,5.1-.7,10-2.1,14.9-1.5,5.2-3.4,11.1-.5,16.2.8,1.4-.4,3.4-1.8,3.4s-.7-.1-1-.4c-3.7-2.9-6.2-6.7-7.9-10.9-2.5,7.7-5.3,15.3-4.2,23.6.2,1.4-.9,2.1-2,2.1s-1.8-.5-2.1-1.5c-1.2-4.6-3-9-5.3-13.1.9,5.7,1.8,11.3,2.7,17,.5,3,1,6,1.5,9,.4,2.4.3,5.5-2.8,5.8-.1,0-.2,0-.3,0-2.2,0-4.3-1.8-6.1-3-2-1.4-4-2.9-5.8-4.5-2.5-2.2-4.9-4.7-7-7.3.4,2.4.8,4.8,1.2,7.2.8,4.9,1.6,9.8,2.8,14.6,2.5,9.5,8.2,17,14.3,24.4,1.1,1.3.3,3.7-1.4,3.7s-.4,0-.7-.1c-2.9-1-5.7-2.2-8.5-3.5,0,.8-.2,1.5-1,2-.3.2-.7.3-1,.3s-.7,0-1-.2c-.2,0-.4.1-.5.1-1.7.2-3.5.4-5.2.4-4.1,0-8.1-.6-12-1.8,2.5,3.1,5.1,6.3,7.6,9.4.7.9.9,2.2,0,3.1-.4.4-1,.6-1.6.6s-1.1-.2-1.4-.6c0,0,0,0-.1-.1-.1,0-.2,0-.4,0-.6,0-1.1,0-1.7,0-4,0-8-.7-11.8-2,2.4,2.3,5.1,4.4,7.8,6.3,1,.7,1.1,1.8.8,2.7.4,1.2-.2,2.9-1.9,3.1-1.4.1-2.9.2-4.4.2-5.1,0-10.1-.7-15.1-1.9-12.4-3.3-23.3-10.6-31.3-20.4.8,3.1,1.7,6.1,2.5,9.2.4,1.6-.9,2.7-2.1,2.7s-.6,0-.9-.2c-1.5.2-3,.3-4.6.3-8.8,0-17.4-3.5-23.8-9.7.9,15.7,9.3,30.7,22.5,39,2,1.2.8,4.1-1.1,4.1s-.7-.1-1.1-.3c-.4-.3-.8-.5-1.2-.8-.1,0-.3,0-.4,0-.7,0-1.5,0-2.2,0-5.3,0-10.7-.7-15.8-2.2-16.3-4.7-29.6-16.8-36.6-32.3.3,5.4,1.5,10.7,3.8,15.6,1.1.4,1.4,1.7,1.1,2.8,0,1.3-1.1,2.3-2.2,2.3s-1.1-.3-1.5-.9c-6.4-.2-12.5-2.1-17.9-5.5,4.5,15,15.7,27.7,30.1,33.4,1.5.6,1.7,2.4,1.1,3.5.7,1.3-.2,3.4-1.9,3.4s-.3,0-.5,0c-9.9-2-19.5-5.3-28.6-10-5.1-2.6-10.4-6-13.7-10.7,1.2,10.8-1.4,21.9-7.7,30.7-6.2,8.6-15.3,14.8-25.4,17.1.5,1.2,1,2.4,1.4,3.6.8,1.9,1.7,3.8,1.7,5.8,0,3.8-2.7,4.9-5.8,4.9s-7.2-1.2-9.3-1.9c-5.7-1.7-11.1-4.2-16.2-7.4-.3.8-1,1.5-2.1,1.5s-.3,0-.4,0c-18.2-3.3-35.7-9.8-51.7-19.2,7.6,8.2,17.1,14.6,27.5,18.6,4.4,1.3,8.9,2.5,13.4,3.6.6,0,1.2.2,1.8.3,1.1.2,2.1.9,2.1,2.2,0,.8-.5,1.6-1.2,2,0,0,0,0,0,0,0,0,0,0,0,0-.3.2-.6.3-1,.3s-.4,0-.6,0c-.8-.2-1.5-.4-2.3-.6-4-.7-7.9-1.7-11.8-3.1-.4-.2-.9-.3-1.3-.5-5.3-1.5-10.6-3.2-15.8-5.2-16-6-31.6-14.8-42.8-28.3-7.6-9.2-12.9-20.5-14.2-32.4-3.6,4.1-8.7,6.8-13.9,8.8-8.8,3.3-17.8,6-26.9,8.2-.2,0-.4,0-.6,0-2.2,0-3-3.6-.6-4.3.1,0,.3,0,.4-.1-.2-.4-.3-.8-.2-1.3,2-13,1.2-26.4-2-39.1-7,10.8-18,18.7-30.3,21.5-.2,0-.4,0-.5,0-2.1,0-2.9-3.2-1.1-4.1,0-.2.2-.4.3-.6,5.8-7.7,10.1-16.5,12.6-25.9-6.5,1.1-13.1,1.7-19.7,1.7-11,0-22-1.6-32.6-4.7-.4.4-.9.6-1.4.6-1.2,0-2.4-1-2.2-2.3-.8-1.3,0-3.4,1.6-3.4s.2,0,.3,0c3-5.2,5-11,7.3-16.5,2.2-5.3,4.4-10.6,6.6-15.9-7.1,3.1-14.8,4.7-22.5,4.7s-14.3-1.4-21-4.2c-2.2-.9-1.6-4.3.3-4.3.2,0,.5,0,.8.2.6.3,1.2.5,1.8.7,0,0,.1,0,.2-.1,10-4.9,18.7-12.1,25.6-20.9-4.7,2.2-9.6,4-14.8,4.7-1.5.2-3.1.3-4.6.3-6.1,0-12.1-1.7-17-5.7-1.7-1.4-.2-3.6,1.6-3.6.4,0,.7,0,1.1.3.1,0,.2-.2.3-.2,9.6-5.7,18.8-12.2,27.5-19.4-2.3.3-4.7.5-7,.5-4.1,0-8.3-.5-12.4-1.5-2.5-.6-1.7-4.2.6-4.2,0,0,.1,0,.2,0,.2-.4.6-.7,1.2-.9,10.7-3,18.8-11.4,21.9-22-6.7,8.4-15.9,14.6-26.1,17.4-.2,0-.4,0-.6,0-1.9,0-2.7-2.7-1.3-3.8,0-.4.2-.7.5-1.1,11.8-12.9,19.1-29.7,20.9-47.3-2.9,4.7-7,8.5-11.9,10.8-.4.2-.7.3-1.1.3-.7,0-1.4-.3-1.8-1-.5-.9-.3-2.5.8-3,.4-.2.8-.5,1.2-.7-.3-.3-.4-.8-.4-1.3-.1-4.7-.3-9.5-.4-14.2-3.6,4.8-8.4,8.4-13.9,10.5-.2,0-.4.1-.6.1-.9,0-1.8-.7-2-1.6-.3-1.2.4-2.3,1.5-2.7,0,0,.2,0,.2-.1,0-.3-.1-.7,0-1.1,3.8-15.8,3.5-32.3-.9-47.9-1.9,4.8-3.8,9.6-5.7,14.4-.4.9-1.1,1.6-2,1.6s-.4,0-.6,0c-.4-.1-.8-.4-1.1-.8-.3-.3-.5-.8-.5-1.4,0-7.2-.6-14.4-1.5-21.5-3.2-23.8-11.3-46.8-23.5-67.2,0,0,0,0,0,0-6.1-7.3-11.9-14.8-17.2-22.7-18.3-26.9-31.8-57.2-39.7-89-1.8,2.6-3.6,5.3-5.5,7.9-.4.6-1.3,1-2,1s-1.7-.5-1.8-1.5c-3.2-19-1.1-38.6,5.9-56.4-7.1,5.9-14.2,11.7-21.3,17.6-.5.4-1,.6-1.5.6-1.1,0-2-.8-2.1-2.1-.3-6.3.3-12.6,1.6-18.7,4.3-19.9,16.6-37.9,33.6-48.5-8.9-3.8-17.8-7.6-26.7-11.4-2-.8-2-4.3.4-4.3,0,0,.1,0,.2,0,1.8.1,3.7.2,5.5.2,3.8,0,7.6-.3,11.3-.9,18.1-2.9,35-12.1,47.3-26-10.7-1-20.6-7.1-26.5-16.5-.9-1.4.3-3.2,1.8-3.3,23.5-.4,46.7-4.7,68.9-12.5-6.4-1.3-12.5-4.2-17.5-8.6-1-.9-.7-2.8.4-3.4,8.2-4.1,16.4-8.3,24.6-12.4-1.1-1.1-2.2-2.1-3.3-3.2-1.4-1.4-.2-3.6,1.5-3.7,9-.6,17.9-1.3,26.9-1.9-1.3-2.9-2.6-5.7-4-8.6-.8-1.7.3-3.2,2-3.2s.3,0,.4,0c10.2,1.6,20.4,3.3,30.6,4.9-1.3-6.3-5.1-11.8-10.4-15.2-.5-.1-1-.4-1.2-.8-1.6-1.3-.4-3.8,1.4-3.8.3,0,.7,0,1,.3.1,0,.2.1.3.2,20.4,2.1,40.2,9,57.6,20.1,4.7-4,9.4-7.8,14.3-11.5,20.3-15.1,42.7-27.2,66.4-35.8.3,0,.5-.1.7-.1.4,0,.8.2,1.1.4,1.5-5.3,3.5-10.5,6-15.5,2-4,4.8-8,9.1-9.7,1.3-.5,2.6-.8,4-.8,2.4,0,4.7.8,6.5,2.5,8.5-10.8,18.4-20.3,29.5-28.3.4-.3.8-.4,1.1-.4.9,0,1.6.7,1.8,1.6.7.4,1.2,1.3.9,2.3-2.2,7.8-5.1,15.5-8.6,22.8,7.7-7,14.7-14.9,20.6-23.6,0-.4.1-.8.2-1.2.2-1,1.2-1.6,2.1-1.6.2,0,.4,0,.5,0,1.2.3,1.7,1.5,1.5,2.7,0,.2,0,.4-.1.6,0,.3,0,.7-.2,1.1-1,5.3-2,10.7-3,16,4.3-5.2,8.8-10.1,13.7-14.7.4-.4.9-.6,1.4-.6.2,0,.4,0,.6,0,0-1.3,1-1.9,2.1-1.9,1.1,0,2.1.7,2.2,2.1.1,3.9-.4,7.9-1.5,11.7,6.4-5.7,12.8-11.4,19.1-17.1.4-.4.9-.6,1.4-.6.3,0,.7,0,1,.2.4-.3.9-.4,1.4-.4,1.1,0,2,.7,1.9,2.1-.5,6.4-1,12.7-1.4,19.1,2.9-3.5,6.1-6.7,9.6-9.7,16-13.6,36.5-21.5,57.3-21.5M822.4,408.2h0c-19.3,0-38.2,5.6-54.7,16.1-.2-.3-.5-.6-.8-.9-3-3.3-7.4-5.2-11.9-5.2-.9,0-1.8,0-2.7.2-3.9,0-7.6,1.6-10.6,4.2l-2.1,1.9c-2.4-1.4-5.2-2.2-8.2-2.2-1.9,0-3.8.3-5.5.9-1.8-1.6-4-2.9-6.5-3.6-1.4-.4-2.9-.6-4.4-.6-3,0-5.9.8-8.4,2.3-2.5-1.7-5.5-2.6-8.7-2.6-3.4,0-6.6,1.1-9.4,3.1-9.4,6.7-18,14.5-25.8,23.2-.6,0-1.2,0-1.9,0-3.2,0-6.3.6-9.2,1.8-6.9,2.7-12.3,8.1-16.6,16.5-1.6,3.2-3,6.5-4.3,9.9-23.5,9-45.6,21.2-65.7,36.2-2.4,1.8-4.8,3.6-7.2,5.6-16.2-8.8-34.1-14.5-52.5-16.7-1.6-.5-3.3-.8-5.1-.8-6.9,0-13.1,4.5-15.5,11.1-.5,1.4-.8,2.8-.9,4.2l-1.7-.3c-.9-.1-1.8-.2-2.7-.2-5.7,0-10.9,2.8-13.9,7.6-1.1,1.7-1.8,3.6-2.2,5.5l-9.7.7c-6.5.5-12.2,4.8-14.4,11-.4,1.1-.6,2.2-.8,3.2l-4.7,2.4-8.2,4.1c-4.8,2.4-8.1,7.1-8.8,12.6-.3,2.1-.1,4.3.4,6.3-12.3,2.5-24.7,3.9-37.3,4.1-5.9.1-11.3,3.4-14.1,8.6-2.8,5.2-2.6,11.5.5,16.4,3.1,5,7,9.3,11.5,12.8-6.9,4-14.5,6.7-22.5,8-2.9.5-6,.7-9.1.7s-3,0-4.5-.2c-.4,0-.8,0-1.2,0-7.7,0-14.2,5.3-15.8,12.8-1.6,7.8,2.5,15.7,9.8,18.8l5.6,2.4c-10.2,11.6-17.5,25.8-20.9,41.4-1.6,7.4-2.2,14.9-1.9,22.3.4,8.9,7.5,15.8,16.3,15.8s.9,0,1.4,0c-.5,8.8,0,17.6,1.5,26.4,1.3,7.6,7.6,13.1,15.2,13.4,8.5,26.3,20.6,51,36.1,73.8,5.4,7.9,11.2,15.6,17.4,23,10.9,18.5,18.2,39.5,21.1,60.8.9,6.3,1.3,12.9,1.4,19.7,0,3.7,1.4,7.3,3.7,10.2,2.2,2.7,5.1,4.6,8.3,5.5.4.1.8.2,1.3.3-.2,4.1-.8,8.2-1.6,12.3-2.5,3.8-3.4,8.6-2.1,13.2,1.9,7.2,8.4,12.2,15.8,12.2s.2,0,.3,0c.2.4.4.9.7,1.3,1.4,2.5,3.4,4.5,5.8,5.9-2.7,5.3-6.1,10.3-10.1,14.6-1,1.1-1.9,2.4-2.6,3.8-2.5,4.2-3.1,9.5-1.3,14.3.6,1.6,1.4,3.1,2.4,4.4,0,3,.9,5.8,2.3,8.3-5.4,1.3-9.9,5.3-11.8,10.6-2.3,6.5-.3,13.5,5.1,17.8,1.2.9,2.4,1.8,3.6,2.6-1.1,1.7-1.9,3.7-2.4,5.9-1.6,7.8,2.6,15.7,9.9,18.7,8.2,3.4,16.8,5.2,25.7,5.2-.4,1-.9,2-1.3,3-1.5,1.2-2.8,2.8-3.7,4.5-2.2,3.9-2.7,8.4-1.6,12.6.5,2.8,1.8,5.4,3.7,7.6,3.2,3.6,7.7,5.7,12.5,5.7s.9,0,1.4,0c9.6,2.5,19.4,3.9,29.4,4.1-.3.4-.6.8-.9,1.2-3.6,3.9-5.2,9.4-3.9,14.9,1.7,7.6,8.3,12.8,16,12.8s2.5-.1,3.7-.4c5.5-1.3,10.8-3.3,15.8-6,0,1.6-.2,3.1-.4,4.7-1.8,3-2.6,6.7-2.2,10.5,1,8.3,8,14.5,16.2,14.5s2.7-.2,4-.5c10.8-2.7,20.1-5.6,28.5-8.8,0,0,0,0,.1,0,3,6.9,7,13.5,11.9,19.5,11.5,13.9,27.4,24.6,48.7,32.6,4.9,1.8,10.2,3.6,16.2,5.4.4.1.7.3,1.1.4,4.3,1.5,8.7,2.7,13.5,3.6h.1s1.7.5,1.7.5c1.3.3,2.7.5,4.1.5,2.3,0,4.6-.5,6.7-1.5l.5-.2h0s.2,0,.2,0l1-.7c1.8-1.1,3.4-2.5,4.7-4.2,3.5,1.6,7.1,3,10.7,4.1h.4c2.8.9,7.9,2.5,13.1,2.5,11.5,0,19.8-7.7,20.1-18.8,0-.4,0-.8,0-1.1,7.7-4.1,14.5-10.1,19.7-17.4,3-4.2,5.4-8.8,7.1-13.7,9,4.3,18.6,7.4,28.4,9.3,1.1.2,2.1.3,3.2.3,5.8,0,11.3-3.2,14.2-8.3,1.6-2.7,2.3-5.8,2.2-8.8.3-2.4,0-4.9-.8-7.2,1.5.5,3,1,4.6,1.5,6.2,1.8,12.5,2.7,19,2.8,1.8.7,3.7,1,5.7,1,7.2,0,13.6-4.9,15.7-12,2-7.1-.8-14.5-7-18.4-1.4-.9-2.7-1.9-4-3,.6,0,1.1,0,1.7-.1.5,0,1,0,1.5,0,2.2,0,4.3-.4,6.3-1.2,6.5,4.2,13.6,7.4,21.1,9.3,6.1,1.6,12.4,2.4,18.7,2.4s3.6,0,5.4-.2c5.1-.4,9.6-3,12.4-7.2.8-1.1,1.4-2.3,1.8-3.6,1.9-.8,3.7-2,5.1-3.5,1.9-2,3.3-4.4,4-6.9.2,0,.5,0,.7-.1.7.3,1.4.5,2.1.8,1.7.6,3.5.9,5.4.9,6.3,0,11.8-3.6,14.6-9.3,2.8-5.9,1.9-12.8-2.2-17.8-2.4-2.9-4.6-5.7-6.5-8.4,3.9-.9,7.3-3,9.7-6.1,2.2-2.8,4.5-7.6,3.7-14.8.5-.4.9-.9,1.3-1.4,2.2-2.5,3.5-5.6,3.9-8.9,5.4-.3,10.3-3.4,13.1-8.2,2.8-4.9,3-10.8.5-15.7.1-1.2.8-3.8,1.3-5.3v-.5c.8-2.3,1.6-5.3,2.2-8.7,2.8.4,5.6.6,8.4.6s3.4,0,5.1-.2c5-.5,9.4-3.1,12.2-7.3,1.5-2.2,2.4-4.7,2.7-7.3,1.3-5.1.2-10.6-3.4-14.9-3.6-4.3-7.1-8.8-10.3-13.5.5-1.8,1-3.7,1.4-5.6,3.9,1.9,7.9,3.3,12.1,4.3,1.2.3,2.4.4,3.6.4,8.4,0,15.4-6.4,16.3-14.8.6-5.8-1.9-11.3-6.3-14.7-9.1-13.4-14.5-29.1-15.9-45.4,16.1,12.3,34.6,21.3,54.1,26.1,3.6.9,7.4,1.7,11.2,2.3.9.1,1.8.2,2.7.2,7.3,0,13.6-4.6,15.7-11.6,2.2-6.9-.4-14.3-6.4-18.4-8.7-6-15.8-14.4-20.8-24.5,3.6-21.7,10.8-42.2,21.6-61,3.9-6.8,8.2-13.5,12.8-20.4,8.2-12.6,16.6-25.5,22.8-40.2,5.1-.5,9.6-3.4,12.3-8,10.2-17.2,16.7-36.2,19.4-56,1.2.3,2.4.4,3.7.4,8.9,0,16.1-7,16.4-15.9.5-17.1-3.1-34.2-10.4-49.5,10.5-4.8,17.9-14.3,19.2-25.4.5-4.5-.9-9.1-3.9-12.5-3.1-3.5-7.7-5.6-12.5-5.6s-2.4.1-3.5.4c-.2,0-.5,0-.7,0-2,0-5.2-1.6-8.4-4.4,2.8-1,5.4-1.8,7.9-2.3,6.7-1.3,11.7-6.6,12.8-13.5,1.1-6.8-2.2-13.7-8.1-17-12.2-6.8-24.8-6.9-36-6.9-2,0-4,0-5.8,0-9.9-.3-20.1-2.9-31.2-8-9.2-4.3-18.1-9.6-27.4-15.2-13.5-8.1-27.4-16.5-43.3-22-1.2-.4-2.4-.8-3.6-1.2.3-5.4-1.9-10.7-6.3-14.2-10.9-8.6-23.8-14.7-37.4-17.7l5-6.9c3.5-4.8,4-11,1.5-16.4-2.6-5.5-8-9.2-14.1-9.5-.9,0-1.9,0-2.8,0-8.9,0-17,2.3-24.5,5.6-.7-1.8-1.7-3.4-3-4.8-3.1-3.4-7.6-5.4-12.2-5.4h0c-4.3,0-8.4,1.6-11.4,4.6-1.9,1.9-4.9,2.8-8.9,2.8s-4.2-.3-6.5-.8c-4.7-1.1-9.6-3-14.2-4.9-1.7-.7-3.4-1.4-5-2.1,2.6-2.6,5.1-5.4,7.4-8.3,3.9-5,4.5-12,1.7-17.8-2.7-5.5-8.2-9-14.3-9-2.2,0-4.3.4-6.3,1.3-3.8,1.6-8.3,2.3-14.7,2.3s-7-.2-10.8-.4c-2.4-5.3-7.5-9.2-13.7-9.7-.8,0-1.6,0-2.4,0s-1.4,0-2,0c-2.5-.2-5.1-.3-7.6-.3h0Z"/>
      </g>
      <g>
        <path class="st10" d="M523,703.7c4.5-2.5,9.4-4,14.4-4.4-4.9,3.3-9.4,7.3-13.2,11.9-.7.9-.9,2.2,0,3.1.7.7,2.1.9,2.9.1,4.8-1.9,9.9-3.1,15-3.5-8.4,7.8-13.9,18.6-15.2,30.3-.1,1.2,1.1,2.2,2.1,2.2.6,0,1-.2,1.4-.6.3-.1.5-.3.8-.6,5.4-6.1,11.5-11.5,18.1-16-4.4,4.8-8.2,10.1-11.2,15.9-6.3,12.1-9,25.8-9.9,39.4-.5,8-.5,16-.3,24,0,2.7,4.1,2.8,4.2.2.5-.3.9-.9,1-1.7,2.3-19.6,9.3-38.5,20.1-54.8,5.4-8.2,11.8-15.7,18.9-22.4,8-7.4,17.1-13.4,25.2-20.6,8.3-7.4,15.7-16.6,18.5-27.8.1-.6,0-1-.1-1.4l.3-3.7c.2-1.8-2.5-3-3.6-1.5-6.2,8-15.5,13.5-25.5,14.3-10.4.8-20.8-3.1-28.3-10.5-.6-.6-1.2-.7-1.8-.6-.4,0-.9,0-1.4.2-12.4,6.8-24,15.2-34.5,24.9,0,0-.2.2-.2.3-1.9,1.5.1,4.8,2.4,3.6Z"/>
        <path class="st10" d="M611.5,597.1c-1.6-1.9-4.2.4-3.3,2.5.4,3,.8,5.9,1.1,8.9-.9-.8-1.8-1.5-2.8-2.1-4.1-2.7-8.8-4.6-13.5-5.7-9.4-2.1-19.3-1.1-28.1,3.1-.1,0-.3,0-.4,0-2.7,0-2.7,4.3,0,4.3,0,0,.2,0,.3,0,.2,0,.4,0,.7,0,6.1.1,12.2.5,18.1,2.4,6.1,2,10.9,6,15,11,8.5,10.3,15.1,22.7,19.5,35.4.9,2.5,4.7,1.5,4.1-.9,6.9-19.9,2.6-42.9-10.8-58.9Z"/>
        <path class="st10" d="M777.4,643.9c1.1,1.6,3.2,1,3.8-.3,1-.3,2-1.2,1.7-2.6-1.1-6.1,1.8-12.2,6-16.4,4.6-4.7,10.9-7.2,17-8.9,7-2,14.1-3.7,21.2-4.9,6.9-1.2,14.1-1.8,21.1-.6,6.8,1.3,13.3,4.2,18.2,9.3,1.4,1.5,4.3,0,3.5-2.1-4.9-13.1-13.9-24.2-25.5-31.7-12.4-7.9-27.1-10.8-41.5-8.6-6.6,1-13,3.1-18.9,6.1,4.6-10.7,14.6-18.7,26.1-20.4,1.8-.3,2-3.2.5-4-13.4-7.1-29.4-.5-37.7,11.4-9.3,13.3-10.1,31.6-6.7,47.1,2,9.5,5.9,18.5,11.2,26.5Z"/>
        <path class="st10" d="M966.3,805.1c.4-32.6.6-65.2-1.9-97.8-2.4-31.3-7.5-62.5-17.3-92.3-3.4-10.2-7.3-20.2-11.8-29.9-.8-3.6-1.6-7.1-2.4-10.7-.4-1.7-2.3-1.9-3.4-1-1-1.8-1.9-3.6-2.9-5.4-1.2-2.1-4.6-.7-3.9,1.7.7,2.1,1.4,4.3,2,6.4-3.1-4.1-6.7-7.8-10.6-11.1-2.1-1.8-5.1,1.3-3,3.1,14,11.8,23.3,29.3,25.4,47.9.4,3.5.5,7,.4,10.5-3.6-3.2-8-5.2-12.9-5.5-1.5,0-2.3,1.5-2,2.7,4,20.4,8.1,40.7,12.1,61.1-.9,0-1.8,0-2.7-.1-1.4,0-2.4,1.4-2,2.7,3.6,14.1,7.3,28.1,10.9,42.2-5.7-6.5-13-11.6-21.1-14.6-2.2-.8-3.3,2.1-2.1,3.6,22.1,27.3,29.2,63.7,31,98.3,1.8,36.1-1.4,72.5,3,108.4-.4.2-.7.6-.8,1.2-4.9,21.7-4,44.6,2.5,65.8,1.8,6,4.1,11.8,6.8,17.5.9,1.9,4.2,1,3.9-1.1-1.1-9.5-.8-19.1.8-28.5,3.7,9.9,8.8,19.1,15.2,27.5,1.4,1.9,3.9-.2,3.5-2.1-.2-1-.4-2-.6-3,.7.2,1.5-.2,2-.7.9.6,1.8,1.2,2.8,1.6,1.4.7,3.1-.1,3.2-1.9.2-13.3.5-26.5.7-39.8,2.9,6.9,5.9,13.7,8.8,20.6.9,2.1,3.9.9,3.9-1.1.5-32.3-3.3-64.7-11.3-95.9-7-27.4-18-53.5-26.3-80.5Z"/>
        <path class="st10" d="M539.2,602.8c-.7,1.9-1.4,3.8-2.1,5.7-.8,2.1,2.1,3.6,3.5,2.1,12.8-13.4,30.4-21.4,48.7-22.4,2.8.2,5.7.5,8.5,1,2.7.4,3.8-3.7,1.1-4.2-2.1-.4-4.3-.6-6.4-.9-.3-.3-.8-.4-1.3-.4-.7,0-1.4,0-2.1.1-8.9-.6-17.9-.2-26.7,1.5,4-5.8,9.7-10.3,16.2-12.9,9.3-3.7,19.5-3.6,29.1-1.1,5,1.3,9.9,3.3,14.5,5.7.1.3.3.6.4,1,.7,2.2,3.7,1.8,4.1,0,1.1-.9,1.5-2.7-.1-3.6-.4-.2-.9-.5-1.3-.7-4.9-9.2-15.6-12.6-25.5-12.8-10.4-.3-20.9,1.2-31,3.9,10.9-11.5,23.5-21.1,37.3-28.5,3-.7,6-1.4,9-2,6.2-1.2,12.5-2,18.8-2.4,2.7-.2,2.7-4.2,0-4.3-23.3-1.3-46.9,4.8-67,16.9-3.2,1.9-6.3,4.1-9.3,6.3,1-1.6,0-4.2-2.1-3.3-.3.1-.5.2-.8.3-.5,0-.9.1-1.4.5-19,7.6-39.4,10.9-59.8,9.6-2.7-.2-2.7,4.1,0,4.3l15.3,1.1c-13.4,7.4-28,12.3-43.1,14.3-2.6.3-2.8,4.4,0,4.3,8.1-.2,16.2-.4,24.3-.6-27.1,23.2-68.1,25.5-89,57-5.5,8.2-8.8,18-8.6,28,0,2.3,2.7,2.8,3.9,1.1,11.9-16.7,28.1-30.1,46.5-38.6-4.4,4.7-8.2,9.9-11.4,15.5-.4.1-.8.4-1.1.9-2.6,4.5-4.4,9.3-5.5,14.2-.4,1.3-.8,2.6-1.1,3.9-.1.6,0,1.1.2,1.5-.6,5.4-.5,11,.6,16.4.4,2,3.8,2.1,4.1,0,1.6-12,6.6-23.3,14.2-32.5,1.6-1.7,3.2-3.4,4.8-5.1,1-.9,2-1.8,3-2.7,0,.3,0,.7-.1,1-.3,2,2.4,2.7,3.6,1.5,1.5-1.5,2.9-3,4.4-4.4,0,2.8,0,5.6,0,8.4,0,2.3,2.7,2.7,3.9,1.1,4-5.3,7.9-10.6,11.9-15.9-.9,18-1.8,36-2.6,54-.1,2.6,3.4,2.8,4.1.6,1.5-4.5,3.1-9.1,4.6-13.6-3.1,29.9-4.9,59.9-5.4,90,0,5.6-.1,11.3-.1,16.9-1.6-5-3.2-10-4.8-15-.6-2-3.5-2.1-4.1,0-3.7,13.2-4.9,27.1-3.5,40.8,0,.5.2.9.5,1.2,0,.2,0,.5,0,.7,2.4,14.5,4.9,29,7.3,43.4,1.2,7,2.4,13.9,3.1,20.9.3,3.6.5,7.2.4,10.8,0,.7,0,2.5-.6,2.9,0,0,0,0-.1,0-1.6-2.9-3-6-4.2-9.1-.3-1.4-.6-2.8-1-4.2-.7-2.8-1.4-5.6-2.1-8.3-.9-6.1-.8-12.4.3-18.6.5-2.7-3.6-3.9-4.1-1.2-.2.9-.3,1.8-.4,2.7-.8-5.8-1.7-11.6-2.4-17.4-1.7-14.6-2.8-29.3-3.2-44-.1-5.1-.2-10.2-.2-15.3.1-1.5.3-3,.4-4.5,0-.6-.1-1.1-.4-1.4,0-1.2,0-2.5,0-3.7,0-2.8-4.2-2.8-4.2,0,0,3.2,0,6.4-.1,9.5-.8,8.6-1.6,17.1-2.5,25.7-.8-7.4-1.7-14.8-2.5-22.3.2-1.9.5-3.8.7-5.7.1-1-.7-1.8-1.6-2.1-.8-7.3-1.7-14.6-2.5-22-.3-2.7-4.5-2.8-4.2,0,1.1,9.9,2.2,19.8,3.4,29.8-1.4,10.6-2.7,21.1-4.1,31.7-.4-1.7-.8-3.4-1.3-5-.5-2.1-3.5-2-4.1,0-.5,2-1.1,4-1.6,6l-1-2.1c-.7-1.6-3.5-1.3-3.9.5-.4,2.2-.8,4.4-1.2,6.6-1.9-2.3-3.7-4.7-5.6-7-1.1-1.4-3-.4-3.5,1-1,2.6-1.9,5.3-2.9,7.9-5.6-22.7-6.7-46.5-3.2-69.6.4-2.7-3.1-3.8-4.1-1.2-4.6,12.6-9.2,25.3-13.7,37.9-1.1-2.5-2.2-5.1-3.3-7.6-1-2.2-3.8-.8-3.9,1.1-.1,1.1-2.6,1-2.8,0-.1-.5-.4-.9-.7-1.1-3.6-12.7-4.9-25.9-3.7-39,.1-.2.2-.4.4-.6.5-.9.3-1.8-.2-2.4-.4-1.7-2.9-1.8-3.8-.3,0,0,0,0-.1,0-4.1,4.5-6.7,10.3-7.4,16.4-.4,1.1-.9,2.2-1.3,3.3-.3.7,0,1.4.4,2,2.5,11.5,6.4,22.5,11.4,33.1.9,5.3,3.2,10.4,5.8,15,5.2,9.1,11.4,17.8,17.1,26.6,11.7,18,23.3,36,35,54,3.5,5.4,7,10.8,10.5,16.3,2.4,6.4,3.5,13.2,3.4,20.1,0,1.9,2.3,2.8,3.6,1.5,2.9-2.7,5.4-5.8,7.6-9.1.7-.7,1.3-1.5,2-2.2,0,.1,0,.2,0,.3.5,4.3,0,8.7-1.5,12.9-.7,2.1,2.1,3.6,3.5,2.1,1.6-1.7,2.9-3.5,4-5.5.6,4.6,1.6,9.1,2.8,13.6.1,1.4.1,2.7,0,4.1,0,0,0,.1,0,.2,0,.2,0,.3,0,.5,0,.4-.1.7-.2,1.1-.1.6-.3,1.1-.5,1.7-1.4,1.9,1.4,4.5,3.3,2.7,4.7-4.3,4.2-10.9,4.7-16.7.2-2.5.9-4.9,2.1-7-.5,3.6-.4,7.2-.3,10.9.2,6.4.2,13-3.6,18.4-1.4,1.9,1.2,3.8,2.9,3,3.6-1.7,5.8-5.5,7.9-8.9,1.6,11.1-.3,22.6-5.3,32.6,0-.2,0-.4,0-.6.2-1,.3-2.1.2-3.1.4-1.5.7-3.1,1-4.6.9-3.2,1.3-6.6.2-9.8-.7-1.9-3.5-2.2-4.1,0-1.6,6.6-5.6,12.7-11,16.7-1.4,1-2.9,2-4.4,2.7-1.5.8-3.5,1.1-4.7,2.3-1.6,1.5-1.5,4.2.5,5.3,2,1.1,4.2-.5,5.8-1.5,2.4-1.4,4.8-3,7.1-4.7,0,3.3.2,6.6.8,9.8-.2,1.7,0,3.5.6,5.2.6,1.6,2.2,2.1,3.5,1,9.3-8.1,16-19.2,19-31.4,3.3-13.9.7-27.8-.7-41.7-.4-4.6-.7-9.2-.5-13.8.8-3.2,1.7-6.4,2.9-9.4,0,0,0,0,0,0,.3-.4.4-.8.5-1.3.1-2.5,0-5-.2-7.5,1.1-9.8.7-20,0-29.7-1.4-23.2-2.3-46.4-2.3-69.6,0-23.8.8-47.6,2.4-71.4.8-11.6,1.7-23.3,2.9-34.9,1.1-11.3,2.2-22.6,4.2-33.8,2-11.1,5.4-22.4,12.3-31.4,5.3-6.9,12.7-12.6,21.2-14.4Z"/>
        <path class="st10" d="M844.3,790.1c-7.9-4.1-16.2-7.2-24.7-9.2-2.3-.5-3.8,2.7-1.6,4,6,3.5,10.6,8.9,13.2,15.3-3.5-.7-6.9-1.7-10.3-2.8-1.2-1-2.5-1.9-3.8-2.7-4.5-2.9-9.5-5-14.6-6.2-7.5-4.8-14.4-10.8-20.2-17.9-1.8-2.1-4.7.9-3,3.1,5.3,6.5,11.6,12.1,18.4,16.9,0,.8.5,1.5,1.5,1.7.5.1,1.1.3,1.6.4,5.7,3.6,11.8,6.5,18.1,8.7,1.9,1.5,3.7,3.2,5.3,5.1,7.1,7.9,11,18.3,11.3,29,.2,6.2-.9,12.4-3.1,18.2-.7,2,2.3,3.8,3.5,2.1,7-9.2,13.9-18.3,20.9-27.5-10.3,22.8-28,41.7-49.6,53.4-6.3,3.4-12.8,6.1-19.6,8.2-1.4.4-1.8,1.9-1.3,3.2,3.7,8.5,7.4,16.9,11.2,25.4-3.7,1.8-7.3,3.6-11,5.5-.2,0-.4,0-.5,0-2.5.4-4.7,1.6-6.4,3.5-1.7,1.9.4,4.5,2.6,3.4,1.8-.9,3.7-1.8,5.5-2.7,2.4-.1,4.8.8,6.9,2.1,5.1,3.4,6.2,9.8,5.3,15.6-1.1,6.8-4.3,13-7.6,18.9-3.1,5.5-6.7,10.7-10.6,15.6-15.6,19.4-36.8,33.8-59.9,42.2-27.9,10.1-58.1,11.8-87.3,8.1-22.5-2.9-51.5-8.9-61.1-33.2-5-12.6-3.8-26.7-1.7-39.8,2.4-15.3,5.7-30.6,8.6-45.8.8-4,1.5-7.9,2.3-11.9.2-1.3-.6-2.8-2-2.7-19.4.9-37.9-12.6-45.1-30.8-2.1-5.2-3.2-10.8-3.2-16.4,0-.4,0-.7-.2-1,0,0,.1-.1.2-.2,1.8-2.1-1.2-5.2-3-3.1-6.8,7.9-9.3,18.4-8.9,28.8.4,12,4.6,23.3,8.6,34.4,4,11.1,7.4,22.3,8.5,34.1,1.1,11.3.5,22.8-1.7,34-2.5,12.6-7,24.6-13.5,35.6-1.2,2.1,1.7,4.5,3.3,2.6,3.8-4.5,7.6-9.1,11.5-13.6-1.1,5.4-2.1,10.7-3.2,16.1-.4,1.9,2.1,3.9,3.5,2.1l12.1-14.7c-2,15.6-3.9,31.2-5.9,46.8-.3,2.3,2.9,2.7,3.9,1.1,4.1-6.5,8.1-13.1,12.2-19.6,0,11.7-.2,23.3-.3,35,0,2.4,3.5,2.9,4.1.6,2.4-9.1,7.8-17,15-22.6-1.1,7.3-2.3,14.7-3.4,22,0,.5-.2,1-.2,1.6-.4,2.7,3.6,3.9,4.1,1.2.2-1.3.4-2.5.6-3.8.9-5,2.3-10.3,6.6-13,2.1-1.4,4.9-2.1,7.3-1.1,2.4,1.1,3.5,3.6,3.9,6.1.5,2.7.2,5.6-.1,8.3-.4,3.9-.9,7.8-1.4,11.6-.9,7.8-1.9,15.7-2.8,23.5-.7,5.7-1.4,11.4-2,17.1-.6,3-1,6.1-1.1,9.2-.1,2.9,3.9,2.7,4.2,0,.3-2.8.7-5.7,1-8.5,3.1-16.4,12.9-31.3,26.7-40.3-.9,12-1.9,24-2.8,36-.2,2.4,3.8,3,4.1.6,2-15,9.3-29,20.4-38.9,1.6,12.5-1.5,25.5-8.4,35.9-1.8,2.3-3.6,4.5-5.4,6.8-1.7,2.1,1,5.1,3,3.1,2.2-2.3,4.1-4.8,5.8-7.4,8.6-10.9,17.3-21.8,25.9-32.7-2.4,16.6-7.7,32.6-15.7,47.2-1.2,2.2,1.5,4.2,3.3,2.6,10.8-9.3,19.5-20.8,25.8-33.7.1-.1.2-.2.3-.4-.3,7.2-.6,14.4-.9,21.7,0,2.2,2.9,2.8,3.9,1.1,4.6-7.5,9.1-15.1,13.7-22.6-.3,3.6-.6,7.1-.9,10.7-.1,1.6,1.9,2.7,3.2,1.9,12-7.8,21-19.6,25.9-33.2-.2,8.8-1.2,17.5-3.2,26-.5,2,2.1,3.8,3.5,2.1,9.5-10.9,16.7-23.7,21.3-37.5.3-.7.6-1.3.9-2-.1,6.9-.2,13.8-.3,20.7,0,2.2,2.9,2.9,3.9,1.1,3.8-6.6,7.7-13.2,11.5-19.8,1.3-1.8,2.5-3.7,3.6-5.6-.5,17.6,3.6,35.3,11.9,50.9,1.2,2.2,4.4.7,3.9-1.7-4.7-20.6-3.6-42.5,3.1-62.5.2-.1.3-.3.5-.4,1.3,7,2.6,14,3.9,21.1.4,2,3.7,2.1,4.1,0,2.4-15.2,9.7-29.1,20.6-39.6,1.1,8.5,2.2,17.1,3.3,25.6.3,2.4,3.2,2.9,4.1.6,4.1-10.8,8.3-21.7,12.4-32.5.1,0,.2,0,.4-.1,6.6-2.4,12.5-6.8,17.1-12.2,10.2-12.1,13.4-28.4,15.8-43.7,2.8-18.1,5.2-36.3,7.4-54.5,1.8-15.5,4.1-31.2,3.5-46.9-.5-12.7-3.1-25.6-10.2-36,11.5,12.9,17.1,31.2,14.1,48.5-.4,2.3,2.6,4,3.9,1.7,4.5-8.5,6.3-18.2,5.3-27.7,3.3,3.2,6.5,6.4,9.8,9.6,1.5,1.5,4.1,0,3.5-2.1-8.7-30.8-30.6-57.2-58.4-71.6Z"/>
        <path class="st10" d="M674.8,663.7c.8.2,1.7,0,2.3-.9.3-.4.7-.8,1.1-1.2,1.1.5,2.6.2,3-1.3.1-.4.2-.7.3-1.1.2,1.5.3,3,.5,4.4,0,.9.6,1.9,1.6,2.1,3.2.6,5.3-1.6,6.6-4.4.3-.5,1.4-3.3,2.1-3,.5.2.4,1.7.3,2.6,0,0,0,0,0,0,0,0,0,0,0,0,0,.3,0,.5,0,.6-.3,2.4,3.7,3,4.1.6.4-2.3,1.6-4.5,3.7-5.5,2.1-1,4.5-.3,6,1.5,1.1,1.4,3.8.3,3.6-1.5-.5-3.8-.9-7.6-1.4-11.4-.1-.9-.6-1.8-1.6-2.1-2.7-.7-4.7-3-4.9-5.8-.2-2.3-3.7-3.1-4.1-.6,0,.3-.1.7-.2,1-3.1-7.3-6.2-14.5-9.2-21.8-.9-2.1-3.8-.8-3.9,1.1,0,1.9-.2,3.8-.4,5.6-2.5,13.4-6.8,26.3-12.8,38.4-1.1,2.3,1.9,4.3,3.3,2.7Z"/>
        <path class="st10" d="M755.8,683.2c13.8,6.4,24.9,17.8,31,31.9.4,1,1.2,1.3,2,1.1,0,3.4.1,6.7.2,10.1,0,2.4,3.6,3,4.1.6,1.1-5,1.1-10.1.2-15,1.1-.4,1.9-1.7,1.1-3.1-.5-.9-1-1.8-1.5-2.6,0-1.4,0-2.9,0-4.3,4.6,2.6,9.1,5.1,13.7,7.7,2.4,1.3,4.5-2.4,2.1-3.7-1.1-.6-2.1-1.3-3.2-2,0-.3,0-.6-.3-.9-3.9-8.1-8.9-15.5-14.9-22.1-1.5-1.6-4,0-3.5,2.1.3,1.1.6,2.2.9,3.3-3.6-2.2-7.5-4-11.6-5.3-.3,0-.6,0-.9,0-2.3-1.6-4.9-2.9-7.7-3.6-2.2-.6-3.9,2.9-1.6,4,1.8.9,3.3,2.3,4.3,3.9-3.4-2-6.8-4-10.3-6.1-.9-.6-1.8-.3-2.4.3-2.3-.7-4.2,2.8-1.8,3.9Z"/>
        <path class="st10" d="M1144,651.9c-1.1-2.4-4.2-.6-3.9,1.7.6,3.9.3,7.8-.8,11.5-4.2-10.1-10.8-19.2-19.1-26.1-4-3.3-8.3-6.2-12.9-8.4-2-1-4.5,1.7-2.6,3.4,9.8,8.5,16.2,20.2,19.6,32.8,3.9,14.7,3.7,30.1,2.3,45.2-.4,4.5-1,8.9-1.6,13.4-.4,3.2-.9,6.7-2.6,9.6-.3-1.1-.6-2.3-1-3.4-.6-1.9-3.6-2.2-4.1,0-6.2,27.8-18.3,54.1-35.1,76.9-2.5,3.4-5.2,6.8-7.9,10,2.6-7,5.2-14.1,7.8-21.1.9-2.3-2.7-3.8-3.9-1.7-7.3,13.2-13.2,27.2-17.6,41.7-.2-3.9-.4-7.8-.7-11.8-.2-2.8-4.4-2.8-4.2,0,.5,6.4-.4,12.7-2.6,18.6,0-2.7,0-5.3,0-8,.5-4.4,1-8.7,1.5-13.1.9-8.7,1.8-17.3,2.8-26,.3-2.8-3.9-2.7-4.2,0-1,9.4-2,18.8-3,28.3-.7.3-1.3.9-1.3,1.9,0,3.2,0,6.3,0,9.5l-.8,7.2c-1.4,13.4-3.6,27.1-1.8,40.6.9,6.9,3.1,13.6,7.1,19.4,1,1.5,3.4,1.4,3.9-.5,6.3-24.5,12.9-49,26.4-70.5,12.9-20.6,29.7-38.9,37.1-62.7,2-6.4,3.2-13,3.4-19.7.3,0,.5-.3.8-.5,1.1-1.1,2.6-.8,3.5,0,0,1.2,0,2.5,0,3.7,0,1.4,1.4,2.3,2.6,2.1.6,1.3,1.2,2.7,1.7,4,.8,1.9,3.3,1,3.9-.5,4.6-11.8,7.4-24.2,8.5-36.8.2-.3.3-.6.4-1.1,1-11.9,6.5-22.9,7.5-34.8,1.1-12.4-4-24-9.1-35Z"/>
      </g>
      <path class="st15" d="M709,739.6c-10-10.3-25.4-12.4-38.8-14.7-15.5-2.7-31.3-3-46.9-1-15.7,2.1-31,6.5-45.3,13.2-13,6-23.4,10.4-24.4,26.5-.2,3.5-.7,5.5-.4,8.5s.7,5.7,1.2,9.2c3.3,10.8,4.3,17.4,10.5,26.6,8.3,12.3,20.2,21.8,33.7,27.3,29.7,11.9,62.5,1.2,86.1-19.1,5.7-4.9,10.9-10.4,15.7-16.2,5-6.1,9.7-12.7,13-20,6.1-13.6,6.5-29-4.4-40.3Z"/>
      <g>
        <path class="st8" d="M1161.1,643.8c7.3-1.9,13.5-7.5,14.4-15.4.2-1.5-1.5-2.4-2.7-2.1-8.2,1.8-16.1-2.6-22.1-7.9-5.7-4.9-10.9-10.4-16.2-15.8,10.5-3.2,21-8.9,31.2-10.9,1.8-.4,2-3.1.5-4-10.9-6-23.4-4.9-35.4-5.2-12.9-.4-25.2-4-36.9-9.4-23.8-11-44.6-28.2-69.6-36.7-7.9-2.7-16.2-4.5-24.6-4.9-1.9-3.2-4.5-5.9-7.5-8,5.4-1.5,10.8-2.6,16.3-.9,2.5.8,3.4-2.6,1.6-4-15.7-12.4-35.7-18.2-55.3-16.6,6.7-9.2,13.4-18.4,20.1-27.7,1-1.4-.4-3.2-1.8-3.3-13.2-.7-25.2,5.9-36.1,12.6-5.2,3.2-10.4,6.5-16,9.1,6.8-6.1,11.5-14.8,12.4-24.2.2-2-2.4-2.7-3.6-1.5-7.6,7.4-18.9,8-28.7,5.7-5.6-1.3-11.1-3.4-16.4-5.7-5.8-2.4-11.6-4.8-17.4-7.3-3.8-1.6-7.7-3.2-11.5-4.8,9.8-4.7,18.6-11.6,25.4-20.3,1.1-1.5.1-4.6-2.1-3.6-19.1,8-41.7-1.4-60.9,4.6,3.5-3.4,7.3-6.3,11.9-6.9.6,0,1.1,0,1.7.2.5,0,.9,0,1.2-.3,0,0,0,0,.1,0,2.7.2,2.7-4.1,0-4.3-1.1,0-2.2,0-3.3,0-23.4-2.2-47.2,5.8-65.2,21.2-3.5,3-6.7,6.2-9.6,9.7.5-6.4,1-12.8,1.4-19.1.2-2-2.1-2.6-3.3-1.6-.7-.3-1.6-.3-2.4.3-6.4,5.7-12.8,11.4-19.2,17.1,1.1-3.8,1.6-7.7,1.5-11.7,0-2.7-4.1-2.8-4.2-.2-.6-.2-1.4,0-2,.5-4.9,4.6-9.4,9.6-13.7,14.7,1-5.3,2-10.7,3-16,.2-.4.3-.7.2-1.1,0-.2,0-.4.1-.6.2-1.2-.3-2.3-1.5-2.7-1-.3-2.4.4-2.6,1.5,0,.4-.1.8-.2,1.2-5.9,8.7-12.9,16.6-20.7,23.6,3.5-7.4,6.4-15,8.6-22.8.3-1.1-.2-1.9-.9-2.3-.4-1.2-1.6-2.1-3-1.2-11.1,8-21.1,17.5-29.6,28.3-2.8-2.6-7-3.1-10.5-1.7-4.3,1.7-7.1,5.6-9.1,9.7-2.5,5-4.5,10.2-6.1,15.5-.4-.4-1.1-.6-1.8-.3-23.7,8.6-46.2,20.7-66.6,35.9-4.9,3.7-9.7,7.5-14.4,11.5-17.5-11.1-37.3-18-57.8-20.1-.1,0-.2-.1-.3-.2-2.3-1.3-4.3,2-2.4,3.5.3.4.7.7,1.2.8,5.3,3.4,9.1,9,10.4,15.2-10.2-1.7-20.5-3.3-30.7-5-1.9-.3-3.2,1.4-2.4,3.2,1.3,2.9,2.7,5.7,4,8.6-9,.6-18,1.3-26.9,1.9-1.7.1-2.9,2.3-1.5,3.7,1.1,1.1,2.2,2.1,3.3,3.2-8.2,4.1-16.5,8.3-24.7,12.4-1.2.6-1.4,2.5-.4,3.4,5.1,4.4,11.2,7.3,17.6,8.6-22.2,7.8-45.6,12.1-69.1,12.5-1.5,0-2.7,1.8-1.8,3.3,5.8,9.3,15.8,15.5,26.6,16.5-12.3,13.9-29.3,23.1-47.5,26-5.6.9-11.2,1.1-16.9.7-2.6-.2-2.6,3.4-.6,4.3,8.9,3.8,17.9,7.6,26.8,11.5-17,10.6-29.4,28.6-33.7,48.5-1.3,6.1-1.9,12.4-1.6,18.7,0,2,2.2,2.7,3.6,1.5,7.1-5.9,14.3-11.7,21.4-17.6-7,17.8-9.1,37.4-5.9,56.5.3,2,2.9,1.9,3.9.5,1.8-2.6,3.7-5.3,5.5-7.9,8,31.8,21.5,62.2,39.9,89.1,5.4,7.9,11.1,15.5,17.3,22.8,0,0,0,0,0,0,12.3,20.5,20.4,43.5,23.6,67.3,1,7.1,1.5,14.3,1.5,21.5,0,.6.2,1,.5,1.4.3.4.7.7,1.1.8,1.2.3,2.2-.4,2.6-1.5,1.9-4.8,3.8-9.6,5.7-14.5,4.3,15.6,4.7,32.2.9,48-.1.4,0,.8,0,1.1,0,0-.2,0-.2.1-1.1.4-1.8,1.5-1.5,2.7.3,1.1,1.5,1.9,2.6,1.5,5.5-2.1,10.4-5.8,14-10.6.1,4.7.3,9.5.4,14.2,0,.5.2,1,.4,1.3-.4.2-.8.5-1.2.7-1,.5-1.3,2-.8,3,.6,1.1,1.9,1.3,2.9.8,4.9-2.4,9-6.2,11.9-10.9-1.8,17.6-9.1,34.4-21,47.3-.3.3-.5.7-.5,1.1-1.5,1.3-.4,4.4,1.9,3.8,10.3-2.8,19.5-9,26.2-17.4-3,10.5-11.2,19-21.9,22-.6.2-.9.5-1.2.9-2.4-.2-3.4,3.6-.8,4.2,6.4,1.5,13,1.8,19.4,1-8.7,7.2-17.9,13.7-27.6,19.5-.1,0-.2.2-.3.2-2.1-1.2-4.8,1.6-2.7,3.3,6.2,5,14,6.4,21.7,5.4,5.2-.7,10.1-2.5,14.9-4.7-6.9,8.8-15.7,15.9-25.7,20.9,0,0-.1,0-.2.1-.6-.2-1.2-.5-1.8-.7-2.5-1-3.6,3.2-1.1,4.2,14,5.8,29.8,5.5,43.6-.5-2.2,5.3-4.4,10.6-6.6,16-2.3,5.5-4.3,11.4-7.4,16.6-1.8-.3-2.7,2-1.9,3.4-.2,1.8,2.3,3.1,3.7,1.7,17,5,35,6.1,52.4,3-2.5,9.4-6.7,18.2-12.6,26-.2.2-.3.4-.3.6-2,1-.9,4.6,1.6,4,12.4-2.9,23.4-10.8,30.4-21.6,3.2,12.8,3.9,26.1,2,39.2,0,.5,0,1,.2,1.3-.1,0-.3,0-.4.1-2.6.7-1.5,4.9,1.1,4.2,9.1-2.3,18.2-4.9,27-8.3,5.2-2,10.3-4.7,13.9-8.8,1.4,11.9,6.7,23.2,14.3,32.5,11.2,13.5,26.8,22.3,42.9,28.3,5.2,2,10.5,3.6,15.8,5.2.4.2.9.3,1.3.5,3.9,1.4,7.8,2.4,11.8,3.1.8.2,1.5.4,2.3.6.6.2,1.2,0,1.6-.2,0,0,0,0,0,0,0,0,0,0,0,0,.7-.4,1.2-1.2,1.2-2,0-1.3-1-2-2.1-2.2-.6,0-1.2-.2-1.8-.3-4.5-1.2-8.9-2.3-13.4-3.6-10.4-4-19.9-10.4-27.6-18.6,16.1,9.4,33.7,16,51.9,19.2,1.2.2,2.1-.5,2.5-1.5,5.1,3.2,10.5,5.7,16.2,7.4,4.2,1.3,15,4.8,15.2-3,0-2.1-.9-4-1.7-5.8-.5-1.2-1-2.4-1.5-3.6,10.2-2.3,19.4-8.5,25.5-17.1,6.3-8.8,8.9-20,7.7-30.8,3.3,4.7,8.6,8.1,13.7,10.7,9,4.7,18.7,8,28.6,10,2.1.4,3.2-2,2.4-3.3.6-1.1.5-2.9-1.1-3.5-14.4-5.7-25.6-18.4-30.2-33.4,5.4,3.4,11.6,5.3,18,5.5,1.2,1.8,3.8.5,3.8-1.4.4-1,0-2.4-1.1-2.8-2.2-4.9-3.5-10.2-3.8-15.7,7,15.5,20.4,27.6,36.7,32.3,5.9,1.7,12,2.4,18.1,2.2.1,0,.3,0,.4,0,.4.3.8.6,1.2.8,2.3,1.5,4.5-2.3,2.1-3.8-13.2-8.3-21.7-23.3-22.6-39,7.5,7.3,18,10.9,28.4,9.4,1.4.7,3.6-.4,3.1-2.5-.8-3.1-1.7-6.1-2.5-9.2,8,9.8,19,17.2,31.4,20.4,6.3,1.7,13,2.3,19.5,1.8,1.7-.1,2.3-1.8,1.9-3.1.4-.9.2-2-.8-2.7-2.8-1.9-5.4-4-7.9-6.3,4.3,1.5,8.9,2.2,13.5,1.9.1,0,.2,0,.4,0,0,0,0,0,.1.1.7.9,2.2.8,3,0,.9-.9.7-2.2,0-3.1-2.5-3.1-5.1-6.3-7.6-9.4,5.6,1.7,11.5,2.2,17.3,1.5.2,0,.4,0,.5-.1.7.3,1.5.3,2.1,0,.8-.5,1.1-1.2,1-2,2.8,1.3,5.6,2.5,8.5,3.5,2.2.7,3.3-2.1,2.1-3.6-6.1-7.4-11.9-14.9-14.4-24.4-1.2-4.8-2-9.7-2.8-14.6-.4-2.4-.8-4.8-1.2-7.2,2.1,2.6,4.5,5.1,7,7.3,1.9,1.6,3.8,3.1,5.8,4.5,1.8,1.2,4.1,3.1,6.4,3,3-.3,3.2-3.4,2.8-5.8-.5-3-1-6-1.5-9-.9-5.7-1.8-11.3-2.8-17,2.3,4.1,4.1,8.5,5.3,13.1.6,2.3,4.5,1.9,4.2-.6-1.1-8.3,1.7-15.9,4.3-23.6,1.7,4.2,4.2,8,7.9,11,1.8,1.4,3.9-1.2,2.9-3-2.9-5.1-1-11,.5-16.2,1.5-4.9,2.4-9.8,2.1-14.9-.2-3.7-1-7.4-2.3-10.9,8.3,5.5,18.3,8.3,28.2,7.3,1.7-.2,2.3-1.9,1.9-3.1.6-.8.8-1.9,0-2.9-5.5-6.5-10.6-13.4-15.1-20.6,4.3-11.9,6-24.6,5.1-37.2,6.2,9.9,16,17.3,27.3,19.8,2.7.6,3.8-3.6,1.1-4.2-.1,0-.2,0-.4,0-14.5-20-21.8-45-20.6-69.9.3-5.9,1.1-11.7,2.4-17.4,18.3,21.2,43.1,36.5,69.9,43.2,3.4.8,6.7,1.5,10.1,2.1,2.3.4,3.7-2.5,1.6-4-12.2-8.4-21.6-20.5-27.5-34.2,3.5-24.8,11.6-48.7,24-70.3,12.6-22.1,29.2-41.9,37.7-66.3,3.1-8.9,4.9-18.2,5-27.5,2.3,7.5,2.9,15.4,1.6,23.2-.4,2.3,2.6,3.9,3.9,1.7,12.7-21.4,19.2-46.4,18.7-71.4,0-2.4-.2-4.8-.4-7.2,7.1,1.7,12.9,7.2,15.1,14.4.7,2.4,4.1,1.9,4.2-.6.6-20-5.4-40.1-16.9-56.3-1.3-1.8-2.6-3.6-4.1-5.3,5.1,1.4,10.3,2,15.4.6ZM1139.7,636.6c-.3-.3-.6-.6-.9-.9-.7-.7-1.5-.7-2.2-.4-.5-.2-.9-.4-1.4-.6-2.5-1.1-3.6,3.1-1.1,4.2,1,.4,2.1.9,3.1,1.3,14.6,14.7,23.5,34.7,25,55.6-3.5-4.5-8.4-7.8-13.9-9-.5-.1-.9,0-1.2,0-.3-3.3-.8-6.5-1.4-9.8-.5-2.7-4.6-1.6-4.1,1.2,4.2,23.8,1.6,48.6-7.2,71-1.3,3.3-2.8,6.5-4.3,9.7-.1-9.6-2.7-19.1-7.6-27.4,0-.2,0-.4-.1-.6-.2-.8-.6-1.2-1.2-1.4-1.6-2-5,.1-3.5,2.4.3.4.5.8.8,1.3,4.5,24.7-6.9,48.8-19.5,69-6.7,10.7-13.9,21-20.3,31.9-6.3,10.8-11.7,22.1-15.9,33.9-3.8,10.6-6.7,21.6-8.7,32.8-1-3.1-1.8-6.3-2.4-9.5-1.1-5.9-1.5-11.9-1.2-17.9.1-2.8-4.1-2.8-4.2,0-.5,12.5,1.8,24.9,6.6,36.3,0,.3.2.5.3.8,3.8,8.8,9,17,15.3,24.1,2,2.2,4.2,4.4,6.5,6.3-24.6-5.9-47.4-19.2-65.1-37.9-21.5-22.7-33.1-52.6-38.6-83.3-6.1-33.8-5.1-68.4-5.4-102.6-.2-34-1.6-68.7-12.2-101.2-1.1-3.4-2.4-6.9-3.7-10.3-4.6-14.1-10-27.9-16.2-41.4-2.8-6-5.7-12-8.8-17.8-1.3-2.5-5-.3-3.7,2.2,4.4,8.3,8.5,16.9,12.2,25.5-7.3-10.7-16-20.3-26.4-28.1-2.7-2.1-5.6-4-8.5-5.7-2.4-1.4-4.5,2.3-2.1,3.8,23.3,14.2,39.5,37.5,49.5,63,.6,1.9,1.2,3.8,1.8,5.7,1.9,6.3,3.7,12.6,5.3,18.9.2.6.5,1,.9,1.3,5.9,25.1,7.3,51.3,7.6,77.1.4,34.5-.8,69.2,4.4,103.5,4.6,30.3,14.5,60.1,33.6,84-6.2,24.9-3.5,51.7,7.1,75,2.2,4.9,4.8,9.6,7.8,14.1-11.9-5.4-21-16.8-23.2-30.1-.5-2.7-4.6-1.6-4.1,1.2,0,.5.2,1,.3,1.5-.4.5-.5,1.1-.4,1.8,3.3,14.8,2.6,30.4-1.9,44.8-6.4-11-11.7-22.7-15.8-34.8-.9-2.6-5-1.5-4.1,1.2,4.5,13.7,10.6,26.7,18,38.9,0,.2-.1.4-.2.6-.7,1.7.8,2.7,2.2,2.6,4.2,6.5,8.8,12.8,13.7,18.7-12.7.5-25.1-5.3-33.1-15.5-.3-.4-.7-.6-1.1-.7-.5-.5-1-1-1.5-1.5-2-1.9-5,1.2-3,3.1,7,6.3,10.9,15.6,10.8,25.2-.1,7.1-3.9,14.5-4.2,21.6-1.4-2.5-2.3-5.4-3-8.3.2-.8.4-1.6.6-2.4,1.8-8.6,1-18.7-5.6-24.9-1.3-3.5-3.1-6.8-5.8-9.6-1.9-2-4.9,1.1-3,3.1,1.8,1.9,3.2,4.1,4.2,6.4-.4.7-.3,1.6.5,2.2.2.1.3.3.5.5,2,5.8,2.4,12.3,3.2,18.2.3,2.1.6,4.1,1.1,6.2-1.8,6.7-4.6,13.3-5.8,20.1-5.2-11-13.9-20.2-24.6-25.6-2.4-1.2-4.6,2.5-2.1,3.8,6.8,3.5,12.8,8.6,17.4,14.7-.8.4-1.3,1.3-1.1,2.4,1.1,6.7,2.2,13.3,3.2,20,.5,3.3,1.2,6.6,1.6,10-.4-.2-1-.5-1.2-.6-1.1-.7-2.1-1.4-3.1-2.1-8.5-6.2-15.2-15-19-24.9-1-2.6-5.1-1.4-4.1,1.2,1.1,2.9,2.5,5.6,4,8.3,0,.2,0,.4,0,.7.9,5.4,1.9,10.9,2.8,16.3.9,5.2,1.6,10.5,3.1,15.5,2,7,5.7,12.9,9.9,18.5-10.3-4.8-19.6-11.8-27.1-20.5-1.8-2.1-4.8,1-3,3.1,4.4,5.1,9.3,9.5,14.7,13.4,0,0,0,.1,0,.2-.2,1,.3,2.5,1.5,2.7.5,0,1,.2,1.4.3.2,0,.4.1.6.2.1,0,.3,0,.4.1,0,0,.1,0,.2,0,0,0,0,0,0,0,.1,0,.2.1.4.2.2.1.4.2.6.3.4.2.7.5,1.1.8,0,0-.1-.1,0,0,0,0,0,0,0,0,0,0,0,0,0,0,0,0,0,0,0,0,0,0,.2.1.2.2.2.2.4.3.5.5,0,0,0,.1.1.2-7.3.5-14.6-1-21.1-4.6-2.4-1.3-4.5,2.4-2.1,3.8.2,0,.3.2.5.2,0,.3.3.7.5,1,2.8,3.5,5.6,6.9,8.3,10.4-6.7-.3-13.2-2.7-18.6-6.8-1.2-1.6-2.3-3.2-3.3-4.9-1.4-2.3-4.9-.3-3.7,2-.5.8-.5,1.8.3,2.6,1.2,1.2,2.4,2.4,3.7,3.4,4,5.3,8.7,10.1,13.9,14.1-20.1,0-39.1-10.8-49.3-28.8-.5-.8-.9-1.6-1.3-2.5-.5-2-1.1-4-1.6-6-.2-.9-.8-1.3-1.5-1.5-.7-2.1-1.4-4.3-1.9-6.4-.6-2.7-4.7-1.6-4.1,1.2,1.1,5,2.8,9.7,5.1,14.2,1.8,6.5,3.5,12.9,5.3,19.4-10,1.1-20.4-3.5-26.6-11.7,0-1.1-.6-1.7-1.3-1.9,0,0,0,0,0,0-1.5-2.3-5.2-.2-3.7,2.2.2.4.5.7.8,1.1-.8,16.1,6.1,32.1,17.9,42.6-18.1-1.1-34.8-11.5-43.8-27.8-2.7-4.8-4.5-10-5.7-15.4-.6-2.7-4.7-1.6-4.1,1.2.1.6.3,1.2.4,1.8,0,.1,0,.2,0,.3-1.4,8.6-.5,17.3,2.7,25.2-6.3-.6-12.5-3.1-17.4-7.4-.9-.8-2.1-.9-3,0-.3.3-.5.8-.6,1.2-.3.4-.4,1-.3,1.6,3.3,15.9,13.5,29.7,27.1,37.6-6.1-1.7-12.1-3.9-17.8-6.7-7-3.4-16.4-8.3-16.6-17.5,0-2.8-4.3-2.8-4.2,0,0,1.7.3,3.4.8,4.9-1.2,0-2.4,1.1-2.2,2.7,1.9,10.7-.6,21.9-6.8,30.7-5.6,7.9-14.2,13.3-23.5,15.3-1.7-4.1-3.4-8.2-5-12.3-.4-1.1-1.4-1.8-2.6-1.5-1,.3-1.9,1.6-1.5,2.7,2.8,6.9,5.6,13.8,8.4,20.6.3.8,1.7,3.2,1.2,4.2-.5.9-2.5.4-3.4.2-2.7-.5-5.3-1.2-7.9-2-10.4-3.4-19.8-9.6-27.2-17.7-3.7-4-6.8-8.6-9.4-13.4,0-.3,0-.7-.1-1-.1-1.5-1.3-2.1-2.4-2.1-1.4-.1-3,1.5-2.2,3.3.2.4.4.8.7,1.2,1.3,8.5,5.7,16.3,12.1,21.8-17.6-4.6-34.4-12.3-49.5-22.7-.6-.9-1.1-1.7-1.7-2.6-1.3-2.1-4.3-.6-3.9,1.5-.5.9-.4,2.2.7,3,.6.4,1.2.9,1.8,1.3,4.6,6.9,10.2,12.9,16.6,18-4.3-1.9-8.5-3.9-12.6-6.3-13.7-8-26-19.7-31.9-35-2.3-6.1-3.7-12.7-3.6-19.2,0,0,0-.2,0-.2.2-.6.1-1.1,0-1.5,0-2.1.3-4.2.7-6.3.5-2.7-3.6-3.9-4.1-1.2-.5,2.8-.8,5.5-.8,8.3-2.8,7.2-10.4,10.5-17.1,12.8-6.6,2.4-13.3,4.4-20.1,6.2,2.3-15.8,1-31.9-4-47.1-.9-2.6-5-1.5-4.1,1.2,0,.3.2.6.3.9-5.3,9.8-13.8,17.3-23.9,21.2,5.2-7.8,9-16.6,11.1-25.8.5-.5.6-1.3.4-2,.3-1.6.6-3.1.8-4.7.4-2.7-3.7-3.9-4.1-1.2-.2,1.5-.5,3-.8,4.5-17,3.3-34.5,2.5-51.1-2.2,2.7-5,4.7-10.4,6.8-15.6,2.9-7,5.8-13.9,8.7-20.9.5-1.1.3-2.3-.8-3-.8-.5-2.3-.3-2.8.6-.5-.2-1.1-.2-1.6.1-11,5.5-23.6,6.7-35.4,3.8,11.4-6.4,21.2-15.7,28.3-26.9.3-.2.6-.3,1-.5,1.1-.6,1.3-1.7.9-2.5,0-.2.2-.3.3-.5,1.4-2.4-2.3-4.6-3.7-2.2-.5.8-.9,1.6-1.4,2.4-10.4,5.5-23.9,11.6-35,6.1,11.6-7,22.5-15.1,32.6-24.1,0,0,.1,0,.2,0,.7-.2,1.2-.7,1.4-1.3.2-.1.3-.3.5-.4,2-1.9-1-4.9-3-3.1-.4.3-.7.6-1.1,1-5.7,1.6-11.5,2.2-17.4,1.8,12.3-5.9,20.6-18.6,20.7-32.8,0-2.8-4.2-2.8-4.2,0,0,.5,0,1,0,1.4-.7,0-1.4.2-1.9,1-4.9,7.5-11.9,13.5-19.9,17.1,11.1-14.2,17.6-31.9,18.4-50.1.7-.1,1.4-.5,1.8-1.4,5.5-14.5,7.7-30.1,6.5-45.6,1.1-1.4,2.2-2.8,3.2-4.1.7-.9.9-2.2,0-3.1-.8-.7-2.3-.9-3,0-.4.5-.7.9-1.1,1.4-.2-.3-.4-.6-.7-.8.1-.8.3-1.6.4-2.4,0-.4,0-.8,0-1.2,1.3-1.9,2.6-3.7,3.9-5.6.6-.9.2-2.5-.8-3-1.1-.6-2.2-.2-2.9.8-.5.7-1,1.5-1.5,2.2,5.1-23.9,7.8-48.4,7.9-72.9,0-7.8-.2-15.5-.7-23.3-.2-2.8-4.4-2.8-4.2,0,.5,7.4.7,14.8.7,22.2-4.3-41.3-5-83-2.1-124.4,1.4-20.3,3.6-40.5,7.1-60.6,3.1-17.9,7.3-35.7,13.7-52.7,7-18.8,16.7-36.6,29.8-51.6,1.8-2.1-1.2-5.2-3-3.1-5.5,6.2-10.3,12.9-14.6,19.9-.6-.4-1.3-.5-2.1,0-21.9,12-38.8,32.7-47,56.7-2.3,6.9-3.9,14-4.7,21.2-.3,2.8,3.9,2.7,4.2,0,2.8-24.1,15-46.7,33-62.5,4.1-3.6,8.6-6.8,13.3-9.6-12.7,22.4-20.4,47.7-25.3,73.1-3.8,19.6-6.1,39.5-7.8,59.4-1.9,21.9-2.7,43.9-2.5,66,.2,24.9,1.7,49.7,4.5,74.4.2,1.9,2.4,2.5,3.5,1.7-.4,17-1.9,33.9-4.8,50.6-1.3,7.5-2.8,15-4.6,22.5-.1.6,0,1.1.2,1.5-.5.9,0,2.4.8,2.8.4.2.9.3,1.3.3-.4,2.4-.7,4.8-1.1,7.1-.1.9,0,2,1,2.5.7.4,1.7.4,2.3-.2.4,11.4-1.2,22.8-4.6,33.8-1.1-1.5-3.9-1.1-3.8,1.2,0,.5,0,.9,0,1.4-.5.2-.9.7-1.1,1.3-1.4,5.1-4.4,9.5-8.4,12.8-.2-6.9-.4-13.9-.6-20.8,0-2.8-4.2-2.8-4.2,0,0,0,0,.1-.1.2-2.2,4.7-5.7,8.8-9.9,11.5,3.8-17.6,2.8-36.1-3-53.1,0-.2.2-.5.3-.7.4-1.1-.5-2.4-1.5-2.7-1.2-.3-2.2.4-2.6,1.5,0,.2-.2.4-.3.7-.2.2-.3.5-.3.8-1.4,3.5-2.8,7.1-4.2,10.6-1.5-22.4-7.1-44.3-16.6-64.6-3.1-6.7-6.6-13.1-10.5-19.3-.4-.6-.8-.9-1.3-1-20.4-24.9-36.4-53.6-46.9-84.2-3.1-9-5.7-18.1-7.9-27.4-.5-2-2.9-2-3.9-.5-1.7,2.4-3.4,4.9-5.1,7.3-2.2-19.3,1.3-39.2,9.9-56.5,1.1-2.3-1.5-4.2-3.3-2.6-8.3,6.8-16.6,13.6-24.9,20.4.5-19.3,9-38,22.9-51.1,4.3-4,9-7.4,14.1-10.1,1.8-1,1-3.3-.5-4-7-3-14.1-6-21.1-9,17.1-1.1,33.8-7.8,47.3-18.8,4.6-3.8,8.8-8.1,12.6-12.8,1.1-1.3.5-3.8-1.5-3.7-9.6.5-19-3.8-25.2-11.3,26-1,51.8-6.4,75.9-16.3,2-.8,2-4.5-.6-4.3-7.9.7-15.9-1.3-22.4-5.9,8.1-4.1,16.3-8.2,24.4-12.2,1.2-.6,1.4-2.5.4-3.4-.7-.6-1.4-1.3-2-1.9,8.4-.6,16.8-1.2,25.2-1.8,1.7-.1,2.5-1.7,1.8-3.3-1.2-2.6-2.4-5.2-3.6-7.7,9.9,1.6,19.7,3.2,29.6,4.8,1.2.2,2.8-.5,2.7-2.1-.6-6.3-3.2-12.2-7.3-16.8,17.1,2.7,33.6,8.9,48.4,18.1-.4,1.7,2,3.5,3.7,2,18.7-16.4,39.7-30,62.1-40.4,6.2-2.9,12.6-5.5,19.1-7.8-.9,3.5-1.5,7.1-2,10.7-.2,1.2,1.1,2.2,2.1,2.2,1.3,0,2-1,2.1-2.2,1.1-8.7,3.6-17.3,7.2-25.3,1.5-3.4,3.2-7.1,6.2-9.5,2.4-1.9,6.1-2.5,8.4-.1-1.1,1.5-2.2,3-3.3,4.5-1.6,2.3,2.1,4.5,3.7,2.2,8.4-12.2,18.8-23,30.4-32-3.1,9.9-7.3,19.4-12.5,28.3-1.4,2.4,2.3,4.6,3.7,2.2.3-.6.6-1.1.9-1.7.5,0,1-.3,1.4-.6,8.2-6.5,15.6-14.1,22.1-22.3-.9,4.6-1.7,9.1-2.6,13.7,0,.4,0,.7,0,1.1-.4.6-.9,1.1-1.3,1.7-.7.9-.2,2.4.8,3,1.1.6,2.2.2,2.9-.8,5.5-7.6,11.7-14.7,18.5-21.2-.5,4.9-2.1,9.6-4.6,13.8-.2.2-.4.3-.6.5-1.7,1.5,0,3.8,1.8,3.6.7,0,1.4-.2,1.9-1,0-.1.1-.2.2-.4,8.2-7.3,16.4-14.6,24.6-21.9-.5,7.1-1.1,14.1-1.6,21.2,0,.2,0,.5,0,.7-.5,1.9,2.6,3.5,4,1.5,13.6-18.8,35.3-31.2,57.9-33.9,2.6-.3,5.3-.5,7.9-.5-3,2.1-5.7,4.7-8.1,7.3-5.3,5.6-12.3,12.9-20.7,10.3-2.6-.8-3.7,3.4-1.1,4.2,6.5,2,12.6-.6,17.7-4.6.4,0,.8,0,1.2-.4,9.5-7.2,21.7-7.7,33-7.1,10.2.5,20.8,1.7,30.8-.5-6.5,6.6-14.3,11.8-22.7,15.2l-2.9-1.2c-1.9-.8-3,1.4-2.3,3-5.3,1.6-10.8,2.6-16.4,2.8-2.7,0-2.7,4.4,0,4.3,7.4-.3,14.7-1.8,21.6-4.3,11,4.6,22,9.2,33,13.7,10.8,4.5,22.1,8.5,33.9,6.6,3.9-.6,7.7-2,11.1-4.1-3.2,11.8-13.3,21.3-25.2,23.4-.6,0-.9.4-1.2.7,0,0-.1,0-.2,0-2.7,0-2.7,4.3,0,4.3,13,0,24.5-6.7,35.4-13.3,9.8-6,20.3-12.5,31.9-13.2-6.3,8.6-12.6,17.3-18.8,25.9-.3.4-.4.8-.4,1.2-.1,0-.2,0-.3,0-2.7.4-1.5,4.6,1.1,4.2,17.4-2.6,35.4,1.3,50.4,10.6-4.5.3-9,1.6-13.3,2.8-.3,0-.6.2-.9.2-.2,0-.4-.2-.6-.3-.9-.3-2,.2-2.4,1-5.3,1.2-10.9,1.7-15.8-1.1-2.4-1.4-4.5,2.4-2.1,3.8,6.2,3.7,13.5,3,20.2,1.3.2,0,.4,0,.6-.1,0,0,0,0,.1,0,.6.3,1.3.6,1.9,1,.6.3,1.2.7,1.7,1.1.3.2.5.4.7.6,0,0,.3.2.3.2.1.1.3.2.4.3,1.1.9,2,1.9,2.9,3,0,0,0,0,0,0-4.4.1-8.7.7-13,1.7-2.7.6-1.5,4.8,1.1,4.2,5.2-1.3,10.3-1.7,15.5-1.6.3,0,.5,0,.8,0,19.9.7,39.1,10.4,56.2,20.5,21.8,12.9,43.9,27.8,69.6,30.2,11,1,23-.9,33.7,2.6-7.8,2.4-15.2,6.1-22.9,8.7-1.6.5-3.3,1-5,1.4-.4,0-.8,0-1.1.2-7.1,1.5-14.5,1.6-21-2-2.4-1.3-4.5,2.4-2.1,3.8,7.8,4.3,15.6,4.4,23.4,2.6,6.5,6.5,12.8,13.5,19.9,19.3,6,4.8,13.3,8.3,21,7.8-1.9,4.9-7.2,8-12.1,9-6.3,1.2-12.9-.9-18.9-3.4Z"/>
        <path class="st8" d="M931.1,1135.5s0,0,0,0c0,0,0,0,0,0,0,0,0,0,0,0Z"/>
      </g>
      <g>
        <path class="st2" d="M903.9,674.6c-6.2.5-12.3-.8-17.9-3.7-5.7-3.1-10.3-7.7-14.7-12.5-4.7-5.1-9.1-10.4-13.4-15.9-3.9-5.1-7.7-10.2-12.2-14.7-8.3-8.3-18.6-15-30.4-15.9-10.5-.8-21.4,2.9-27.7,11.8-4,5.6-5.7,12.5-6.2,19.4-.3,3.7-1.2,7.4-2.7,10.8-1.2,2.6-2.8,5.5-5.3,6.9,0,0-.1.1-.2.2,0,0,0,0,0,0-.3.3-.3.6-.2,1,0,.4.3.6.7.8,0,0,.1,0,.2,0,0,0,.1,0,.2,0,0,0,0,0,0,0,0,0,0,0,0,0,0,0,0,0,.1,0,0,.2.2.4.4.5,6.3,3.9,12.6,7.6,19.2,10.9,4.9,2.4,10,4.6,15.4,5.9,6.5,1.5,13.4,1.1,19.9-.5,6.3-1.5,12.3-3.9,17.1-8.4,4.6-4.2,8.2-9.9,9.9-16,3.9,5.3,7.8,10.5,12.7,14.8,5,4.3,10.7,6.9,17,8.2,5.9,1.2,12.5,1.6,18.1-1,.3-.1.5-.4.5-.6.6-.6.4-1.9-.7-1.9ZM846.1,668.3c-4.5,4.7-10.2,7.2-16.3,8.9-6.3,1.7-13.1,2.2-19.5.8-5-1.1-9.9-3.1-14.5-5.4-6.4-3.1-12.6-6.7-18.7-10.4,6.2-2.4,9-11.3,11.2-17,1.7-4.3,3.3-8.8,5.9-12.6,3.1-4.4,8.5-7.4,13.8-7.6,5.4-.2,11.2.1,16.3,2,2.7,1,5.3,2.5,7.8,4.1,3,1.9,6.1,3.8,8.8,6.1,5.3,4.5,9.4,10,13.5,15.6-1.2,5.8-4.3,11.2-8.4,15.4ZM886,675.9c-5.8-1.2-11.1-3.5-15.6-7.5-10.8-9.4-16.9-23.1-27.7-32.4-2.6-2.2-5.5-4.1-8.3-5.9-2.4-1.5-4.8-3-7.5-4.2-5.2-2.3-10.6-2.7-16.2-2.9-5.6-.2-10.3,1.3-14.7,4.8-3.3,2.6-5.3,6.4-7,10.3-2.1,4.9-3.7,10-6.1,14.7-1.1,2.2-2.5,4.6-4.5,6.2,1.9-2.7,3.1-6,4-8.9.9-3,1-6,1.4-9,.3-3.2,1.1-6.4,2.2-9.4,2.1-5.8,5.9-10.7,11.1-13.8,4.7-2.8,10.2-4,15.5-4,12.2,0,22.9,6.7,31.5,15.2,4.4,4.4,8.2,9.4,12,14.4,4.1,5.4,8.5,10.7,13.1,15.8,4.8,5.2,9.8,10.3,16,13.6,3.9,2.1,8.1,3.3,12.3,3.8-3.9.5-7.9,0-11.5-.8Z"/>
        <path class="st2" d="M858.3,819.2c-4.8-4.2-10.2-7.5-16.2-9.6-1.3-.5-1.8,1.6-.6,2.1,5.7,2.1,10.7,5.2,15.1,9-.5-.3-1.3-.2-1.6.6-10.4,33-38,57.8-69.2,69.3-37,13.6-78.1,8-113.8-6.8-5.3-2.2-10.6-4.6-15.7-7.3-4.4-2.3-8.7-4.7-12.2-8.2-7.3-7.3-9.4-18-9.9-28.1,2.2-.2,4.4-.6,6.6-1,.8,0,1.5-.2,2.4-.5,17-3.9,32.9-13.1,45.8-25.2,5.4-5.1,10.4-10.7,14.9-16.6,4.6-6,8.7-12.5,11.4-19.7,4.9-13.4,3.3-29.1-7.8-38.7-5-4.3-11-7.1-17.2-9.2-7-2.4-14.3-4-21.5-5.1-15.1-2.4-30.5-2.5-45.7-.3-15.1,2.1-30,6.5-43.9,13.1-6.3,3-12.9,6.2-17.9,11.3-4.9,5-7.1,11.5-7.6,18.5-.3,3.9-.2,7.9.2,11.8,0,0,0,0,0,0,0,0,0,.1,0,.2,1.5,6,3.3,11.9,5.8,17.5,3.1,6.8,7.2,13.1,12,18.9,9.1,10.9,21.4,18.9,34.9,22.8,8.5,2.5,17.1,3.2,25.6,2.5.4,8.6,1.9,18.6,7.2,25.6.3.4.6.8.9,1.2-.3,0-.5,0-.8.3-8.6,8.5-18.3,15.2-29.4,19.8-10.9,4.6-22.1,7.3-34,6.4-5.7-.4-11.4-1.6-16.6-3.9-5.3-2.3-9.6-5.9-13.8-9.8-4-3.8-7.6-8-10-13-2.9-6.2-3.6-13.3-4.3-20-1.7-15.2-.9-30.2,2.6-45.1,1.7-7.2,3.8-14.3,5.9-21.3,2-6.7,3.8-13.4,6.2-20,4.3-11.7,10.7-22.4,19.1-31.5,8.5-9.2,18.7-16,30.1-20.7,25-10.4,52.3-11,78.8-8.9,3.6.3,7.3.6,10.9,1,1.4.1,1.3-2,0-2.2-28-2.7-56.9-3.9-83.9,5.5-1,.4-2,.7-3,1.1,8.6-7.6,14.3-18.5,16.8-29.9,1.4-6.5,1.9-13.4.9-20,0-.5-.2-1-.3-1.4.2-.2.3-.5.2-.9-.4-1.3-.8-2.6-1.2-3.8-1.8-6.3-4.6-12.3-7.8-17.9-5.3-9.3-11.6-17.9-17.4-26.9-.8-1.2-2.6,0-1.8,1.1,4.8,7.4,10.2,14.8,14.9,22.4-6.3-5.5-14.5-6.8-22.3-4.2-18.3,6.1-24.7,26-34.2,41.1-5.2,8.4-12.2,16.4-21.9,19.2-.5.1-.7.6-.7,1,0,0-.2,0-.3,0-1.3.1-1.4,2.3,0,2.2,12.5-1,22.1-8.2,30.1-17.3,2.7,3.5,5.7,6.9,9.3,9.4,5.2,3.5,11.5,4.9,17.6,5,11.5.3,24-3.4,31-13.4,1.4-1.9,2.5-4,3.2-6.2-.3,9.3-3.1,18.7-7.6,26.6-4,7.1-9.7,13.2-16.7,17.3-.2.1-.3.2-.4.4-7.5,3.6-14.5,8.1-20.6,13.7-9.2,8.5-16.8,18.9-22,30.5-2.8,6.1-4.7,12.5-6.6,18.9-2.2,7.4-4.6,14.8-6.6,22.2-4,15-6.2,30.1-5.2,45.6.5,7.4,1.2,15.2,3.1,22.4,1.5,5.4,4.2,10.3,7.8,14.6,3.7,4.4,8.1,8.5,12.8,11.7,4.7,3.2,10.1,5.2,15.5,6.4,5.8,1.2,11.9,1.6,17.9,1.1-13.9,24.8-19.7,54.9-12.6,83,2.8,11.1,8.1,21.5,16.3,29.5,7.5,7.4,16.5,11.9,26.4,15,11,3.5,22.3,5.7,33.7,7.1,10.5,1.4,20.9,1.8,31.5,1.1,11.5-.8,22.8-2.5,33.7-6.3,5.4-1.9,10.7-4.3,15.8-6.9,5.9-3,11.9-6.2,17.4-9.9,22-14.4,35.1-38.2,48-60.6,1.7-2.9,3.4-5.8,5.1-8.7.7-1.2-1.1-2.3-1.8-1.1-13,21.9-24.5,45.9-44.1,62.4-5.1,4.3-10.6,7.7-16.4,10.9-5.3,3-10.8,5.9-16.3,8.4-10,4.5-20.5,7.3-31.4,8.6-10.6,1.3-21.2,1.8-31.8.9-11.1-.9-22.2-2.7-33.1-5.4-9.4-2.3-19.2-5.2-27.3-10.7-9.5-6.4-16.8-15.6-21-26.4-4.6-11.9-6.1-25.2-5.5-38,.6-14.6,4.3-29,10.3-42.2,1.5-3.3,3.2-6.6,5-9.7.3-.5.2-.9,0-1.2,2.7-.3,5.3-.7,8-1.3-4.2,6.7-7.4,14.4-9.8,21.9-2.4,7.4-4.8,16.1-3.1,23.9,2,9.5,8.7,17.5,16.5,22.7,7.6,5.1,16.7,6.9,25.6,8.2,9.4,1.4,18.8,1.9,28.3,1.8,11-.2,22.1-.3,33-1.5,19.9-2.2,40.7-8.6,55.8-22.8,12.7-11.9,19.7-28.5,25.9-44.6.8-2.2,1.7-4.4,2.5-6.5,3.5-.7,6.9-1.6,10.3-2.7,16.4-5.1,31.9-13.6,45-25,12.9-11.3,23.4-25.5,29.7-41.7.8-2,1.5-4.1,2.2-6.2.1-.3,0-.6,0-.8,12.9,11.4,20.2,29,22.2,46.3.9,7.4.9,14.8.5,22.2,0,1.4,2,1.4,2.1,0,1.6-25.4-3.8-53.1-23.6-70.2ZM685.4,804.5c-4.9,1.4-10.3,1.3-14.8-1.3-4.2-2.4-7.3-6.3-9.4-10.6-3.9-7.9-8.2-23.3,3.6-26.4,11-2.8,18.3,8.8,24.9,15.5,3.5,3.6,8,6.8,13.2,6.8,1.2,0,2.4-.2,3.6-.6-5.7,7-12.2,14-21,16.5ZM586.3,787.9c-.4-1.9-2-3.2-3-4.8-1.4-2.3-1.5-5.2-.7-7.7,1.5-4.6,6.7-9.8,11.6-9.8,5.4,0,7.8,5.9,7.4,10.7-.5,5.3-3.6,10.5-6.3,14.9-2.6,4.1-5.9,7.8-10.6,9.3-8.7,2.8-16.9-1.5-22.4-8.2,4.9,2.4,11.2,2.4,16.5,1.9,3.3-.3,8.4-1.7,7.4-6.3ZM615.9,837.6c-24.3-3.7-44.7-20.7-54.7-43.3,4.5,5.3,10.5,9,17.6,9.2,4.8.1,9.4-1.4,13-4.6,3.8-3.3,6.4-8,8.7-12.4,2.4-4.7,4.4-10.1,2.9-15.4-1.1-4.2-4.7-7.7-9.1-7.7-4.6,0-8.9,3.6-11.5,7.3-2.7,3.7-3.9,9.1-1.4,13.3,1.3,2.3,5,5.3,1.1,7.3-1.5.8-3.2.7-4.8.9-1.6.1-3.2.2-4.9.2-5.9,0-12.9-1.9-15.2-8.2,0,0,0,0,0-.1-.6-2-1.1-4-1.6-5.9-.6-7.2-.8-15.1,2.2-21.8,2.8-6.4,8.6-10.6,14.4-13.8,12.7-7,26.6-11.9,40.7-14.9,14.4-3,29.2-4,43.8-2.8,7.3.6,14.5,1.7,21.6,3.4,6.4,1.5,12.9,3.3,18.9,6.3,5.6,2.8,10.9,6.8,14.3,12.3,3.8,6.3,4.7,14,3.6,21.2-.7,4.5-2.1,8.7-4,12.8-.3,0-.6.3-.7.7-2.1,5.5-8.7,5.8-13.2,3.6-5-2.5-8.4-7.3-12.1-11.4-6.2-6.8-16.6-13.9-25.5-7.4-8.4,6.2-4.4,19.4-.6,27.2,4.4,9.2,13,15.3,23.2,13.9,7.1-1,13-4.8,18.1-9.7-2.1,2.6-4.4,5.2-6.6,7.6-13.5,14.6-30.9,26.3-49.9,31-.3-.2-.6-.2-1,0-.3.2-.6.3-.9.4-.5.1-.9.2-1.4.3-4.5.2-7.3-7-8.3-10.6-1.6-5.7-2.1-11.7-2.2-17.6-.2-12.4,0-24.9,0-37.3,0-7.3,0-14.6,0-21.8,0-1.4-2.1-1.4-2.1,0,0,14.2,0,28.4,0,42.6,0,12.7-1.2,26.6,3.7,38.7,1,2.5,2.7,5.2,5,6.8-6.8,1-13.7,1-20.7,0ZM597.8,678.4c-5,2.2-10.6,3.2-16,3.3-5.8,0-11.8-.8-16.9-3.8-4.2-2.5-7.5-6.2-10.5-10.1,4.4-5.3,8.3-11,11.9-16.6.8-1.2-1.1-2.2-1.8-1.1-3.5,5.3-7.2,10.8-11.4,15.9-.4-.6-.8-1.1-1.2-1.7-.8-1.1-2.6,0-1.8,1.1.6.8,1.1,1.5,1.7,2.3-5.9,6.8-12.7,12.5-20.9,15.3,12.4-6.9,19.1-21.6,25.9-33.8,4.4-7.9,9.5-15.7,17.2-20.5,7.2-4.5,16.2-6.4,23.8-1.8,7.8,4.7,11.5,13.3,14.4,21.8.3,1.1.6,2.3.9,3.4.1.5.2.9.3,1.4,1.6,11-6.1,20.8-15.5,25ZM744.6,942.2c-12.8,14.7-31.5,22.3-50.1,25.6-10.5,1.9-21.1,2.3-31.8,2.6-9.4.2-18.8.5-28.2-.4-8.8-.8-18-2-26.4-5-8.8-3.2-16.7-9.8-21.1-18.3-1.9-3.7-3.1-7.7-3-11.9,0-4,.8-8,1.8-11.9,2.1-8.3,5.2-16.5,9.3-24,.8-1.5,1.6-2.9,2.5-4.3.2-.3.2-.6,0-.9,1.4-.4,2.7-.8,4-1.2,11.6-3.9,22.6-9.4,32.1-17.3,2.4-2,4.7-4.2,7-6.4.2-.2.3-.5.3-.7,5.6,6.2,13.2,9.8,20.6,13.3,18.8,8.9,38.8,15.2,59.4,17.7,15.4,1.9,31.2,1.6,46.4-1.4-5.9,15.6-12,31.8-23,44.4Z"/>
      </g>
      <path d="M901.6,673.4c-6,.5-12-.7-17.3-3.6-5.7-3-10.1-7.6-14.5-12.3-4.7-5.1-9.1-10.4-13.4-15.9-3.9-5.1-7.7-10.2-12.2-14.7-8.5-8.5-19-15.3-31.1-16.2-10.9-.9-22.1,3.1-28.6,12.4-4.1,5.8-5.8,12.9-6.3,19.9-.2,3.5-1.1,7-2.6,10.2-1.1,2.4-2.5,5.2-4.9,6.6,0,0-.1,0-.2.1,0,0,0,0,0,0-.8.6-1,1.4-.8,2.2.1.8.7,1.6,1.7,1.7,0,0,0,0,0,0,.1.1.3.2.4.3,6.3,3.9,12.6,7.6,19.2,10.9,5,2.4,10.2,4.7,15.6,6,6.7,1.5,13.7,1.1,20.4-.5,6.4-1.5,12.6-4.1,17.6-8.7,4.2-3.9,7.6-9,9.5-14.5,3.5,4.7,7.2,9.3,11.6,13.2,5.1,4.4,10.9,7.1,17.5,8.4,6.2,1.2,13,1.6,18.9-1.1.6-.3,1-.8,1.1-1.3.7-1.3.2-3.4-1.7-3.2Z"/>
      <path d="M618.3,653.6c-2.9-9.1-6.1-18.8-13.4-25.3-6.6-5.9-15.3-7.4-23.6-4.6-18.7,6.3-25.1,26.2-34.8,41.6-5.1,8.2-11.9,15.9-21.2,18.7-.7.2-1.1.6-1.3,1.1-2.1.7-1.9,4.4.6,4.2,12.4-1,22.1-7.9,30.1-16.8,2.6,3.3,5.4,6.3,8.8,8.7,5.3,3.6,11.8,5,18.1,5.2,11.9.3,24.6-3.6,31.9-13.9,3.5-5,5.2-11.1,4.7-17.1.3-.4.3-1,.1-1.6Z"/>
      <path class="st1" d="M743.9,941.2c-12.7,14.5-31.2,22.1-49.6,25.3-10.4,1.8-21,2.3-31.5,2.5-9.4.2-18.8.5-28.2-.4-8.8-.8-17.8-2-26.1-5-8.5-3.1-16.2-9.5-20.4-17.8-1.8-3.5-2.9-7.4-2.9-11.4,0-3.9.8-7.8,1.7-11.6,2.1-8.2,5.2-16.3,9.2-23.7.8-1.5,1.6-2.9,2.5-4.3.1-.2.2-.4.3-.6,1.1-.3,2.2-.6,3.2-1,11.8-3.9,22.9-9.5,32.6-17.6,2.3-1.9,4.6-4,6.7-6.1,5.6,5.7,12.8,9.2,19.9,12.6,19,9,39.1,15.3,59.9,17.9,14.8,1.8,30,1.7,44.8-1-5.6,14.9-11.6,30.2-22,42.2Z"/>
      <path d="M684.1,803.5c-4.9,1.4-10.3,1.3-14.8-1.3-4.2-2.4-7.3-6.3-9.4-10.6-3.9-7.9-8.2-23.3,3.6-26.4,11-2.8,18.3,8.8,24.9,15.5,3.5,3.6,8,6.8,13.2,6.8,1.2,0,2.4-.2,3.6-.6-5.7,7-12.2,14-21,16.5Z"/>
      <path d="M585.8,787.3c-.4-1.9-2-3.2-3-4.8-1.4-2.3-1.5-5.2-.7-7.7,1.5-4.6,6.7-9.8,11.6-9.8,5.4,0,7.8,5.9,7.4,10.7-.5,5.3-3.6,10.5-6.3,14.9-2.6,4.1-5.9,7.8-10.6,9.3-8.7,2.8-16.9-1.5-22.4-8.2,4.9,2.4,11.2,2.4,16.5,1.9,3.3-.3,8.4-1.7,7.4-6.3Z"/>
      <path class="st9" d="M590.6,922.2c.9,10.2,7.9,19.1,16.4,24.4,8.5,5.3,21.3,7.5,31.2,7.9,15.1.6,35.4-4.3,57.3-9.3.6-.1,1.3.2,1.6.8,1.2,3.1,2.2,6,3.3,9.1s-.2,1.6-.9,1.8c-23.1,5.9-45.9,7.7-69.7,5.7-7.7-.6-16.5-1.6-23.7-4.6s-13.7-7.8-17.3-14.9c-3.6-7.1-2.8-16.6,1.7-23l.2,2.1Z"/>
      <path class="st9" d="M706,953.7c.2.6.9.9,1.5.7,3-1.2,7.6-3.2,11.5-6.4,11-9.1,12.2-21.1,13.6-35.5-6.3,11.6-15.6,22-29.2,29.8-.7.4-1,1.2-.7,1.9l3.4,9.4Z"/>
      <ellipse class="st9" cx="583.9" cy="637.5" rx="11.5" ry="7.3"/>
      <ellipse class="st9" cx="820.7" cy="628.9" rx="11.5" ry="7.3"/>
      <path class="st14" d="M727,913.2s-23.1-6.9-41-5.6c-17.9,1.3-40.8,15.3-40.8,15.3l-.8-.8,13.4-7.3s-18.8-11-34.8-9.7-28.7,10.6-28.7,10.6c0,0-.5-.1-.4,4.3s4.4,12.4,13.3,18.8c9.6,6.8,31.7,9.5,49.1,7.1,27.4-3.8,43.7-8.6,46.9-10.2,17.1-8.2,23.7-22.4,23.7-22.4Z"/>
    </g>
  </g>
  <g id="Layer_3">
    <path class="st6" d="M481.7,362.1c3.1,3.7,13.8,1.2,20.1-6.2,6.3-7.4,13.3-20.1,2.9-30.3s-34.6-26.8-78.4-17.1c-43.8,9.7-54,49.2-45.7,74.7,8.2,25.6,28.5,33.3,39.9,35,11.4,1.7,52,6,54.9,25.6s-21.5,28.1-34.1,24.8c-12.6-3.2-23.2-14.2-31.9-17.9s-15.2,1.2-18.6,7.9c-3.4,6.7-5.6,17.9-1.5,22.6s31.5,23.8,52.7,25.6,62.2-7.2,74-32c11.9-24.8,7.5-55.6-14.3-70.5-21.8-14.9-52.5-14.2-67.3-19.6-14.8-5.5-19.5-27.2,5.1-35.8,15-5.2,39,9.4,42.1,13.2Z"/>
    <path class="st5" d="M653.9,75.7c.4-5.6-2.8-12-7.1-14.1-4.8-2.3-13.9-4.5-23-2.5-8.7,1.9-12,4.6-13.1,11.7-1.3,8.6-2.4,19.9-3.2,32.1-7.7-1.4-15.4-1.5-19.8-.4-26.2,6.1-46.8,49.9-45.6,88.9,1.2,39.1,19.4,64.8,42.7,68.7,5.7,1,22.5,2.1,33.3-4.8.9,2.9,1.7,5.1,2.4,6.2,4.7,7.8,20,5.6,24.3,3,4.4-2.6,8-8.9,8-8.9,0,0-2.8-24.2-3.2-31.1-1-15.9-2.2-35.2-1.5-63.9.7-28.7,5.4-79.3,5.8-84.9ZM608.4,231c-7.2,1.4-17.8-.6-21.1-3-8.3-6.3-15.3-18.7-14-44.6,1.3-26,12.8-47,21.2-50.7,2.4-1,5.7-1.4,8.9-.8,2.1.4,3.6,2.3,3.6,4.5-.3,27.3,1.2,66,5.7,87.9.6,3-1.3,6-4.3,6.5Z"/>
    <path class="st5" d="M843.2,187.8c-3.4-.1-6.4,1.9-7.8,5.1-6.1,14.6-27.2,28.4-45.7,29.1-28.8,1.2-40.7-25.1-42.1-46h0c13-2.2,33.8-5.3,48.8-5.7s27.8-.5,54.6-.2,7.7-3.7,7.7-9.4c0-41.7-38.5-71.2-68.8-71-37.3.3-80.6,27.2-85.5,78-4.9,50.8,32.7,99.5,89.8,98,33.8-.9,63.4-33.7,74.4-57.5,1.8-4,1.1-8.7-2-11.8-4.5-4.5-14.8-8.4-23.5-8.7ZM787,125.8c6.5.3,18.3,4.9,28,14.6-18.2,1.5-42.7,4.6-61.5,7.7,7.3-13.9,20.2-22.9,33.5-22.3Z"/>
    <path class="st6" d="M1029.7,174.7c3.5-54.2-38.2-91.2-66.8-100.4s-39.4-12.7-64.6-12.2c-12.3.2-17.8,9.9-17.6,12.9,1.9,26.5,2.7,69.8,1.1,95.6-1.6,24.9-6.1,55.6-12.2,91.9-1.1,6.5,2.5,12.9,8.6,15.1,19.1,7,42.7,10.4,54.6,9.8,52-2.7,93.3-58.6,96.8-112.8ZM986.9,173.6c-2.6,38.1-16.5,54.5-39,65.8-6.3,3.2-23.8,12.3-33.6,8.8-2.7-.9-4.2-3.8-3.6-6.6,8.9-40.9,9.6-101.2,8.2-128.4-.2-3.9,2.4-7.8,6.3-8.1,15.4-1.1,26.7,5.3,34.3,11.1,17.4,13.4,29.3,29.1,27.3,57.4Z"/>
    <path class="st6" d="M1128.6,193.4c3.3-41.8-27.8-80.1-52.2-83-30-3.6-68.2,18.8-78.3,69-10.2,50.2,12.1,97,58.2,101.4,46.1,4.4,69-45.6,72.4-87.4ZM1058.8,247.9c-22.6-1.7-28.2-33-27.1-54,1.5-29.4,20.9-50.9,37.9-47.8,9.7,1.8,32.2,20.6,28.8,55.8-2.1,21.9-17,47.8-39.6,46.1Z"/>
    <path class="st5" d="M1245.9,203.1c3.9-36.7,6.1-69.9,4.8-72.6-2.5-5.1-8.4-13.2-21.8-21.3-10.4-6.3-15.6,3.1-17.7,11.8-12.7-9.5-27.1-14.1-40.4-13.6-25.1.9-60,37.3-60,80.2,0,42.9,19.4,95.8,66.7,95.2,8.6-.1,16.5-1.7,23.7-4.6-8.5,27.9-23.5,57-37.2,60.7-18.8,5.1-29.2-28.5-32.2-35.1-3-6.6-10.4-6.6-19.8-5.6-9.4,1-21.8,20.3-11.9,41.2,9.9,20.8,35.6,40.1,72.8,38.1,37.1-2,50-45.7,60.4-89.9,3.8-16.2,7.5-40.9,10.5-66,1.2-5.9,1.9-12,2.1-18.4ZM1177.6,248.9c-23.2-.2-36.3-27.9-36.7-50.4-.6-36.2,23.9-53.4,33.9-54.4,17.6-1.7,35.6,21.8,34.8,52-.6,21.6-8.8,53-32,52.8Z"/>
    <path class="st5" d="M661.2,75.3s.5,97.6,0,117-1,41-.7,49.9c.2,8.9,2.7,18.1,19.1,19.4,16.5,1.2,46.5,3.5,55.2,3.5s11.1-9.2,11.6-13.2,8.7-17.7-3.9-18.4c-19.4-1-30.7,3.5-40.9,2.2-4.9-.6-9.9-5.2-9.9-7.9s1.5-54.4,1.9-75.5c.5-21.1,0-69.3,0-76.5s-3.6-9.7-8-10.9-13.3.2-16.9,2c-3.6,1.7-7,6.7-7.5,8.4Z"/>
    <path class="st5" d="M973.7,414.2c2.9-31.3-23.8-60-44.7-62.2-25.7-2.7-58.3,14.1-67,51.6-8.7,37.6,10.3,72.6,49.8,76,39.4,3.3,59.1-34.2,61.9-65.4ZM913.9,455c-19.4-1.3-24.1-24.7-23.2-40.5,1.3-22,17.9-38.1,32.4-35.8,8.3,1.3,27.5,15.4,24.7,41.8-1.8,16.4-14.5,35.8-33.9,34.5Z"/>
    <path class="st5" d="M805.9,316.8c.1-5-3.3-10.5-7.6-12.2-4.9-1.8-14.1-3.4-23.1-1.2-8.6,2.1-11.8,4.7-12.6,11-1,7.7-1.6,44.2-1.9,55-7.8-.9-15.4-.6-19.8.5-25.9,6.6-41.1,28.1-42.1,54.7-1.4,34.7,21.9,56.7,45.3,59.1,5.8.6,15.1,1.5,25.1-7.3.7,2.7,1.4,4.7,2,5.7,4.2,7.3,19.5,6.5,24,4.5,4.5-2,8.5-7.3,8.5-7.3,0,0-3-21-2.9-27.1,0-14.2-1.6-33.7,0-60.3,1.6-25.5,4.9-70.2,5.1-75.1ZM761.1,456c-6.5,4.8-12.6,1.3-16.7-1.7-7.8-5.6-13.2-15.6-13.1-28.9.2-15.5,9.3-25.3,17.5-29,2.3-1,5.7-1.5,8.8-1.1,2.1.3,3.7,1.9,3.8,3.9.4,16.7,2,37.6,3.1,49.7s-1,5.3-3.4,7.1Z"/>
    <path class="st5" d="M834.9,371.9c-15.2-1.3-19.5-14.8-19.2-23.8.4-12.6,13-21.4,24.5-19.6,6.5,1,22,9.6,20.4,24.6-1,9.3-10.4,20.1-25.6,18.9Z"/>
    <path class="st5" d="M851.7,390.9c0-.1,0-.3,0-.4,0-4.8-4.9-7.9-9.5-7.9s-11.2-.4-16.3,1.9-5.4,7.4-5.4,8.6.7,53.6.7,64.1-.4,23.1-.4,27.2,2.9,9.3,5.4,9.3,12.3,0,17.4-1.9,8.3-4.5,8.3-9.3-1.1-44.3-.4-53.3c.7-8.5.4-35.6,0-38.2Z"/>
    <path class="st6" d="M697.5,484.5c-1.3-12.7-4.2-34.1-3.4-62.8.5-19.9.6-35,.9-51.4s-4.7-9.9-9.4-10.1c-7.2-.3-14.4-.7-19.8.2s-6.2,4.1-6.2,8.9c0,10.3.8,24.6,1.5,43,.4,11.5,1.8,30.9,2,38.4,0,3.5-4.8,7.8-10.9,9.9-6.5,2.2-15,1.2-18.7-4.8-4.2-6.9-4.5-29.2-4.2-38.4.2-5,1.3-21.4,5.1-38.2s2.1-11.3-1.3-13.4c-5.4-3.4-11.6-3.8-18-3.2-4.4.4-8.2,5-9.4,7.4-2.5,5.2-4.4,22.7-4.7,35.6-.4,18.9,0,31.3,3.3,55.1,1.2,8.6,5.3,23.6,19.9,29.9,8.7,3.7,24.3,3.7,32-1.2,5.2-3.3,11.2-9.4,11.2-9.4,0,0,.5,3,2,8.9s19.9,6.6,25.6,3.7c3.3-1.7,2.8-5.5,2.5-8.2Z"/>
    <path class="st6" d="M588.6,463.9c-4.6-4-18.1-4.7-22-13.7-1.9-4.4-1.8-27.4-1.3-50.9,5.8.8,10.9,1.7,15.1,1.7,7.3,0,13.3-5.2,11.9-17.4-1.5-12.2-8.5-17.4-16.5-18.1-2.9-.3-6.2-.7-9.7-1,.2-9.7.2-17-.2-19.4-1.5-9.4-4.1-12.7-8.5-12.9-4.4-.2-11.4-.7-17.9-.7s-10.9,7-11.4,11.9c-.2,1.9-.3,11.4-.4,24.1-8.4,2.2-16.3,5.2-19.9,7.7-6,4.2-8,11.7-6,15.6,1.9,4,3.9,8.9,10.2,8.7,3.7-.1,9.4-.5,15.6-.8,0,24.5-.1,49.1-.1,55.2,0,12.7-.2,35.8,23.7,42.2,24,6.5,35.6.7,39.9-5.7,4.4-6.5,2.2-22.6-2.4-26.6Z"/>
    <path class="st6" d="M408.8,156.2c-2.2-52.5-44.9-95.3-74.4-95-36.3.4-78.4,34.3-83.1,98.3-4.7,64.1,28.7,118.8,84.2,117,55.5-1.9,75.5-67.8,73.3-120.3ZM333.7,235.1c-27.2,1.5-38.5-36.6-40.3-62.9-2.5-36.9,17.4-66.7,38.1-65.6,11.8.6,41.4,20.5,42.6,64.8.7,27.6-13.2,62.2-40.4,63.7Z"/>
    <path class="st5" d="M557,148.4c-2.2-52.5-44.9-95.3-74.4-95-36.3.4-78.4,34.3-83.1,98.3-4.7,64.1,28.7,118.8,84.2,117,55.5-1.9,75.5-67.8,73.3-120.3ZM519.1,165.3c-1.8,26.4-13.1,64.4-40.3,62.9-27.2-1.5-41.1-36.1-40.4-63.7,1.2-44.3,30.8-64.2,42.6-64.8,20.7-1.1,40.6,28.7,38.1,65.6Z"/>
    <path class="st6" d="M229.4,73.8c-26.4-15.6-99.3-16.1-141.9,14.4-39.7,28.5-61.7,62.6-61.7,62.6,0,0,13.9,25.9,19.2,35.6,4.7,8.8,23.9,9.6,33.4-1.2,3.1-3.6,10.4-11.7,19.6-21.2l38.7,192.4s13.2,2.3,29.1,1.1c15.8-1.2,24.7-2.1,47.9-17.8,23.2-15.6,60.4-55.5,71.2-118,14.1-81.9-29-132.2-55.4-147.8ZM178.8,292.7l-34.3-171.3c4.6-3.2,8.7-5.6,12.1-6.7,21.1-7.2,63.3-6,82.3,62.5,19,68.6-60.1,115.5-60.1,115.5Z"/>
  </g>
  <g id="Layer_5">
    <g>
      <path class="st11" d="M87.7,996.4l-1.7-1.8h0c.4-.4.7-.8,1-1.1-.5.2-1.1.4-1.6.7l-4.9,2.4,3.1-4.5c1.2-1.8,30.4-43.6,48.7-53.1,30.2-15.6,61-21.8,76.7-24,.8-.1,1.7-.2,2.5-.2,9.7,0,15.7,8.1,17.4,10.8l22.5-2.8,4.8,25.2h-.6c0,0,2.4,21.3,2.4,21.3l-22.2,2.4c-1.1,3.3-5.4,13.9-16.6,14.9-.5,0-1.1,0-1.7,0-4.7,0-11.5-1.4-20.2-3.2-13.8-2.9-30.9-6.5-49.5-6.5s-7.1.1-10.5.4c-30.9,2.5-48.7,18.5-49.5,19.2l-.3-.3Z"/>
      <path d="M211.6,916.3c10.6,0,16.7,10.9,16.7,10.9l22.1-2.8,4.2,22.3h-.5c0,0,2.4,21.3,2.4,21.3l-21.7,2.4s-3.5,13.7-15.6,14.8c-.5,0-1,0-1.6,0-11.9,0-39.2-9.7-69.7-9.7s-7.1.1-10.6.4c-31.3,2.5-49.4,18.8-50.3,19.6.4-.3,3.3-3.1,2.6-4,0-.1-.2-.1-.4-.1-1.2,0-4.3,1.5-4.3,1.5,0,0,30-43.2,48.2-52.6,31.7-16.4,64.2-22.1,76.2-23.9.8-.1,1.6-.2,2.3-.2M87.1,995.7s0,0,0,0c0,0,0,0,0,0M211.6,913.5c-.9,0-1.8,0-2.7.2-15.7,2.3-46.7,8.5-77.1,24.2-18.6,9.6-48,51.7-49.2,53.5l-6.2,9,9.8-4.8c.2,0,.3-.1.5-.2l2.3,2.5h0c.7-.7,18.2-16.5,48.6-18.9,3.4-.3,6.9-.4,10.4-.4,18.4,0,35.5,3.6,49.2,6.4,8.7,1.8,15.6,3.3,20.5,3.3s1.3,0,1.8,0c11.1-1,15.9-10.8,17.5-15l19.8-2.2,2.8-.3-.3-2.8-2.1-18.4h.7c0,0-.6-3.1-.6-3.1l-4.2-22.3-.5-2.6-2.7.3-20.3,2.5c-2.4-3.4-8.6-10.7-18.1-10.7h0Z"/>
    </g>
    <path class="st10" d="M180.4,925c-3.2.7-6.2,1.6-9.2,2.7-4.4,1.6-8.7,3.6-12.6,5.9-.9.5,0,1.8,1,1.3,6.9-3,14.1-6.1,21.5-8.5,8.5-1.9,17.4-2.5,26.1-1.6,1.4.2,2.9.3,4.3.6-.3,0-.5,0-.8,0-1.2-.1-1.5,1.1-.5,1.5.7.3,1.4.6,2.1.9-5.2-.4-10.5.4-15.2,2.3-.9.4-.8,1.4.2,1.5,5.8.7,11.3,2.2,16.4,4.4-2,.2-3.9.4-5.9.6-1,0-1.2,1.3-.3,1.5,2,.5,4,1.1,6,1.6-11-.8-22.3,0-33.1,2.4-4.1.9-8.1,2-12,3.4-1,.3-.6,1.7.5,1.5,10.4-1.9,21.1-2.4,31.6-1.5,3.3.8,6.6,1.7,9.8,2.5,0,0-.1,0-.2,0-.9.2-1.2,1.2-.3,1.5.4.1.8.3,1.2.4-.3,0-.7,0-1,.1-.7,0-1.1.9-.7,1.3-2.4.3-4.9.5-7.3.8-.9,0-1.1.9-.6,1.3-2.9.2-5.8.4-8.7.6-1.2,0-1.1,1.4,0,1.6l4.1.6c-7.8,1.2-15.6,1.7-23.5,1.6-3.6,0-7.1-.3-10.7-.6-1.3-.1-1.6,1.4-.3,1.6,15.3,1.6,30.8,1.9,46.3,1-.9.2-1.1,1.2-.2,1.5,1.8.5,3.5,1,5.3,1.4-1.6.2-3.2.4-4.8.6-1.1.1-1.2,1.5,0,1.6,1.8,0,3.5.2,5.3.3-9.2,1.8-18.6,2.7-28,2.8-3.2,0-6.4,0-9.7-.3-1.1,0-1.7,1.2-.5,1.5,8.5,2.1,17.4,3.1,26.3,3.1-1,.2-2.1.4-3.2.5-3.4.4-6.8.5-10.2.4-1.2,0-1.6,1.4-.3,1.6,6.3.7,12.6,1.5,19,2.2-.4,0-.8.1-1.1.2-.9.1-1.2,1.2-.3,1.5,3.2.9,6.7,1.2,10.1,1-1.6.5-3.3.8-5,.8-1.2,0-1.6,1.4-.3,1.6,6.2.6,13.6,1.1,18.5-3,1.9-1.6,4.9-6.6,5.6-8.6.8-.7,19.1-.7,22.7-4.7,3-3.3,0-16.5,0-16.5l-2.4-16.1-1-1.1s-17.9-5.2-25.7-4.9c-2-3.6-5.8-6.6-6.2-6.9-.6-.4-2.5,1.1-2.8,1.6-1.2-.2-2.5-.4-3.7-.6-.9-.1-1.6,1-.8,1.4.1,0,.2.1.4.2-5.2-1.3-10.7-1.7-16.2-1.4-6.4.4-12.5,1.7-18.5,3.6Z"/>
    <path class="st3" d="M261.9,921.5l3.4,22.7.2,1.5,3.4,22.7s239.5-2.1,311.6-11.8c4.6-.6,16.4-2.6,16.4-2.6,0,0-2.8-6.8-1.2-6.9s13.1-.4,13.1-.4c0,0,11.5,4.9,15.4,4.4,22.4-2.8,46.8-6.1,78.4-10,2-.2,9.2-6.3,10.7-7.3s8.6-1.6,12.3-1.8,2.4.9,2.5,2.2.2,2.9.4,5c127.4-15.6,292.5-36.7,323.5-42.1,17.1-3,23-9.2,22.6-12.8l-1-6.4c-.7-3.6-8.2-8.2-25.6-7.2-24.3,1.5-129.1,4.7-235,8.2-23.4,13.6-48.9,19-72.4,19.8-24.1.8-50.5-5.6-68.5-14.8-22.5.9-42.8,1.7-59.5,2.5-18.6,7.7-30.2,12.3-55.3,4-84.1,8.7-295.4,31.3-295.4,31.3Z"/>
    <polygon class="st4" points="235.1 970.4 269.7 968.8 262.4 920.8 228.5 927.2 235.1 970.4"/>
    <path d="M217.7,963.8c.1,0,.2,0,.3,0,0,0-.1,0-.2.1-.1,0-.3,0-.4,0,.1,0,.2,0,.3,0Z"/>
    <path class="st0" d="M117.6,952c-3.3,3.1-6.5,6.3-9.8,9.4-6.2,5.9-10.1,12.9-15.7,18.9-3.1,3.3-12.3,16.2-13,17.5-.3.6.6,1.1,1.2,1,.5-.1,1.1-.2,1.6-.3-.1.7-.3,1.5-.4,2.2-.1.7.9,1.4,1.7.8,4.5-3.7,9.7-6.7,15.4-9.1,6.1-2.5,11.9-7.6,18.3-10,3.6-1.3,7.3-2.6,11-3.8.7-.2.8-1,.2-1.4-.7-.5-1.5-.9-2.2-1.4.4,0,.7-.2,1.1-.3.8-.2,1.2-.9.5-1.4h-.2c.3-.2.6-.2.9-.3,1-.2,1.2-1.2.3-1.5-.5-.2-1-.3-1.4-.5,0,0,0,0,0,0,1.1-.3.6-1.6-.5-1.5-.7,0-1.3.1-2,.2,7.6-4.7,16.3-8.2,25.4-10.2.8-.2,1-.9.7-1.3,0-.3-.3-.5-.8-.5-7.8-.9-15.9-.4-23.6,1.3.3-.4.1-1.1-.6-1.2l-1.3-.2c1.1-.8,2.1-1.7,3.2-2.5.7-.6.3-1.5-.7-1.4-.6,0-1.3,0-1.9.1.7-.7,1.5-1.3,2.2-2,.5-.4.1-1-.4-1.2-.1,0-.2,0-.3-.1.7-.8,1.4-1.5,2.1-2.3.4-.4.2-1-.4-1.2-4.4-1.1-7.9,1.7-10.5,4.2Z"/>
    <path d="M111.8,967.6c.4-.5.9-1,1.4-1.4,5.6-2.7,11.9-4.7,18.3-5.7-6.9,1.8-13.5,4.2-19.7,7.1Z"/>
    <path d="M84.5,993s0,0,0,0c0,0,0,0,0,0,0,0,0,0,0,0,0,0,0,0,0,0Z"/>
    <path class="st12" d="M672.6,886l-61.1,2.8s-15.6,6.9-28.2,7.6c-12.5.7-25.3-3.8-25.3-3.8l-291.1,31.9,4.3,26s38.8-19.5,105.4-26.6c66.6-7.1,331.6-25.7,331.6-25.7,0,0-9.7-2-21.2-6.1s-14.5-6.2-14.5-6.2Z"/>
    <path class="st12" d="M1072.7,884.4s-3-8.4-64-6.7c-96.8,2.7-202.2,6.6-202.2,6.6l6.8-3.8s234.4-7.9,239.6-8c5.2-.1,10.7.8,13.6,1.6s4.6,2.6,5,3.8,1.2,6.5,1.2,6.5Z"/>
  </g>
</svg>