<?xml version="1.0" encoding="UTF-8"?>
<svg id="Layer_1" xmlns="http://www.w3.org/2000/svg" version="1.1" viewBox="0 0 715.6 115.3">
  <!-- Generator: Adobe Illustrator 29.4.0, SVG Export Plug-In . SVG Version: 2.1.0 Build 152)  -->
  <defs>
    <style>
      .st0 {
        fill: #ccc;
      }

      .st0, .st1, .st2, .st3, .st4, .st5, .st6, .st7, .st8, .st9, .st10 {
        stroke-miterlimit: 10;
      }

      .st0, .st1, .st2, .st4, .st5, .st6, .st7, .st8, .st9, .st10 {
        stroke: #000;
      }

      .st0, .st2, .st3, .st4, .st9 {
        stroke-width: .4px;
      }

      .st1 {
        stroke-width: .2px;
      }

      .st2, .st6, .st10 {
        fill: #09f;
      }

      .st3 {
        fill: #630;
        stroke: #630;
      }

      .st4 {
        fill: #996;
      }

      .st11 {
        fill: #fff;
      }

      .st5 {
        stroke-width: 1.7px;
      }

      .st6, .st8 {
        stroke-width: 1.2px;
      }

      .st7, .st8, .st12 {
        fill: #f93;
      }

      .st7, .st10 {
        stroke-width: 1.1px;
      }

      .st9 {
        fill: none;
      }

      .st13 {
        fill: #fac844;
      }

      .st14 {
        fill: #663;
      }

      .st15 {
        fill: #f99;
      }

      .st16 {
        fill: #714d35;
      }
    </style>
  </defs>
  <path d="M689.8,22.9c-8.8-.9-19.4,3.9-24.3,14.5-.4-1.2-1.2-2.1-2.3-2.9,3.2-1.7,5.3-4.8,5.6-7.9.7-7.1-6-11.3-9.5-11.8-2.9-.4-6,.5-8.3,2.5-.5.4-.9.9-1.3,1.3.2-2.6.3-4.2.3-4.7,0-3-1.9-6.1-4.6-7.1-2.1-.8-5.9-1.4-9.7-.5-3.1.8-6,2-6.6,6.3-.3,2-.4,8-.6,15.1,0,.3,0,.7,0,1-1.8,0-3.4.1-4.7.4-5.1,1.3-9.3,4.2-12.2,8.1,0-1.7,0-3.3,0-5,0-4-2.2-6.4-6.1-6.6h-.6c-2.4-.1-4.8-.2-6.7,0-2.6.4-4.6,3.1-4.6,6.1s.1,5.1.3,8.4c0,2,.2,4.1.3,6.5,0,2.1.2,5,.4,7.5.1,2,.2,3.9.3,5.2-.3.3-.9.7-1.7,1-1.2.4-2.6.2-3-.4-.7-1.1-1.2-6.8-1-11.5,0-.6.3-6.5,1.7-12.6.3-1.5,1.4-5.9-1.8-7.9-2.9-1.8-5.9-1.7-8-1.5-2.9.3-5,2.9-5.6,4.2-.2.3-.3.7-.5,1.2-1.4-2.6-3.9-4.1-6.9-4.4-.2,0-.4,0-.6,0,0-2.7,0-3.8-.1-4.4-.3-1.7-1-6.7-5.7-7h-.8c-1.5-.1-3.6-.3-5.6-.3-3.8,0-6.5,3.5-6.9,6.8,0,.4,0,1.6-.1,6.3-1.8.6-4.2,1.4-5.6,2.4-2.5,1.8-3.9,4.8-3.6,7.4-4.3-1.8-8.9-2.5-12.8-3.2-2.5-.4-4.8-.8-6.2-1.3-1.3-.5-2.3-1.7-2.3-2.9,0-1.5,1.5-2.8,3.9-3.7,3.4-1.2,10.2,2.5,11.4,3.7.9,1,2.2,1.6,3.8,1.6h0c2.6,0,5.6-1.5,7.5-3.8,4.5-5.3,4.8-10.7.8-14.6-2.6-2.5-12.4-10.5-29.7-6.7-9.2,2-13.8,7.3-16.1,11.4-3.1,5.5-3.8,12.4-1.9,18.3,3.7,11.4,13.3,13.7,16.1,14.1.3,0,.7,0,1.1.2,12.2,1.7,15.1,4.3,15.4,6.1.2,1.3-.2,2.3-1.2,3.2-1.8,1.7-5.1,2.4-6.9,1.9-2.1-.5-4.2-2-6.2-3.4-1.5-1-2.9-2-4.4-2.6-4-1.7-8.1,0-10.2,4.1-1.5,2.9-2.7,8.2,0,11.2,1.9,2.2,12.1,9.2,20.1,9.8.7,0,1.5,0,2.2,0,8.5,0,21-3.5,25.7-12,1.3,3.5,3.9,6.7,9.1,8.2,2.8.8,5.2,1.1,7.2,1.1,6,0,8.7-2.8,9.7-4.2.8-1.2,1.3-3.1,1.3-5,1.3,2.4,3.3,4.7,6.5,6.1,3.7,1.6,10.1,1.7,13.7-.6.3-.2.5-.4.8-.5.4.6,1.1,1.2,2.1,1.7,1.4.7,3.4,1,5.4,1,1.9,0,3.7-.3,4.8-.9,2.9-1.5,2.6-4.7,2.5-5.8h0c0-.7-.1-1.3-.2-2,0-.7-.2-1.5-.2-2.3,3.5,4.3,8.4,6.9,13.2,7.4,1.6.2,4.5.5,7.7-1.1,1.7,2,4.6,2.6,7.1,2.6s3.3-.3,4.2-.7c2.2-.9,3.8-3,4.1-3.4l.6-.8c0,.2,0,.4,0,.6,0,2.6,1.8,6.2,4.8,6.2s5.5-.3,7-.8c4-1.5,4.8-4.1,4.8-6.1s0-1.6,0-3.1c0-1.5,0-3.6-.1-5.8.4.7.8,1.4,1.3,2,3.7,5.2,9.5,8.4,16.3,9,.6,0,1.2,0,1.9,0,13.4,0,21.5-12.5,22.6-25.4,1.1-12.2-9-23.8-18-24.7ZM683.1,39.5c1.1-.9,2.3-1.4,3.4-1.4s.3,0,.5,0c1.4.2,6.8,3.7,6,11.1-.4,4.1-3.7,9.5-8.5,9.2h0c-5.8-.4-5.2-10.6-5.2-10.7.2-3.3,1.6-6.3,3.8-8.1ZM629.9,59.3c-.4.3-.8.4-2.3-.6-2.1-1.5-3.3-4.2-3.2-7.4,0-4,2.3-6.4,4.2-7.2,0,0,.2,0,.3,0,.2,5.9.8,12.4,1,15.4ZM548.1,45.3c0,0,.1,0,.2,0,0,.1,0,.2,0,.3,0,0-.1-.2-.2-.3ZM570.7,60.4c-1.3-.5-2.9-1-3.3-1.8-.2-.9-.4-3.9-.3-12.9.8,0,1.6.2,2.3.2,1.5,0,3-.4,4.1-1.3-.1,6.1,0,10.4,1,18-.1-.1-.3-.3-.4-.4-1-.8-2.2-1.3-3.5-1.8ZM649.2,40.1c0,0,0,1.3,0,3.1,0,5.3.2,16.3.2,19s0,4.6,0,6.6c0,.3,0,.6,0,.8v-.2c-.4-2.7-1-7.5-1-8.9,0-1.6,0-3.3-.1-5.3-.1-4.1-.3-9.2,0-15.3.2-2.6.4-5.9.6-9.2.8,1.5,2,2.9,3.6,3.8-2.5,1.3-3.3,3.8-3.3,5.6Z"/>
  <path class="st5" d="M133.5,63c0-.5-1.1-1.1-3.3-.9-6.4.4-55.5,1.7-62.3,2.4-9.2.9-38.4,4.1-40.2,4.2h0c0,0-4.4.8-4.4.8h0s0,0,0,0c0,0,0,0,0-.1,0,0,0,0,0-.1,0,0,0,0,0,0,0,0,0,0,0,0-.4-.5-1.1-1.2-2.2-1.1-1.6.2-5.8,1-9.9,3.1-.4.2-.9.6-1.5,1.1-.2.1-.4.3-.6.4-.4.4-.9.8-1.3,1.2-.8.8-1.3,1.7-2.1,2.5-.4.4-1.6,2.1-1.7,2.3,0,0,0,.1.2.1,0,0,.1,0,.2,0,0,0,0,.2,0,.3,0,0,.1.2.2.1.6-.5,1.3-.9,2-1.2.8-.3,1.6-1,2.4-1.3.5-.2,1-.3,1.4-.5,0,0,.1-.1,0-.2.4,0,.8-.1,1.2-.2,4.7-.4,9.1,1.3,10.7,1.2,1.6-.1,2-1.9,2-1.9h0s0,0,0,0l4.5-.2h0c1.8,0,31.5-.4,40.6-1.6,6.8-.9,55.2-6.7,61.5-7.8,2.2-.4,3-1.2,2.9-1.7v-.8Z"/>
  <g>
    <path d="M313.5,77.4c-2.5,0-4.4-.9-5.3-2.4,0-.1-.2-.3-.3-.6-2.2.9-4.7,1.1-6.5,1.1s-2.9-.2-3.3-.2c-8.4-1.4-14.3-10.7-14.7-23.1-.4-12.2,5.9-27.3,15.5-29.5.7-.2,1.7-.3,2.7-.3s1.6,0,2.4.1c.3-3.5.6-6.4.9-8.6.5-3.2,2.4-4.3,5.3-4.9.9-.2,1.7-.3,2.7-.3,2,0,4,.4,5.6,1.2,1.9.9,3.2,3.5,3.1,5.9,0,.4-.1,1.3-.2,2.7-.5,5.5-1.4,16.9-1.6,24-.2,8.7.1,14.7.4,19.5v.5c.2,2.1,1,9.6,1,9.7v.5c0,0-.2.4-.2.4-.1.2-1.4,2.4-3,3.4-1,.6-2.7,1-4.4,1h0ZM303,34.7c-.4,0-.9,0-1.2.2-1.8.8-5.4,6.5-5.8,14.7-.3,6.3,1,10.6,3.8,12.8.4.3,2.1.8,4,.8s1,0,1.4-.1c0,0,.1,0,.1,0,0,0,0-.1,0-.2-1.4-6.9-1.9-19-1.8-28h0c-.2,0-.4,0-.6,0Z"/>
    <path d="M312.8,10.2c2,0,3.8.5,4.9,1,1.3.7,2.4,2.7,2.2,4.4-.1,1.8-1.6,17.7-1.8,26.8-.2,9,.2,15.1.5,20.1.1,2.2,1,9.8,1,9.8,0,0-1.1,2-2.5,2.8-.7.4-2.1.8-3.6.8s-3.3-.4-4-1.7c-.2-.4-.5-1-.8-2-2.2,1.4-5.1,1.7-7.4,1.7s-2.4-.1-3.1-.2c-7.3-1.2-13.1-9.3-13.4-21.6-.4-12.3,6.1-26.1,14.4-28,.6-.1,1.5-.2,2.4-.2,1.2,0,2.5.1,3.8.4.3-3.8.6-7.4,1-10.1.3-2.2,1.4-3.1,4.1-3.7.8-.2,1.6-.2,2.3-.2M303.9,64.7c.6,0,1.2,0,1.7-.1.9-.2,1.5-1.1,1.4-2.1-1.4-6.9-1.9-19.1-1.8-27.7,0-.7-.5-1.3-1.1-1.4-.3,0-.7,0-1,0-.7,0-1.3.1-1.8.3-2.6,1.2-6.3,7.8-6.7,16-.4,8.2,1.8,12.1,4.4,14.1.8.6,2.9,1.1,4.9,1.1M312.8,7.2c-1,0-2,.1-3,.3-2.8.6-5.8,1.8-6.4,6.2-.3,1.9-.6,4.3-.8,7.2-.4,0-.7,0-1.1,0-1.2,0-2.2.1-3.1.3-10.3,2.4-17.1,18.3-16.7,31,.4,13.1,6.8,23,15.9,24.5.5,0,1.8.3,3.6.3s3.8-.2,5.9-.8c1.3,1.8,3.5,2.7,6.3,2.7s3.9-.5,5.2-1.2c1.9-1.2,3.3-3.4,3.6-3.9l.5-.9v-1c-.1,0-1-7.6-1.1-9.6v-.5c-.3-4.8-.7-10.7-.5-19.3.2-7.1,1.2-18.9,1.6-23.9.1-1.4.2-2.3.2-2.7.2-3-1.5-6.1-3.9-7.3-1.7-.8-4-1.3-6.2-1.3h0ZM300.7,61.1c-2.4-1.8-3.4-5.7-3.2-11.5.3-6.9,3.2-12,4.6-13.2,0,8.3.5,18.6,1.6,25.2-1.4,0-2.7-.3-3.1-.5h0Z"/>
  </g>
  <g>
    <path d="M363.4,77c-8.3,0-15.9-3.3-21.4-9.3-5.7-6.2-8.4-14.7-7.6-23.2,1.6-16.7,15.8-25.8,28.4-25.9h.1c10.6,0,23,10.4,23,23.9,0,1.2-.4,2.3-1,3.1-.7.9-1.7,1.4-2.8,1.4-3.1,0-5.7,0-8,0-4.2,0-7.1,0-9.2,0-3.3,0-8,.6-13.8,1.5.7,4.9,3.6,11.8,11,11.8.2,0,.4,0,.5,0,5.1-.2,11.3-4.2,13.1-8.3.6-1.5,2.1-2.5,3.7-2.5h.1c3.1.1,6.7,1.5,8.4,3.2,1.4,1.4,1.8,3.6.9,5.4-3.3,7.2-13,18.7-24.8,19-.3,0-.6,0-.8,0h0ZM361.5,32.9c-2.5,0-5.1,1.3-7,3.5,4.1-.6,8.5-1.2,12.4-1.6-2.1-1.3-4.1-1.9-5.1-2-.1,0-.2,0-.3,0Z"/>
    <path d="M362.9,20.1c9.5,0,21.5,9.3,21.6,22.4,0,1.8-1.1,3-2.4,3s0,0,0,0c-3.1,0-5.7,0-8,0-3.9,0-6.7,0-9.2,0-4.7.1-11.3,1.1-15.4,1.8,0,0,0,0,0,0,.4,6.5,4,14.5,12.7,14.5s.4,0,.6,0c5.8-.2,12.5-4.6,14.4-9.2.4-1,1.3-1.6,2.4-1.6s0,0,0,0c2.7,0,6,1.3,7.4,2.7,1,1,1.2,2.5.6,3.7-3.5,7.5-12.8,17.8-23.4,18.1-.3,0-.5,0-.8,0-17.5,0-29-15.1-27.5-30.9,1.5-16,15.2-24.5,26.9-24.6,0,0,0,0,.1,0M351.3,38.4c5.9-1,13.6-2,19.4-2.4-3.1-3.1-6.8-4.5-8.8-4.6-.1,0-.2,0-.4,0-4,0-8,2.8-10.2,7M362.9,17.1h-.1c-13.2.1-28.2,9.7-29.9,27.3-.9,9,2.1,17.8,8,24.4,5.7,6.3,13.7,9.8,22.5,9.8s.6,0,.9,0c12.5-.3,22.4-12,26.1-19.8,1.1-2.4.6-5.3-1.2-7.1-1.4-1.4-3.9-2.6-6.5-3.2,1.3-.1,2.6-.8,3.5-1.9.9-1.1,1.4-2.5,1.4-4.1,0-14.5-13-25.3-24.5-25.3h0ZM352.9,49.7c5-.8,9.2-1.2,12.1-1.3,2.1,0,5,0,9.2,0s2.2,0,3.4,0c-1.4.5-2.5,1.6-3.1,3.1-1.4,3.2-6.8,7.1-11.8,7.4-.2,0-.3,0-.5,0-6.3,0-8.5-5.6-9.3-9.1h0Z"/>
  </g>
  <g>
    <path d="M406.9,83.8c-3.9,0-10.8-1-16.8-3.2-2.6-1-4.1-3.7-3.7-6.4,2.2-13,3.4-21.9,3.8-28.8.5-8.2.2-21.9-.3-29.9,0-.9.5-2.2,1.5-3.2,1.4-1.5,3.4-2.4,5.5-2.4.2,0,.5,0,.7,0,8,0,16.2,2.6,20.1,3.9,9.8,3.2,23.2,15.5,22.1,33.1-1.1,17.1-14.2,36-31.9,36.9-.3,0-.6,0-1,0ZM406.5,26.3c-.3,0-.6,0-1,0-.3,0-.6.5-.6,1,.4,9,.1,28.1-2.6,40.9,0,.1,0,.3.2.3.3.1.7.2,1.1.2,2.7,0,6.5-2,8.2-2.8h.2c6.3-3.3,10.6-7.8,11.5-19.6.6-8.9-3.5-13.3-8-16.8-2.8-2.2-5.7-3.2-8.8-3.2Z"/>
    <path d="M397.6,11.3c7.7,0,15.7,2.6,19.7,3.8,9,2.9,22.1,14.5,21,31.6-1.1,17.1-14.1,34.7-30.5,35.5-.3,0-.6,0-.9,0-4,0-10.7-1.1-16.3-3.1-1.9-.7-3.1-2.7-2.7-4.8,1.9-11.4,3.3-21.1,3.8-28.9.5-8.1.3-21.8-.3-30.1,0-.9,1.6-4,5.5-4.1.2,0,.5,0,.7,0M403.6,70.2c3.1,0,7.3-2.2,9-3,7.1-3.6,11.4-8.7,12.3-20.7.6-8.9-3.1-13.8-8.6-18.1-2.2-1.7-5.4-3.5-9.7-3.5-.3,0-.7,0-1.1,0-1.2,0-2,1.3-2,2.6.4,8.6.2,27.6-2.6,40.5-.2.9.3,1.8,1.1,2.1.5.2,1,.2,1.6.2M397.6,8.3c-.3,0-.5,0-.7,0-2.6,0-5,1.1-6.6,2.9-1.2,1.4-1.9,3-1.8,4.3.6,8,.9,21.6.3,29.7-.4,6.8-1.6,15.7-3.8,28.6-.6,3.5,1.4,6.9,4.6,8.1,6.2,2.3,13.3,3.3,17.3,3.3s.7,0,1.1,0c18.5-1,32.2-20.6,33.3-38.3,1.2-18.4-12.8-31.3-23.1-34.7-4-1.3-12.4-4-20.6-4h0ZM406.5,27.8s0,0,0,0c2.8,0,5.4,1,7.9,2.9,4.9,3.7,8,7.8,7.5,15.5-.8,11.1-4.6,15.2-10.6,18.3h-.1c-1.3.7-4.7,2.4-7,2.7,2.5-12.6,2.8-30,2.4-39.4h0Z"/>
  </g>
  <g>
    <path d="M448.5,81.8c-.6,0-1.3,0-1.9,0-6.2-.6-11.5-3.5-15.2-8.5-4.8-6.5-6.4-15.7-4.5-25.2,3.2-15.8,14.8-23,24.2-23s1.4,0,2.2.1c8.9,1.1,18.9,14.1,17.8,27.8-1.1,14-8.6,29-22.5,29h0ZM449.9,39.2c-4.1,0-9,5.6-9.4,13.7-.3,5.1.9,15,7.2,15.5.2,0,.4,0,.6,0,5.6,0,9.7-6.8,10.3-13.2,1-10.7-5.9-15.6-7.9-16-.3,0-.5,0-.8,0Z"/>
    <path d="M451.1,26.4c.7,0,1.3,0,2,.1,7.7.9,17.5,13,16.5,26.1-1,12.6-7.7,27.6-21,27.6s-1.2,0-1.8,0c-14.5-1.4-21.5-16.1-18.3-32,3-14.7,13.6-21.8,22.7-21.8M448.2,69.9c6.8,0,11.2-7.9,11.8-14.5,1.1-11.1-6-17-9.1-17.6-.3,0-.7,0-1,0-5.1,0-10.5,6.5-10.9,15.2-.3,6.6,1.4,16.5,8.6,17,.2,0,.4,0,.7,0M451.1,23.4c-10,0-22.3,7.6-25.6,24.2-2,10-.3,19.6,4.7,26.4,3.9,5.3,9.6,8.5,16.2,9.1.7,0,1.4,0,2.1,0,14.8,0,22.8-15.7,24-30.4,1.2-14.5-9.5-28.2-19.1-29.4-.8,0-1.5-.1-2.3-.1h0ZM448.2,66.9c-.1,0-.3,0-.4,0-4.8-.4-6.1-8.5-5.8-13.9.4-7.5,5-12.3,7.9-12.3.2,0,.3,0,.5,0,1.6.3,7.6,4.8,6.6,14.3-.5,5.7-4.2,11.8-8.8,11.8h0Z"/>
  </g>
  <g>
    <path d="M481.8,112.2c-12.1,0-19.8-7-22.6-12.9-1.8-3.7-1.7-8,.2-11.3,1.2-2.2,3-3.6,4.8-3.8,1-.1,1.8-.2,2.5-.2,1,0,4,0,5.3,2.8.1.3.3.6.5,1.1,1,2.5,3.6,9.2,7.1,9.2s.5,0,.8-.1c2.9-.8,6.9-7.2,9.8-15.4-1.6.4-3.4.6-5.1.6h-.3c-15.3,0-22.3-16.3-22.3-31.5,0-14,11.2-26.4,20.3-26.8.2,0,.4,0,.6,0,3.8,0,7.8,1.2,11.4,3.4,1-2.3,2.5-3.5,4.4-3.5s1.8.3,2.8.9c4.5,2.8,6.5,5.5,7.4,7.3.9,1.9-.9,19.9-1.3,23.6,0,2-.3,4-.7,5.9-.8,6.3-1.9,15-3.3,20.9-3.4,14.5-7.8,28.8-20.4,29.5-.6,0-1.2,0-1.8,0h0ZM484.6,38.6c-.1,0-.3,0-.4,0-2,.2-9.5,4.6-9.3,15.6,0,5.8,3.4,14.3,10.1,14.4,6.5,0,8.4-9.9,8.6-15.2.1-5-1.5-9.7-4.3-12.6-1.4-1.5-3.1-2.3-4.6-2.3Z"/>
    <path d="M499.1,25.5c.6,0,1.2.2,2,.6,4.2,2.6,6.1,5.1,6.9,6.7.4.9-.3,11.3-1.5,22.9,0,2-.3,3.9-.7,5.8-.9,7.9-2.1,15.7-3.3,20.8-3.3,13.9-7.3,27.7-19,28.3-.6,0-1.1,0-1.7,0-10.8,0-18.3-5.8-21.2-12.1-3.1-6.6.8-12.6,3.7-13,.8,0,1.6-.2,2.3-.2,1.8,0,3.2.4,3.9,1.9.9,1.9,3.8,11.2,8.9,11.2s.8,0,1.2-.2c4.3-1.2,9.1-10.3,11.7-19.1-2.3.9-4.8,1.4-7.5,1.4,0,0-.2,0-.2,0-14.7,0-20.8-16.6-20.8-30,0-13.5,11-25,18.9-25.3.2,0,.4,0,.6,0,4,0,8.4,1.4,12.2,4.3.5-2.1,1.6-4.4,3.6-4.4M485,70.2c7.3,0,9.8-9.9,10-16.6.3-9.2-5-16.4-10.4-16.4-.2,0-.4,0-.6,0-3.2.3-10.9,5.7-10.7,17.1.1,7.1,4.2,15.8,11.6,15.9,0,0,0,0,0,0M499.1,22.5c-1.1,0-3.3.3-5,2.9-3.4-1.9-7.2-2.9-10.8-2.9-.2,0-.5,0-.7,0-9.8.3-21.8,13.4-21.8,28.2,0,15.9,7.5,33,23.8,33h.3c.9,0,1.9,0,2.8-.2-2.7,6.8-6,11.5-7.9,12-.1,0-.3,0-.4,0-1.1,0-3-1.4-5.7-8.3-.2-.5-.4-.9-.5-1.2-1.1-2.4-3.3-3.7-6.6-3.7-.7,0-1.6,0-2.7.2-2.2.2-4.5,1.9-5.9,4.5-2.1,3.8-2.2,8.5-.2,12.7,3,6.3,11.1,13.8,23.9,13.8s1.2,0,1.8,0c14.8-.8,19-18.8,21.8-30.6,1.4-5.9,2.6-14.7,3.3-21,.4-1.9.6-4,.7-6,.6-5.6,1.1-11.1,1.4-15.5.5-7.6.2-8.2-.2-8.9-1-2-3.2-5-8-8-1.2-.7-2.4-1.1-3.5-1.1h0ZM485,67.2h0c-5.5,0-8.5-7.5-8.6-12.9-.2-9.9,6.3-14,8-14.1,0,0,.2,0,.3,0,1.1,0,2.4.7,3.6,1.9,2.5,2.6,4,7,3.9,11.5-.2,5.5-2.2,13.7-7,13.7h0Z"/>
  </g>
  <g>
    <path d="M345.4,76.7c-2.6,0-10.7-.6-17.5-1.1-6.5-.5-7.3-4.5-7.4-7.6,0-2.8,0-9.6.2-15.8.2-6,0-36.5,0-36.8v-.2s0-.2,0-.2c.3-1,1.6-2.9,3.2-3.6,1.1-.5,3.1-.9,4.7-.9s1.2,0,1.7.2c2.4.7,3.6,2.3,3.6,4.9s0,1.6,0,3c0,5.5.1,15.9,0,21.1,0,3.4-.2,9.3-.4,14.3-.1,4.3-.2,8.4-.2,9.3.2.3,1,1,1.8,1.1.3,0,.7,0,1,0,1,0,2.2-.1,3.5-.3,1.8-.2,3.9-.5,6.4-.5s1.2,0,1.9,0c1.4,0,2.4.6,3.1,1.5,1.1,1.6.3,3.7-.2,5.2-.1.3-.2.7-.3.8-.3,2.5-1.8,5.5-5.1,5.5Z"/>
    <path d="M328.7,12c.5,0,.9,0,1.3.1,1.4.4,2.5,1.2,2.5,3.4s.2,17.4,0,24.1c-.2,6.6-.6,22.9-.6,23.8s1.6,2.3,3.1,2.5c.4,0,.8,0,1.2,0,2.6,0,5.5-.8,9.9-.8.6,0,1.2,0,1.8,0,4,.2,1.4,4.5,1.2,5.8-.2,1.3-.9,4.1-3.7,4.1s-12.2-.7-17.4-1.1c-5.2-.4-5.9-3.3-6-6.1,0-2.8,0-9.6.2-15.7.2-6.1,0-36.8,0-36.8.2-.5,1.2-2.1,2.4-2.7.8-.4,2.6-.8,4-.8M328.7,9.1c-1.8,0-4,.4-5.3,1.1-2,1-3.6,3.3-4,4.6v.4c-.1,0-.1.4-.1.4,0,.3.2,30.8,0,36.8-.2,6.6-.3,13-.2,15.9.2,5.5,3.1,8.6,8.8,9,6.8.5,15,1.1,17.6,1.1,4,0,6.2-3.3,6.6-6.7,0-.1.1-.4.2-.6.6-1.6,1.5-4.3,0-6.5-.6-.9-1.8-2-4.2-2.1-.6,0-1.3,0-1.9,0-2.6,0-4.8.3-6.6.5-1.3.2-2.4.3-3.3.3s-.6,0-.8,0c-.1,0-.3-.1-.5-.2,0-1.5.1-5.1.2-8.6.1-5.1.3-11,.4-14.4.1-5.3,0-15.6,0-21.1,0-1.5,0-2.5,0-3,0-3.2-1.7-5.5-4.7-6.3-.6-.2-1.3-.3-2.1-.3h0Z"/>
  </g>
  <g>
    <path d="M218.8,80.4c-7,0-13.2-2.7-18.1-7.9-6.7-7.2-10-18.3-9.1-30.5,1.5-20.9,15.4-32.2,27.7-32.4h.1c10.6,0,24.1,14.5,24.8,31.4.4,10.3-1.9,24.3-9.6,32.6-4,4.4-9.1,6.7-14.9,6.9-.3,0-.6,0-.9,0h0ZM218,26.8c-1.8,0-3.6.9-5.3,2.7-3.4,3.7-5.3,9.9-4.8,16.3.4,6.4,3.2,18.5,10.7,18.5s.3,0,.4,0c7.3-.4,11.5-9.9,11.3-18.5-.4-13.8-9.6-18.8-12-19,0,0-.2,0-.3,0Z"/>
    <path d="M219.4,11c9.3,0,22.7,13.4,23.3,29.9.7,16.5-5.6,37.3-23.1,37.9-.3,0-.6,0-.9,0-17,0-27.1-17-25.7-36.9,1.5-20.2,14.7-30.9,26.2-31,0,0,0,0,0,0M218.6,65.9c.2,0,.3,0,.5,0,8.6-.5,13-11.4,12.7-20.1-.4-14-9.7-20.2-13.4-20.4-.1,0-.2,0-.4,0-6.4,0-12.4,9.3-11.6,20.7.6,8.2,4,19.8,12.2,19.8M219.4,8.1h-.1c-12.9.1-27.5,12-29.1,33.7-.9,12.6,2.5,24.2,9.5,31.7,5.1,5.5,11.7,8.4,19.2,8.4s.6,0,1,0c6.3-.2,11.7-2.7,16-7.3,8-8.7,10.4-23.1,10-33.7-.7-17.7-15.1-32.8-26.3-32.8h0ZM218.6,62.9c-5.9,0-8.8-10.2-9.2-17.1-.5-7.2,2-12.6,4.4-15.2,1.4-1.5,2.9-2.3,4.2-2.3,0,0,.1,0,.2,0,2.1.1,10.2,5,10.6,17.5.2,6.9-3.2,16.6-9.9,17-.1,0-.2,0-.3,0h0Z"/>
  </g>
  <g>
    <path d="M265.5,77.9c-7,0-13.2-2.7-18.1-7.9-6.7-7.2-10-18.3-9.1-30.5,1.5-20.9,15.4-32.2,27.7-32.4h.1c10.6,0,24.1,14.5,24.8,31.4.4,10.3-1.9,24.3-9.6,32.6-4,4.4-9.1,6.7-14.9,6.9-.3,0-.6,0-.9,0h0ZM265.5,24.7c-2.4.1-11.6,5.2-12,19-.2,8.6,4,18.1,11.3,18.5.1,0,.3,0,.4,0,7.5,0,10.3-12.1,10.7-18.5.4-6.4-1.4-12.7-4.8-16.3-1.7-1.8-3.5-2.7-5.3-2.7s-.2,0-.3,0Z"/>
    <path d="M266.1,8.6c9.3,0,22.7,13.4,23.3,29.9.7,16.5-5.6,37.3-23.1,37.9-.3,0-.6,0-.9,0-17,0-27.1-17-25.7-36.9,1.5-20.2,14.7-30.9,26.2-31,0,0,0,0,0,0M265.3,63.7c8.2,0,11.6-11.7,12.2-19.8.8-11.4-5.3-20.7-11.6-20.7-.1,0-.2,0-.4,0-3.7.2-13,6.5-13.4,20.4-.2,8.7,4.1,19.6,12.7,20.1.2,0,.3,0,.5,0M266.1,5.6h-.1c-12.9.1-27.5,12-29.1,33.7-.9,12.6,2.5,24.2,9.5,31.7,5.1,5.5,11.7,8.4,19.2,8.4s.6,0,1,0c6.3-.2,11.7-2.7,16-7.3,8-8.7,10.4-23.1,10-33.7-.7-17.7-15.1-32.8-26.3-32.8h0ZM265.3,60.7c-.1,0-.2,0-.3,0-6.7-.4-10.1-10.1-9.9-17,.3-12.5,8.5-17.4,10.6-17.5,0,0,.1,0,.2,0,1.4,0,2.9.8,4.2,2.3,2.5,2.6,4.9,8,4.4,15.2-.5,6.9-3.3,17.1-9.2,17.1h0Z"/>
  </g>
  <g>
    <path d="M163.1,106c-3.6,0-6.3-.5-6.4-.5l-1-.2-11.8-58.8c-1.8,1.9-3.3,3.5-4.1,4.6-1.7,1.9-4.3,3-7,3s-5-1.1-6-2.9l-6.5-12,.5-.7c.3-.4,7.2-11.1,19.8-20.1,7.2-5.2,17.8-8.1,29-8.1s13.6,1.3,17.3,3.5c8.3,4.9,22.8,21.3,18.2,48.1-3.3,18.9-14.5,32.4-23.1,38.2-7.4,5-10.4,5.4-15.8,5.9-1,0-2,.1-3.1.1h0ZM171.3,81.5c5.4-3.8,21.2-16.6,16.5-33.5-4.7-17-13.8-19.5-18.9-19.5s-4,.5-5.1.8c-.7.2-1.6.7-2.6,1.4l10.2,50.8Z"/>
    <path d="M169.6,11.7c6.9,0,13.1,1.2,16.6,3.3,8.3,4.9,21.9,20.8,17.4,46.6-3.4,19.7-15.1,32.3-22.4,37.2-7.3,4.9-10.1,5.2-15.1,5.6-1,0-2.1.1-3,.1-3.6,0-6.2-.4-6.2-.4l-12.2-60.6c-2.9,3-5.2,5.6-6.2,6.7-1.5,1.7-3.8,2.5-5.9,2.5s-3.9-.8-4.6-2.1c-1.6-3.1-6-11.2-6-11.2,0,0,6.9-10.8,19.4-19.7,7.7-5.5,18.7-7.8,28.1-7.8M170.3,84s24.9-14.8,18.9-36.4c-4.6-16.5-13.4-20.6-20.3-20.6-2.1,0-4,.4-5.6.9-1.1.4-2.4,1.1-3.8,2.1l10.8,54M169.6,8.7c-11.5,0-22.4,3.1-29.9,8.4-12.8,9.2-19.9,20.1-20.2,20.5l-1,1.5.8,1.6,6,11.2c1.2,2.3,4,3.7,7.3,3.7s6.2-1.3,8.1-3.5c.5-.6,1.3-1.4,2.1-2.4l11,54.9.4,2,2,.3c.1,0,2.9.5,6.7.5s2.2,0,3.2-.1c5.5-.4,8.8-.9,16.5-6.1,3.2-2.2,19.4-14.2,23.7-39.1,2.1-11.9.6-23.3-4.2-32.9-3.5-7.1-9-13.4-14.7-16.7-4-2.4-10.6-3.7-18.1-3.7h0ZM162.8,31.4c.7-.4,1.1-.6,1.5-.7,1-.3,2.6-.8,4.6-.8,5.6,0,13.2,3.2,17.4,18.4,4,14.4-7.8,25.7-14,30.5l-9.5-47.5h0Z"/>
  </g>
  <g>
    <g>
      <path class="st13" d="M89.1,111.4c-.5,0-1.1-.2-1.4-.3-.7-.2-1.3-.5-1.9-.8,0,0-.2,0-.3,0h0c0,.3-.3.6-.5.8h0s0,0,0,0c-.1,0-.3.1-.5.1h-.3s-.3-.1-.3-.1c-.5,0-1.1-.2-1.6-.4h-.1c-.8-.3-1.5-.5-2.1-.7-2.6-1-4.6-2.3-6-4-.8-1-1.4-2.1-1.7-3.2-.3.1-.6.3-.9.4-1.1.4-2.2.8-3.6,1.1h-.1s-.2,0-.2,0c-.6,0-1.1-.5-1.2-1.1,0-.3,0-.7.3-.9.1-.9.1-1.8,0-2.7-.9.8-2,1.4-3.2,1.6h-.1s-.2,0-.2,0c-.6,0-1-.4-1.2-1,0-.4,0-.8.3-1.1h0c.4-.6.7-1.1,1-1.7-.4,0-.8,0-1.2,0-1.4,0-2.8-.2-4.2-.6,0,0-.2,0-.2,0-.4,0-.7-.2-.9-.4-.1-.2-.2-.4-.3-.6,0-.3,0-.7.1-1,.1-.2.2-.3.4-.4.2-.4.4-.8.5-1.2l.3-.8c-.4,0-.9.1-1.3.1-1.1,0-2.1-.2-3.1-.6-.5-.2-.9-.8-.7-1.4.1-.6.6-1,1.1-1s.2,0,.3,0c.1,0,.2-.1.3-.2-.8-.1-1.6-.4-2.2-.9-.4-.3-.5-.8-.4-1.3.2-.5.6-.8,1.1-.8.4-.3.8-.5,1.2-.8,0,0,0,0-.1,0-.6-.1-1-.7-.9-1.3,0,0,0-.1,0-.2-.2-.1-.3-.3-.4-.6-.1-.4,0-.8.1-1.1,0-.1.1-.2.2-.3.8-.9,1.5-2,1.9-3.2,0,0-.1,0-.2,0-.4,0-.8-.2-1-.6-.2-.3-.2-.6-.1-.9-.1,0-.3.1-.4.2h-.2c0,0-.2,0-.2,0-.5,0-1-.4-1.2-.9-.1-.4,0-.8.2-1.1.2-1,.3-2,.3-3-.2,0-.3.1-.5.1h-.3c-.3-.1-.5-.3-.6-.5-.1-.2-.2-.4-.3-.7,0-.9,0-1.8-.2-2.7-.4-2.9-1.4-5.8-2.9-8.4-.8-1-1.6-2-2.3-3-2.1-3.1-3.7-6.5-4.8-10.2-.2,0-.4.1-.6.1-.6,0-1.1-.4-1.2-1-.3-1.6-.3-3.3,0-4.9l-.5.4c-.2.2-.5.3-.8.3-.6,0-1.2-.5-1.2-1.2,0-.9,0-1.8.2-2.7.5-2.3,1.7-4.4,3.5-5.9l-2-.9c-.5-.2-.8-.8-.7-1.4.1-.5.6-.9,1.1-.9.3,0,.5,0,.7,0,.5,0,.9,0,1.3-.1,1.6-.3,3.2-1,4.5-2-1-.4-1.8-1.2-2.4-2.1-.2-.4-.2-.8,0-1.2.2-.4.6-.6,1-.6,2.2,0,4.3-.3,6.4-.9-.1,0-.2-.2-.3-.2-.3-.3-.4-.6-.4-1.1,0-.4.3-.8.6-.9l2.2-1.1c0-.2,0-.5,0-.7.2-.5.6-.8,1.1-.8l2.2-.2c-.1-.4,0-.8.1-1.1.2-.3.6-.6,1-.6h.2s1.9.3,1.9.3c0,0-.1-.1-.2-.2-.3-.3-.4-.8-.3-1.3.2-.5.6-.8,1.1-.8s.3,0,.4,0c2.5.3,5,1.1,7.2,2.4.5-.4.9-.8,1.4-1.1,2.7-2,5.6-3.6,8.7-4.7.2-.6.4-1.1.7-1.6.4-.9,1-1.4,1.7-1.7.3-.1.6-.2.9-.2s.4,0,.6,0c1.1-1.2,2.3-2.3,3.6-3.3.2-.1.4-.2.7-.2.4,0,.8.2,1,.6,0,0,0,.1.1.2.2-.4.6-.7,1.1-.7h.3c.4.2.7.5.8.9,0,0,0,0,.1,0,.2-.2.5-.4.9-.4s.8.2,1.1.6l.9-.8c.2-.2.5-.3.8-.3s0,0,0,0c0,0,.2,0,.3,0,.3,0,.7.1.9.4.2.2.3.6.3.9h0c2.2-1.6,4.9-2.6,7.6-2.6s.7,0,1,0c0,0,.2,0,.3,0s.2,0,.2,0c.6,0,1.1.6,1.1,1.2.2,0,.4,0,.6,0,.5,0,1,0,1.5,0,1,0,1.7-.1,2.3-.4.1,0,.3,0,.5,0,.4,0,.8.3,1,.7.2.4.2,1-.1,1.3-.6.7-1.2,1.4-2,1.9l2.1.9c.6.3,1.3.5,2,.7.4,0,.7.1,1.1.1.8,0,1.4-.2,1.8-.6.2-.2.5-.3.8-.3s.7.1.9.4c.2.2.3.6.3.9,0,.2,0,.4,0,.6,1.2-.7,2.6-1.3,4.1-1.3s.2,0,.3,0c.4,0,.9.3,1,.7.2.4.1.8-.1,1.2l-1.5,2.1c2.2.2,4.3,1,6,2.4.4.3.6.9.4,1.4,0,.1-.1.3-.2.4.4.1.9.2,1.4.4,2,.7,3.8,1.8,5.5,2.8,1.2.7,2.4,1.5,3.7,2,1.6.7,3,1.1,4.4,1.1.3,0,.5,0,.8,0,1.3,0,2.9,0,4.2.8.4.2.7.7.6,1.3,0,.5-.4.9-.9,1-.7.1-1.4.4-2.2.7-.1,0-.2,0-.3.1.3.3.7.7,1,1,.4.4,1.1.8,1.8.8s.2,0,.3,0h0s.2,0,.2,0c.4,0,.7.2.9.4.2.2.3.6.3.9-.2,1.3-1.2,2.4-2.6,2.8-.1,0-.2,0-.4,0,1.2,2.1,1.9,4.5,1.8,7,0,.7-.6,1.2-1.2,1.2s-1-.3-1.2-.9c0,0,0-.2,0-.2-.1,3.1-1,6.2-2.6,8.8-.2.4-.6.6-1,.6s-.3,0-.4,0c-.8,2.1-2,3.9-3.1,5.7-.6.9-1.2,1.8-1.7,2.7-1.5,2.6-2.5,5.5-3,8.6.7,1.6,1.8,2.9,3.1,3.8.4.3.6.9.5,1.4-.2.5-.6.9-1.2.9h-.2c-.5,0-.9-.2-1.4-.3-3-.8-5.9-2.3-8.2-4.5,0,0,0,.2,0,.3-.1,3,.7,5.9,2.4,8.3.4.2.6.7.6,1.1,0,.6-.6,1.1-1.2,1.1h-.3c-.9-.2-1.7-.6-2.5-1.2,0,.8-.3,1.6-.5,2.4.5.8,1.1,1.5,1.6,2.2.3.3.4.8.2,1.2,0,.2,0,.4-.2.6-.2.3-.5.5-.9.5-.2,0-.4,0-.6,0-.6,0-1.3-.1-1.9-.3,0,.6,0,1.2-.3,2-.2.6-.3,1.1-.2,1.4.2.4.2.8,0,1.2-.2.4-.6.6-1,.6s-.5,0-.7-.2c0,0,0,0,0,0,0,.3,0,.6,0,.9,0,.3,0,.7-.3.9-.1.2-.3.3-.5.3v.5c.2.5,0,1-.2,1.3-.2.3-.6.5-.9.5h-.1c-.4,0-.8-.2-1.1-.4,0,0,0,0,0,.1.3,1,.9,1.9,1.7,2.8.3.4.4.9.2,1.3-.2.4-.6.7-1.1.7h-.4c-.2-.1-.4-.2-.6-.3-.2,0-.3.1-.5.1s-.1,0-.2,0c-.1,0-.2,0-.3,0,0,.4,0,.8-.3,1.1-.2.2-.5.3-.8.4,0,.2,0,.5-.2.7-.2.3-.5.5-.9.5-.2,0-.4,0-.6,0-.7,0-1.5,0-2.2-.3-1.1-.3-2.1-.8-3-1.4-.2.2-.5.3-.9.3s-.1,0-.2,0c-.2,0-.4,0-.5,0-.6,0-1.1,0-1.7-.3.4,1,1.1,1.8,2,2.4.5.3.7.8.5,1.4-.2.5-.6.9-1.2.9s-.4,0-.5-.1h0c-.8,0-1.6-.1-2.3-.3-1.2-.4-2.4-1-3.3-1.9,0,0,0,0,0,0-.2.2-.5.4-.9.4s-.4,0-.5-.1c0,0-.1,0-.2,0,.6.8,1.5,1.5,2.4,1.9.3.1.6.4.7.7,0,.2,0,.4,0,.6,0,.2,0,.5-.2.7-.2.4-.6.6-1,.6h-.2c-1.4-.3-2.7-.8-4-1.4-.2,0-.3-.2-.5-.3-.2.9-.5,1.8-1.1,2.6-.7,1-1.7,1.8-2.8,2.3,0,.2.1.4.1.7,0,.9-.7,1.5-1.7,1.5Z"/>
      <path d="M100.8,3.5c.3,0,.7,0,1,0,0,0,.2,0,.3,0,0,0,.1,0,.2,0,.3,0,.4.6,0,.6s0,0,0,0c0,0,0,0,0,0s0,0,0,0,0,0,0,0c0,0,0,0-.1,0s0,0,0,0c0,0-.1,0-.2,0-.6,0-1.1.5-1.6.9.7-.2,1.4-.3,2.2-.3,1,0,2.1.1,3.1.1s1.8,0,2.6-.4c0,0,0,0,.1,0,.2,0,.3.3.2.5-.9,1.1-2,2-3.3,2.6.5.2,1,.4,1.5.6.8.3,1.5.6,2.3.9.7.3,1.4.6,2.1.7.4,0,.8.2,1.3.2.9,0,1.8-.2,2.5-.9,0,0,.1,0,.2,0,.1,0,.3.1.3.3-.1,1.2-.7,2.4-1.6,3.2.7-.3,1.4-.8,2.1-1.2,1.4-.8,2.8-1.6,4.4-1.6,0,0,.2,0,.3,0,.2,0,.4.2.2.4-.9,1.2-1.7,2.4-2.6,3.6.3,0,.5,0,.8,0,2.3,0,4.5.8,6.4,2.2.2.2.1.5-.1.5s0,0,0,0c-.3,0-.5-.1-.8-.1-.5,0-.9.1-1.3.2.4.3.7.6,1,1,1.1,0,2.2.3,3.2.6,3.2,1.1,6,3.4,9,4.8,1.5.7,3.1,1.2,4.8,1.2,1.6,0,3.2-.1,4.6.7.2.1.2.5,0,.5-1.3.3-2.7,1-4.1,1.4.7.7,1.4,1.4,2.1,2.1.7.6,1.5,1.1,2.4,1.1s.3,0,.5,0c0,0,0,0,0,0,.1,0,.3.1.3.3-.1,1-.9,1.8-1.9,2-.3,0-.5.1-.8.1-.4,0-.8,0-1.2-.2.2.2.4.5.5.7,1.5,2.1,2.3,4.7,2.2,7.3,0,.2-.1.3-.3.3s-.2,0-.3-.2c-.3-.9-1-1.6-2-1.9,0,.3,0,.6,0,.9,0,3.3-.8,6.5-2.4,9.3,0,0-.1.1-.2.1-.2,0-.3-.2-.3-.4.2-1,0-2.1-.2-3,0,1.2-.3,2.4-.7,3.6-1.1,3.2-3.3,5.8-4.9,8.6-1.6,2.8-2.7,5.9-3.1,9.2.8,1.8,2,3.4,3.6,4.5.3.2.1.5-.2.5s0,0,0,0c-.4,0-.9-.2-1.3-.3-3.5-.9-6.7-2.9-9.1-5.6-.2.7-.3,1.5-.3,2.3-.2,3.2.8,6.5,2.7,9.1,0,0,0,0,0,0,.3,0,.2.6,0,.6s0,0,0,0c-1.5-.3-2.7-1.3-3.5-2.6.1,1.6-.1,3.3-.7,4.9.6.9,1.2,1.8,2,2.7.1.1,0,.3,0,.4,0,.2,0,.4-.2.4-.2,0-.3,0-.5,0-1.1,0-2.2-.4-3.2-1,.2.5.3.9.3,1.4,0,.7,0,1.3-.3,1.9-.2.7-.4,1.5,0,2.1.1.2,0,.4-.2.4s0,0-.1,0c-.5-.4-.8-.9-1-1.4-.3,1-.7,2-.6,3.1,0,.2-.1.3-.3.3s-.2,0-.3-.2c-.2-.6-.4-1.2-.7-1.7.1.7.2,1.5.4,2.2,0,.4.1.8.2,1.2,0,.3,0,.7-.4.8,0,0,0,0,0,0-.3,0-.6-.2-.8-.4-.3-.2-.5-.4-.8-.6-.3-.3-.6-.6-.9-1,0,.3.1.6.2.9.1.6.2,1.3.4,1.9.3,1.2,1.1,2.2,1.9,3.2.1.2,0,.5-.2.5s0,0,0,0c-.4-.1-.7-.3-1.1-.5,0,.1,0,.2-.1.3,0,0,0,0-.1,0s0,0-.1,0c0,0,0,0,0,0-.2,0-.5,0-.7,0-.5,0-1.1,0-1.6-.2.3.4.7.8,1,1.2,0,.1.1.3,0,.4,0,0-.1,0-.2,0s-.1,0-.2,0c0,0,0,0,0,0,0,0,0,0,0,0,0,0-.1,0-.2,0-.5,0-1,0-1.5-.3.3.3.7.6,1,.8.1,0,.1.2.1.4,0,.2,0,.4-.2.4-.2,0-.4,0-.6,0-.7,0-1.3,0-2-.3-1.6-.4-3-1.4-4.1-2.7.1.4.2.8.3,1.2,0,.2-.1.3-.3.3s0,0-.1,0c-.2,0-.4,0-.6,0-1.2,0-2.3-.5-3.1-1.3.1,2.1,1.2,4,2.9,5.1.3.2,0,.5-.1.5s0,0-.1,0c0,0-.1,0-.2-.1,0,0,0,0,0,0,0,0-.2,0-.3,0-.7,0-1.4,0-2.1-.3-2.1-.6-3.9-2.2-4.8-4.2,0,.7.2,1.4.5,2,.1,0,.2.2.1.4,0,.2-.1.3-.3.3s-.1,0-.2-.1c-.8,0-1.6-.3-2.3-.7.6,2,2.1,3.6,3.9,4.4.2,0,.2.3.1.5,0,.2,0,.4-.3.4s0,0,0,0c-1.3-.3-2.5-.7-3.7-1.3-.7-.3-1.4-.8-1.8-1.4.2,1.4-.2,2.9-1,4-.8,1.1-2,1.9-3.3,2.2,0,.2.1.3.2.5,0,.2.2.5.2.8,0,.5-.4.6-.8.6s-.9-.2-1.2-.2c-.7-.2-1.5-.6-2.1-1,0,.1-.1.2-.3.2s0,0,0,0c-2.4-.4-4.7-1.3-6.7-2.5,1,1.1,2.2,1.9,3.6,2.4.6.2,1.2.3,1.7.5,0,0,.2,0,.2,0,.1,0,.3.1.3.3,0,0,0,.2-.2.3,0,0,0,0,0,0,0,0,0,0,0,0,0,0,0,0-.1,0s0,0,0,0c0,0-.2,0-.3,0-.5,0-1-.2-1.5-.4,0,0-.1,0-.2,0-.7-.2-1.4-.4-2.1-.7-2.1-.8-4.1-1.9-5.6-3.7-1-1.2-1.7-2.7-1.9-4.2-.5.5-1.1.9-1.8,1.1-1.1.4-2.3.8-3.5,1.1,0,0,0,0,0,0-.3,0-.4-.5,0-.6,0,0,0,0,0,0,0,0,0-.1,0-.2.3-1.7.2-3.4-.3-5.1-.9,1.4-2.3,2.4-4,2.8,0,0,0,0,0,0-.3,0-.4-.4-.1-.5,0,0,0,0,0,0,.8-1,1.3-2.2,1.6-3.4-.9.1-1.7.2-2.6.2-1.4,0-2.9-.2-4.2-.6,0,0-.1,0-.2,0-.2,0-.3-.1-.3-.3-.1-.2,0-.4.2-.4,0,0,0,0,0,0,.4-.7.7-1.4,1-2.2.3-.7.6-1.4.9-2.1-.9.4-1.9.6-2.9.6s-1.9-.2-2.7-.5c-.3-.1-.2-.6,0-.6,0,0,0,0,.1,0,0,0,.2,0,.2,0,0,0,0,0,0,0,1.3-.6,2.4-1.6,3.3-2.7-.6.3-1.3.5-1.9.6-.2,0-.4,0-.6,0-.8,0-1.6-.2-2.2-.7-.2-.2,0-.5.2-.5,0,0,0,0,.1,0,0,0,0,0,0,0,1.3-.7,2.5-1.6,3.6-2.5-.3,0-.6,0-.9,0-.5,0-1.1,0-1.6-.2-.3,0-.2-.6,0-.6,0,0,0,0,0,0,0,0,0,0,.2-.1,1.4-.4,2.5-1.5,2.9-2.9-.9,1.1-2.1,1.9-3.4,2.3,0,0,0,0,0,0-.2,0-.4-.4-.2-.5,0,0,0,0,0-.1,1.5-1.7,2.5-3.9,2.7-6.2-.4.6-.9,1.1-1.5,1.4,0,0,0,0-.1,0,0,0-.2,0-.2-.1,0-.1,0-.3,0-.4,0,0,.1,0,.2,0,0,0,0,0,0-.2,0-.6,0-1.2,0-1.9-.5.6-1.1,1.1-1.8,1.4,0,0,0,0,0,0-.1,0-.2,0-.3-.2,0-.2,0-.3.2-.3,0,0,0,0,0,0,0,0,0,0,0-.1.5-2.1.5-4.2-.1-6.3-.2.6-.5,1.3-.7,1.9,0,.1-.1.2-.3.2s0,0,0,0c0,0-.1,0-.1-.1,0,0,0-.1,0-.2,0-.9,0-1.9-.2-2.8-.4-3.1-1.5-6.1-3.1-8.8,0,0,0,0,0,0-.8-.9-1.5-1.9-2.2-3-2.4-3.5-4.1-7.5-5.2-11.6-.2.3-.5.7-.7,1,0,0-.2.1-.3.1s-.2,0-.2-.2c-.4-2.5-.1-5,.8-7.4-.9.8-1.9,1.5-2.8,2.3,0,0-.1,0-.2,0-.1,0-.3,0-.3-.3,0-.8,0-1.6.2-2.4.6-2.6,2.2-4.9,4.4-6.3-1.2-.5-2.3-1-3.5-1.5-.3-.1-.3-.6,0-.6,0,0,0,0,0,0,.2,0,.5,0,.7,0,.5,0,1,0,1.5-.1,2.4-.4,4.6-1.6,6.2-3.4-1.4-.1-2.7-.9-3.5-2.1-.1-.2,0-.4.2-.4,3.1,0,6.1-.6,9-1.6-.8-.2-1.6-.6-2.3-1.1-.1-.1,0-.4,0-.4,1.1-.5,2.1-1.1,3.2-1.6-.1-.1-.3-.3-.4-.4-.2-.2,0-.5.2-.5,1.2,0,2.3-.2,3.5-.3-.2-.4-.3-.7-.5-1.1,0-.2,0-.4.3-.4,0,0,0,0,0,0,1.3.2,2.7.4,4,.6-.2-.8-.7-1.5-1.4-2,0,0-.1,0-.2-.1-.2-.2,0-.5.2-.5,0,0,0,0,.1,0,0,0,0,0,0,0,2.7.3,5.2,1.2,7.5,2.6.6-.5,1.2-1,1.9-1.5,2.6-2,5.6-3.5,8.7-4.7,0,0,0,0,0,0,0,0,.1,0,.1,0,.2-.7.5-1.4.8-2,.3-.5.6-1,1.2-1.3.2,0,.3,0,.5,0,.3,0,.6.1.8.3,1.1-1.4,2.4-2.6,3.9-3.7,0,0,0,0,.1,0,.1,0,.2,0,.2.2,0,0,.2.2.1.3-.3,1-.7,2-1.1,3,1-.9,1.9-1.9,2.7-3.1,0,0,0-.1,0-.2,0-.1.2-.2.3-.2,0,0,0,0,0,0,.2,0,.2.2.2.3,0,0,0,0,0,0,0,0,0,0,0,.1-.1.7-.3,1.4-.4,2.1.6-.7,1.1-1.3,1.8-1.9,0,0,.1,0,.2,0,0,0,0,0,0,0,0-.2.1-.2.3-.2.1,0,.3,0,.3.3,0,.5,0,1-.2,1.5.8-.7,1.7-1.5,2.5-2.2,0,0,.1,0,.2,0,0,0,0,0,.1,0,0,0,.1,0,.2,0,.1,0,.3,0,.3.3,0,.8-.1,1.7-.2,2.5.4-.5.8-.9,1.3-1.3,2.1-1.8,4.8-2.8,7.5-2.8M100.8,1.7h0c-2.5,0-5,.7-7.1,2.1,0,0,0,0-.1-.1-.4-.4-1-.7-1.6-.7s-.2,0-.3,0c-.5,0-1,.2-1.4.5l-.3.2c-.3-.2-.7-.3-1.1-.3s-.5,0-.7.1c-.2-.2-.5-.4-.9-.5-.2,0-.4,0-.6,0-.4,0-.8.1-1.1.3-.3-.2-.7-.3-1.1-.3h0c-.4,0-.9.1-1.2.4-1.2.9-2.4,1.9-3.4,3,0,0-.2,0-.2,0-.4,0-.8,0-1.2.2-.9.4-1.6,1.1-2.2,2.2-.2.4-.4.8-.6,1.3-3.1,1.2-6,2.8-8.6,4.7-.3.2-.6.5-.9.7-2.1-1.1-4.5-1.9-6.8-2.2-.2,0-.4-.1-.7-.1-.9,0-1.7.6-2,1.4,0,.2-.1.4-.1.6h-.2c-.1,0-.2,0-.4,0-.7,0-1.4.4-1.8,1-.1.2-.2.5-.3.7h-1.3c-.9.2-1.6.7-1.9,1.5,0,.1,0,.3-.1.4l-.4.2-1.3.6c-.6.3-1.1.9-1.1,1.6,0,.3,0,.6,0,.8-1.6.3-3.2.5-4.9.5-.8,0-1.5.4-1.8,1.1-.4.7-.3,1.5,0,2.1.4.6.9,1.2,1.5,1.7-.9.5-1.9.9-2.9,1-.4,0-.8,0-1.2,0s-.4,0-.6,0h0s0,0,0,0c-1,0-1.9.7-2.1,1.7-.2,1,.3,2.1,1.3,2.5l.7.3c-1.3,1.5-2.3,3.4-2.7,5.4-.2,1-.3,1.9-.3,2.9,0,1.2,1,2.1,2.1,2.1s.1,0,.2,0c0,1.1,0,2.3.2,3.4.2,1,1,1.7,2,1.8,1.1,3.4,2.7,6.7,4.7,9.6.7,1,1.5,2,2.3,3,1.4,2.4,2.4,5.2,2.8,7.9.1.8.2,1.7.2,2.6,0,.5.2,1,.5,1.3.3.3.7.6,1.1.7,0,0,.1,0,.2,0,0,.5,0,1.1-.2,1.6-.3.5-.4,1.1-.3,1.7.3.9,1.1,1.6,2.1,1.6s0,0,0,0c0,0,0,.1,0,.2.2.3.4.6.8.8-.4.7-.8,1.3-1.3,1.9-.1.1-.2.3-.3.5-.3.5-.4,1.2-.2,1.9,0,.2.2.4.3.6,0,.4.1.8.3,1.1-.7.2-1.3.7-1.5,1.4-.3.8,0,1.8.7,2.3.2.1.3.2.5.3-.1.2-.3.5-.3.8-.2,1,.3,2,1.3,2.4,1.1.4,2.2.7,3.4.7,0,.1-.1.3-.2.4-.2.2-.4.4-.5.6-.3.5-.4,1.1-.2,1.6,0,.4.2.7.5,1,.4.5,1,.7,1.6.7s.1,0,.2,0c1.3.3,2.5.5,3.8.5,0,0,0,.1-.1.2-.5.5-.7,1.2-.5,1.9.2,1,1.1,1.7,2.1,1.7s.3,0,.5,0c.7-.2,1.4-.4,2.1-.8,0,.2,0,.4,0,.6-.2.4-.3.9-.3,1.4.1,1.1,1,1.9,2.1,1.9s.4,0,.5,0c1.4-.4,2.6-.7,3.7-1.1,0,0,0,0,0,0,.4.9.9,1.8,1.6,2.5,1.5,1.8,3.6,3.2,6.4,4.3.6.2,1.3.5,2.1.7h.1c.6.3,1.1.4,1.8.5h0s.2,0,.2,0c.2,0,.4,0,.5,0,.4,0,.7-.1,1.1-.3h0s0,0,0,0c.2-.1.4-.3.5-.5.5.2.9.4,1.4.5.4.1,1.1.3,1.8.3,1.5,0,2.6-1,2.6-2.5,0,0,0,0,0-.1,1-.5,1.9-1.3,2.6-2.3.4-.5.7-1.2.9-1.8,1.2.6,2.4,1,3.7,1.2.1,0,.3,0,.4,0,.8,0,1.5-.4,1.9-1.1.2-.4.3-.8.3-1.1,0-.3,0-.6-.1-.9.2,0,.4.1.6.2.8.2,1.6.4,2.5.4.2,0,.5.1.7.1.9,0,1.8-.6,2-1.6.3-.9-.1-1.9-.9-2.4-.2-.1-.4-.2-.5-.4,0,0,.1,0,.2,0,0,0,.1,0,.2,0,.3,0,.6,0,.8-.2.9.5,1.8,1,2.7,1.2.8.2,1.6.3,2.4.3s.5,0,.7,0c.7,0,1.2-.4,1.6-.9,0-.1.2-.3.2-.5.2-.1.5-.3.7-.5.3-.3.4-.6.5-.9,0,0,0,0,0,0,0,0,.2,0,.3,0,.2,0,.5.1.7.1.8,0,1.5-.5,1.9-1.2.4-.8.2-1.7-.3-2.3-.3-.4-.6-.7-.8-1.1.5-.1.9-.4,1.3-.8.3-.4.6-1,.5-1.9,0,0,.1-.1.2-.2.3-.3.5-.7.5-1.2.7,0,1.3-.4,1.7-1.1.4-.6.4-1.4,0-2.1,0-.2.1-.5.2-.7h0c0-.4.2-.8.3-1.2.4,0,.7,0,1.1,0s.4,0,.7,0c.6,0,1.2-.4,1.6-.9.2-.3.3-.6.3-1,.2-.7,0-1.4-.4-1.9-.5-.6-.9-1.1-1.3-1.8,0-.2.1-.5.2-.7.5.2,1,.4,1.6.6.2,0,.3,0,.5,0,1.1,0,2-.8,2.1-1.9,0-.8-.2-1.5-.8-1.9-1.2-1.7-1.9-3.8-2.1-5.9,2.1,1.6,4.5,2.8,7.1,3.4.5.1,1,.2,1.5.3.1,0,.2,0,.4,0,.9,0,1.8-.6,2.1-1.5.3-.9,0-1.9-.8-2.4-1.1-.8-2.1-1.9-2.7-3.2.5-2.8,1.4-5.5,2.8-8,.5-.9,1.1-1.8,1.7-2.7,1.1-1.6,2.2-3.3,3-5.2.7,0,1.3-.4,1.6-1,1.3-2.2,2.2-4.7,2.5-7.3.2,0,.3,0,.5,0,1.2,0,2.1-.9,2.1-2.1,0-2.2-.4-4.5-1.4-6.5,1.4-.6,2.3-1.9,2.5-3.3,0-.6-.1-1.2-.5-1.6-.4-.5-1-.7-1.6-.7s-.3,0-.5,0c0,0,0,0,0,0-.3,0-.7-.2-1.1-.6.4-.1.7-.2,1-.3.9-.2,1.5-.9,1.7-1.8.1-.9-.3-1.8-1.1-2.2-1.6-.9-3.2-.9-4.7-.9-.3,0-.5,0-.8,0-1.3,0-2.6-.4-4.1-1-1.2-.6-2.4-1.3-3.6-2-1.8-1.1-3.6-2.2-5.6-2.9-.2,0-.3-.1-.5-.2,0-.7-.3-1.4-.8-1.9-1.4-1.1-3.1-1.9-4.9-2.3l.7-.9c.5-.6.5-1.4.2-2.1-.3-.7-1-1.2-1.8-1.2-.1,0-.2,0-.4,0-1.2,0-2.2.3-3.2.7,0-.2-.2-.4-.4-.6-.4-.4-1-.7-1.6-.7h0c-.6,0-1.1.2-1.5.6-.3.2-.6.4-1.2.4s-.6,0-.8-.1c-.6-.1-1.2-.4-1.8-.6-.2,0-.4-.2-.7-.3.3-.3.7-.7,1-1.1.5-.7.6-1.6.2-2.3-.4-.7-1.1-1.2-1.9-1.2-.3,0-.6,0-.8.2-.5.2-1.1.3-1.9.3s-.9,0-1.4,0c-.3-.7-1-1.2-1.8-1.3-.1,0-.2,0-.3,0s-.2,0-.3,0c-.3,0-.7,0-1,0h0Z"/>
    </g>
    <g>
      <path class="st12" d="M61.8,40.2c.6-.3,1.2-.5,1.9-.6-.6.4-1.2.9-1.7,1.5,0,.1-.1.3,0,.4,0,0,.3.1.4,0,.6-.3,1.3-.4,2-.5-1.1,1-1.8,2.4-2,3.9,0,.2.1.3.3.3,0,0,.1,0,.2,0,0,0,0,0,0,0,.7-.8,1.5-1.5,2.4-2.1-.6.6-1.1,1.3-1.5,2.1-.8,1.6-1.2,3.4-1.3,5.1,0,1,0,2.1,0,3.1,0,.4.5.4.5,0,0,0,.1-.1.1-.2.3-2.6,1.2-5,2.6-7.2.7-1.1,1.5-2.1,2.5-2.9,1-1,2.2-1.7,3.3-2.7,1.1-1,2-2.2,2.4-3.6,0,0,0-.1,0-.2v-.5c0-.2-.3-.4-.4-.2-.8,1-2,1.8-3.3,1.9-1.4.1-2.7-.4-3.7-1.4,0,0-.2,0-.2,0,0,0-.1,0-.2,0-1.6.9-3.1,2-4.5,3.2,0,0,0,0,0,0-.3.2,0,.6.3.5Z"/>
      <path class="st12" d="M73.3,26.3c-.2-.3-.5,0-.4.3,0,.4,0,.8.1,1.2-.1,0-.2-.2-.4-.3-.5-.4-1.1-.6-1.8-.7-1.2-.3-2.5-.1-3.7.4,0,0,0,0,0,0-.4,0-.4.6,0,.6,0,0,0,0,0,0,0,0,0,0,0,0,.8,0,1.6,0,2.4.3.8.3,1.4.8,2,1.4,1.1,1.4,2,3,2.6,4.6.1.3.6.2.5-.1.9-2.6.3-5.6-1.4-7.7Z"/>
      <path class="st12" d="M95,32.4c.1.2.4.1.5,0,.1,0,.3-.2.2-.3-.1-.8.2-1.6.8-2.1.6-.6,1.4-.9,2.2-1.2.9-.3,1.8-.5,2.8-.6.9-.2,1.8-.2,2.8,0,.9.2,1.7.5,2.4,1.2.2.2.6,0,.5-.3-.6-1.7-1.8-3.2-3.3-4.1-1.6-1-3.5-1.4-5.4-1.1-.9.1-1.7.4-2.5.8.6-1.4,1.9-2.4,3.4-2.7.2,0,.3-.4,0-.5-1.7-.9-3.8,0-4.9,1.5-1.2,1.7-1.3,4.1-.9,6.1.3,1.2.8,2.4,1.5,3.5Z"/>
      <path class="st12" d="M119.6,53.5c0-4.3,0-8.5-.3-12.8-.3-4.1-1-8.2-2.3-12-.4-1.3-1-2.6-1.5-3.9-.1-.5-.2-.9-.3-1.4,0-.2-.3-.3-.4-.1-.1-.2-.3-.5-.4-.7-.2-.3-.6,0-.5.2,0,.3.2.6.3.8-.4-.5-.9-1-1.4-1.4-.3-.2-.7.2-.4.4,1.8,1.5,3,3.8,3.3,6.2,0,.5,0,.9,0,1.4-.5-.4-1-.7-1.7-.7-.2,0-.3.2-.3.4.5,2.7,1.1,5.3,1.6,8-.1,0-.2,0-.4,0-.2,0-.3.2-.3.4l1.4,5.5c-.7-.9-1.7-1.5-2.7-1.9-.3-.1-.4.3-.3.5,2.9,3.6,3.8,8.3,4,12.8.2,4.7-.2,9.5.4,14.2,0,0,0,0-.1.2-.6,2.8-.5,5.8.3,8.6.2.8.5,1.5.9,2.3.1.2.5.1.5-.1-.1-1.2-.1-2.5.1-3.7.5,1.3,1.1,2.5,2,3.6.2.2.5,0,.5-.3,0-.1,0-.3,0-.4,0,0,.2,0,.3,0,.1,0,.2.2.4.2.2,0,.4,0,.4-.2,0-1.7,0-3.5,0-5.2l1.2,2.7c.1.3.5.1.5-.1,0-4.2-.4-8.4-1.5-12.5-.9-3.6-2.3-7-3.4-10.5Z"/>
      <path class="st12" d="M63.9,27.1c0,.2-.2.5-.3.7-.1.3.3.5.5.3,1.7-1.7,4-2.8,6.3-2.9.4,0,.7,0,1.1.1.3,0,.5-.5.1-.5-.3,0-.6,0-.8-.1,0,0,0,0-.2,0,0,0-.2,0-.3,0-1.2,0-2.3,0-3.5.2.5-.8,1.3-1.3,2.1-1.7,1.2-.5,2.5-.5,3.8-.1.7.2,1.3.4,1.9.7,0,0,0,0,0,.1,0,.3.5.2.5,0,.1-.1.2-.4,0-.5,0,0-.1,0-.2,0-.6-1.2-2-1.6-3.3-1.7-1.4,0-2.7.2-4,.5,1.4-1.5,3.1-2.8,4.9-3.7.4,0,.8-.2,1.2-.3.8-.2,1.6-.3,2.5-.3.4,0,.4-.5,0-.6-3-.2-6.1.6-8.7,2.2-.4.3-.8.5-1.2.8.1-.2,0-.5-.3-.4,0,0,0,0-.1,0,0,0-.1,0-.2,0-2.5,1-5.1,1.4-7.8,1.2-.4,0-.4.5,0,.6h2c-1.7,1.1-3.7,1.8-5.6,2-.3,0-.4.6,0,.6,1.1,0,2.1,0,3.2,0-3.5,3-8.9,3.3-11.6,7.4-.7,1.1-1.2,2.3-1.1,3.7,0,.3.4.4.5.1,1.6-2.2,3.7-3.9,6.1-5-.6.6-1.1,1.3-1.5,2,0,0-.1,0-.1.1-.3.6-.6,1.2-.7,1.9,0,.2-.1.3-.1.5,0,0,0,.1,0,.2,0,.7,0,1.4,0,2.1,0,.3.5.3.5,0,.2-1.6.9-3,1.9-4.2.2-.2.4-.4.6-.7.1-.1.3-.2.4-.4,0,0,0,0,0,.1,0,.3.3.4.5.2.2-.2.4-.4.6-.6,0,.4,0,.7,0,1.1,0,.3.4.4.5.1.5-.7,1-1.4,1.5-2.1-.1,2.3-.2,4.7-.3,7,0,.3.4.4.5,0,.2-.6.4-1.2.6-1.8-.4,3.9-.6,7.8-.7,11.7,0,.7,0,1.5,0,2.2-.2-.7-.4-1.3-.6-2,0-.3-.5-.3-.5,0-.5,1.7-.6,3.5-.5,5.3,0,0,0,.1,0,.2,0,0,0,0,0,0,.3,1.9.6,3.8,1,5.7.2.9.3,1.8.4,2.7,0,.5,0,.9,0,1.4,0,0,0,.3,0,.4,0,0,0,0,0,0-.2-.4-.4-.8-.5-1.2,0-.2,0-.4-.1-.5,0-.4-.2-.7-.3-1.1-.1-.8-.1-1.6,0-2.4,0-.4-.5-.5-.5-.2,0,.1,0,.2,0,.4-.1-.8-.2-1.5-.3-2.3-.2-1.9-.4-3.8-.4-5.7,0-.7,0-1.3,0-2,0-.2,0-.4,0-.6,0,0,0-.1,0-.2,0-.2,0-.3,0-.5,0-.4-.5-.4-.6,0,0,.4,0,.8,0,1.2-.1,1.1-.2,2.2-.3,3.4-.1-1-.2-1.9-.3-2.9,0-.2,0-.5,0-.7,0-.1,0-.2-.2-.3-.1-1-.2-1.9-.3-2.9,0-.4-.6-.4-.6,0,.1,1.3.3,2.6.4,3.9-.2,1.4-.4,2.8-.5,4.1,0-.2-.1-.4-.2-.7,0-.3-.5-.3-.5,0,0,.3-.1.5-.2.8v-.3c-.2-.2-.6-.2-.6,0l-.2.9c-.2-.3-.5-.6-.7-.9-.1-.2-.4,0-.5.1-.1.3-.2.7-.4,1-.7-3-.9-6.1-.4-9.1,0-.4-.4-.5-.5-.2l-1.8,4.9c-.1-.3-.3-.7-.4-1-.1-.3-.5-.1-.5.1,0,.1-.3.1-.4,0,0,0,0-.1,0-.1-.5-1.7-.6-3.4-.5-5.1,0,0,0,0,0,0,0-.1,0-.2,0-.3,0-.2-.4-.2-.5,0,0,0,0,0,0,0-.5.6-.9,1.3-1,2.1,0,.1-.1.3-.2.4,0,0,0,.2,0,.3.3,1.5.8,2.9,1.5,4.3.1.7.4,1.4.8,2,.7,1.2,1.5,2.3,2.2,3.5,1.5,2.3,3,4.7,4.6,7l1.4,2.1c.3.8.5,1.7.4,2.6,0,.3.3.4.5.2.4-.4.7-.8,1-1.2,0,0,.2-.2.3-.3,0,0,0,0,0,0,0,.6,0,1.1-.2,1.7,0,.3.3.5.5.3.2-.2.4-.5.5-.7,0,.6.2,1.2.4,1.8,0,.2,0,.4,0,.5,0,0,0,0,0,0,0,0,0,0,0,0,0,0,0,0,0,.1,0,0,0,.1,0,.2-.2.2.2.6.4.4.6-.6.6-1.4.6-2.2,0-.3.1-.6.3-.9,0,.5,0,.9,0,1.4,0,.8,0,1.7-.5,2.4-.2.3.2.5.4.4.5-.2.8-.7,1-1.2.2,1.5,0,3-.7,4.3,0,0,0,0,0,0,0-.1,0-.3,0-.4,0-.2,0-.4.1-.6.1-.4.2-.9,0-1.3,0-.3-.5-.3-.5,0-.2.9-.7,1.7-1.4,2.2-.2.1-.4.3-.6.4-.2,0-.5.1-.6.3-.2.2-.2.6,0,.7.3.1.5,0,.8-.2.3-.2.6-.4.9-.6,0,.4,0,.9.1,1.3,0,.2,0,.5,0,.7,0,.2.3.3.5.1,1.2-1.1,2.1-2.5,2.5-4.1.4-1.8,0-3.6,0-5.4,0-.6,0-1.2,0-1.8.1-.4.2-.8.4-1.2,0,0,0,0,0,0,0,0,0-.1,0-.2,0-.3,0-.7,0-1,.1-1.3,0-2.6,0-3.9-.2-3-.3-6.1-.3-9.1,0-3.1.1-6.2.3-9.3.1-1.5.2-3,.4-4.5.1-1.5.3-3,.5-4.4.3-1.5.7-2.9,1.6-4.1.7-.9,1.7-1.6,2.8-1.9Z"/>
      <path class="st12" d="M103.7,51.5c-1-.5-2.1-.9-3.2-1.2-.3,0-.5.4-.2.5.8.5,1.4,1.2,1.7,2-.5,0-.9-.2-1.3-.4-.2-.1-.3-.2-.5-.4-.6-.4-1.2-.7-1.9-.8-1-.6-1.9-1.4-2.6-2.3-.2-.3-.6.1-.4.4.7.8,1.5,1.6,2.4,2.2,0,.1,0,.2.2.2,0,0,.1,0,.2,0,.7.5,1.5.9,2.4,1.1.2.2.5.4.7.7.9,1,1.4,2.4,1.5,3.8,0,.8-.1,1.6-.4,2.4,0,.3.3.5.5.3.9-1.2,1.8-2.4,2.7-3.6-1.3,3-3.7,5.4-6.5,7-.8.4-1.7.8-2.6,1.1-.2,0-.2.2-.2.4.5,1.1,1,2.2,1.5,3.3-.5.2-1,.5-1.4.7,0,0,0,0,0,0-.3,0-.6.2-.8.5-.2.2,0,.6.3.4.2-.1.5-.2.7-.4.3,0,.6,0,.9.3.7.4.8,1.3.7,2-.1.9-.6,1.7-1,2.5-.4.7-.9,1.4-1.4,2-2,2.5-4.8,4.4-7.8,5.5-3.6,1.3-7.6,1.5-11.4,1.1-2.9-.4-6.7-1.2-8-4.3-.6-1.6-.5-3.5-.2-5.2.3-2,.7-4,1.1-6,0-.5.2-1,.3-1.6,0-.2,0-.4-.3-.4-2.5.1-4.9-1.6-5.9-4-.3-.7-.4-1.4-.4-2.1,0,0,0,0,0-.1,0,0,0,0,0,0,.2-.3-.2-.7-.4-.4-.9,1-1.2,2.4-1.2,3.8,0,1.6.6,3,1.1,4.5.5,1.4,1,2.9,1.1,4.5.1,1.5,0,3-.2,4.4-.3,1.6-.9,3.2-1.8,4.6-.2.3.2.6.4.3.5-.6,1-1.2,1.5-1.8l-.4,2.1c0,.3.3.5.5.3l1.6-1.9-.8,6.1c0,.3.4.4.5.1.5-.9,1.1-1.7,1.6-2.6,0,1.5,0,3,0,4.6,0,.3.5.4.5,0,.3-1.2,1-2.2,2-2.9-.1,1-.3,1.9-.4,2.9,0,0,0,.1,0,.2,0,.4.5.5.5.2,0-.2,0-.3,0-.5.1-.7.3-1.3.9-1.7.3-.2.6-.3,1-.1.3.1.5.5.5.8,0,.4,0,.7,0,1.1,0,.5-.1,1-.2,1.5-.1,1-.2,2-.4,3.1,0,.7-.2,1.5-.3,2.2,0,.4-.1.8-.1,1.2,0,.4.5.4.6,0,0-.4,0-.7.1-1.1.4-2.1,1.7-4.1,3.5-5.3-.1,1.6-.2,3.1-.4,4.7,0,.3.5.4.5,0,.3-2,1.2-3.8,2.7-5.1.2,1.6-.2,3.3-1.1,4.7-.2.3-.5.6-.7.9-.2.3.1.7.4.4.3-.3.5-.6.8-1,1.1-1.4,2.3-2.8,3.4-4.3-.3,2.2-1,4.3-2,6.2-.2.3.2.5.4.3,1.4-1.2,2.5-2.7,3.4-4.4,0,0,0,0,0,0,0,.9,0,1.9-.1,2.8,0,.3.4.4.5.1.6-1,1.2-2,1.8-2.9v1.4c-.1.2.1.4.3.2,1.6-1,2.7-2.6,3.4-4.3,0,1.1-.2,2.3-.4,3.4,0,.3.3.5.5.3,1.2-1.4,2.2-3.1,2.8-4.9,0,0,0-.2.1-.3,0,.9,0,1.8,0,2.7,0,.3.4.4.5.1.5-.9,1-1.7,1.5-2.6.2-.2.3-.5.5-.7,0,2.3.5,4.6,1.6,6.6.2.3.6,0,.5-.2-.6-2.7-.5-5.5.4-8.2,0,0,0,0,0,0l.5,2.7c0,.3.5.3.5,0,.3-2,1.3-3.8,2.7-5.2.1,1.1.3,2.2.4,3.3,0,.3.4.4.5,0,.5-1.4,1.1-2.8,1.6-4.2,0,0,0,0,0,0,.9-.3,1.6-.9,2.2-1.6,1.3-1.6,1.7-3.7,2.1-5.7.4-2.4.7-4.7,1-7.1.2-2,.5-4.1.5-6.1,0-1.7-.4-3.3-1.3-4.7,1.5,1.7,2.2,4.1,1.8,6.3,0,.3.3.5.5.2.6-1.1.8-2.4.7-3.6.4.4.9.8,1.3,1.3.2.2.5,0,.5-.3-1.1-4-4-7.5-7.6-9.3Z"/>
      <path class="st12" d="M81.6,35c.1,0,.2,0,.3-.1,0,0,0-.1.1-.2.1,0,.3,0,.4-.2,0,0,0,0,0-.1,0,.2,0,.4,0,.6,0,.1,0,.3.2.3.4,0,.7-.2.9-.6,0,0,.2-.4.3-.4,0,0,0,.2,0,.3,0,0,0,0,0,0,0,0,0,0,0,0,0,0,0,0,0,0,0,.3.5.4.5,0,0-.3.2-.6.5-.7.3-.1.6,0,.8.2.1.2.5,0,.5-.2,0-.5-.1-1-.2-1.5,0-.1,0-.2-.2-.3-.3,0-.6-.4-.6-.8,0-.3-.5-.4-.5,0,0,0,0,0,0,.1-.4-.9-.8-1.9-1.2-2.8-.1-.3-.5-.1-.5.1,0,.2,0,.5,0,.7-.3,1.7-.9,3.4-1.7,5-.1.3.2.6.4.3Z"/>
      <path class="st12" d="M92.2,37.5c1.8.8,3.2,2.3,4,4.2,0,.1.2.2.3.1,0,.4,0,.9,0,1.3,0,.3.5.4.5,0,.1-.7.1-1.3,0-2,.1,0,.2-.2.1-.4,0-.1-.1-.2-.2-.3,0-.2,0-.4,0-.6.6.3,1.2.7,1.8,1,.3.2.6-.3.3-.5-.1,0-.3-.2-.4-.3,0,0,0,0,0-.1-.5-1.1-1.2-2-1.9-2.9-.2-.2-.5,0-.5.3,0,.1,0,.3.1.4-.5-.3-1-.5-1.5-.7,0,0,0,0-.1,0-.3-.2-.6-.4-1-.5-.3,0-.5.4-.2.5.2.1.4.3.6.5-.4-.3-.9-.5-1.3-.8-.1,0-.2,0-.3,0-.3,0-.5.4-.2.5Z"/>
      <path class="st12" d="M142.8,33.5c-.1-.3-.5,0-.5.2,0,.5,0,1-.1,1.5-.6-1.3-1.4-2.5-2.5-3.4-.5-.4-1.1-.8-1.7-1.1-.3-.1-.6.2-.3.4,1.3,1.1,2.1,2.6,2.6,4.3.5,1.9.5,3.9.3,5.9,0,.6-.1,1.2-.2,1.7,0,.4-.1.9-.3,1.3,0-.1,0-.3-.1-.4,0-.2-.5-.3-.5,0-.8,3.6-2.4,7.1-4.6,10-.3.4-.7.9-1,1.3.3-.9.7-1.8,1-2.8.1-.3-.4-.5-.5-.2-.9,1.7-1.7,3.6-2.3,5.4,0-.5,0-1,0-1.5,0-.4-.6-.4-.6,0,0,.8,0,1.7-.3,2.4,0-.3,0-.7,0-1,0-.6.1-1.1.2-1.7.1-1.1.2-2.3.4-3.4,0-.4-.5-.4-.6,0-.1,1.2-.3,2.5-.4,3.7,0,0-.2.1-.2.3,0,.4,0,.8,0,1.2v.9c-.3,1.7-.6,3.5-.3,5.3.1.9.4,1.8.9,2.5.1.2.4.2.5,0,.8-3.2,1.7-6.4,3.5-9.2,1.7-2.7,3.9-5.1,4.8-8.2.3-.8.4-1.7.4-2.6,0,0,0,0,0,0,.1-.1.3-.1.5,0,0,.2,0,.3,0,.5,0,.2.2.3.3.3,0,.2.2.4.2.5.1.2.4.1.5,0,.6-1.5,1-3.2,1.1-4.8,0,0,0,0,0-.1.1-1.6.9-3,1-4.5.1-1.6-.5-3.1-1.2-4.6Z"/>
    </g>
    <path class="st16" d="M86,44.9c-1.3-1.3-3.3-1.6-5.1-1.9-2-.4-4.1-.4-6.1-.1-2,.3-4,.8-5.9,1.7-1.7.8-3.1,1.4-3.2,3.5,0,.5,0,.7,0,1.1s0,.7.2,1.2c.4,1.4.6,2.3,1.4,3.5,1.1,1.6,2.6,2.8,4.4,3.6,3.9,1.6,8.2.2,11.2-2.5.7-.6,1.4-1.4,2-2.1.7-.8,1.3-1.7,1.7-2.6.8-1.8.8-3.8-.6-5.3Z"/>
    <g>
      <path class="st3" d="M145.1,32.4c.9-.3,1.8-1,1.9-2,0-.2-.2-.3-.4-.3-1.1.2-2.1-.3-2.9-1-.7-.6-1.4-1.4-2.1-2.1,1.4-.4,2.7-1.2,4.1-1.4.2,0,.3-.4,0-.5-1.4-.8-3.1-.6-4.6-.7-1.7,0-3.3-.5-4.8-1.2-3.1-1.4-5.8-3.7-9.1-4.8-1-.4-2.1-.6-3.2-.6-.3-.4-.6-.8-1-1,.7-.2,1.4-.3,2.1-.1.3.1.4-.3.2-.5-2-1.6-4.7-2.4-7.2-2.2.9-1.2,1.7-2.4,2.6-3.6.1-.2,0-.4-.2-.4-1.7,0-3.3.8-4.7,1.6-.7.4-1.4.8-2.1,1.2.9-.8,1.5-1.9,1.6-3.2,0-.3-.3-.4-.5-.2-1,1-2.5,1-3.7.7-.7-.2-1.4-.5-2.1-.7-.8-.3-1.5-.6-2.3-.9-.5-.2-1-.4-1.5-.6,1.3-.6,2.4-1.5,3.3-2.6.1-.2,0-.6-.3-.5-2.5,1-5.4-.2-8,.6.5-.4,1-.8,1.6-.9,0,0,.1,0,.2,0,0,0,.1,0,.2,0,0,0,0,0,0,0,.4,0,.4-.5,0-.6-.1,0-.3,0-.4,0-3.1-.3-6.2.8-8.5,2.8-.5.4-.9.8-1.3,1.3,0-.8.1-1.7.2-2.5,0-.3-.3-.3-.4-.2,0,0-.2,0-.3,0-.8.7-1.7,1.5-2.5,2.2.1-.5.2-1,.2-1.5,0-.4-.5-.4-.6,0,0,0-.2,0-.3,0-.6.6-1.2,1.2-1.8,1.9.1-.7.3-1.4.4-2.1,0,0,0,0,0-.1,0,0,0,0,0,0,0-.2,0-.3-.2-.3-.1,0-.3,0-.3.2,0,0,0,.1,0,.2-.8,1.1-1.7,2.2-2.7,3.1.5-1,.8-2,1.1-3,0-.1,0-.2-.1-.3,0-.2-.2-.3-.4-.2-1.5,1-2.8,2.3-3.9,3.7-.4-.3-.9-.4-1.4-.2-.6.2-.9.7-1.2,1.3-.3.6-.6,1.3-.8,2,0,0-.1,0-.2,0-3.1,1.1-6,2.7-8.7,4.7-.6.5-1.3,1-1.9,1.5-2.3-1.5-4.9-2.3-7.5-2.6,0,0,0,0,0,0-.3-.2-.6.3-.3.5,0,0,0,0,.2.1.7.4,1.2,1.2,1.4,2-1.3-.2-2.7-.4-4-.6-.2,0-.4.2-.3.4.2.4.3.7.5,1.1-1.2,0-2.3.2-3.5.3-.2,0-.4.3-.2.5.1.1.3.3.4.4-1.1.5-2.1,1.1-3.2,1.6-.2,0-.2.3,0,.4.7.6,1.5,1,2.3,1.1-2.9,1-5.9,1.6-9,1.6-.2,0-.4.2-.2.4.8,1.2,2.1,2,3.5,2.2-1.6,1.8-3.8,3-6.2,3.4-.7.1-1.5.1-2.2,0-.3,0-.3.4,0,.6,1.2.5,2.3,1,3.5,1.5-2.2,1.4-3.8,3.7-4.4,6.3-.2.8-.2,1.6-.2,2.4,0,.3.3.4.5.2.9-.8,1.9-1.5,2.8-2.3-.9,2.3-1.2,4.9-.8,7.4,0,.3.4.2.5,0,.2-.3.5-.7.7-1,1,4.2,2.8,8.1,5.2,11.6.7,1,1.5,2,2.3,3,0,0,0,0,0,0,1.6,2.7,2.7,5.7,3.1,8.8.1.9.2,1.9.2,2.8,0,0,0,.1,0,.2,0,0,0,0,.1.1.2,0,.3,0,.3-.2.2-.6.5-1.3.7-1.9.6,2,.6,4.2.1,6.3,0,0,0,.1,0,.1,0,0,0,0,0,0-.1,0-.2.2-.2.3,0,.1.2.3.3.2.7-.3,1.4-.8,1.8-1.4,0,.6,0,1.2,0,1.9,0,0,0,.1,0,.2,0,0-.1,0-.2,0-.1,0-.2.3,0,.4,0,.1.2.2.4.1.6-.3,1.2-.8,1.6-1.4-.2,2.3-1.2,4.5-2.7,6.2,0,0,0,0,0,.1-.2.2,0,.6.3.5,1.3-.4,2.5-1.2,3.4-2.3-.4,1.4-1.5,2.5-2.9,2.9,0,0-.1,0-.2.1-.3,0-.4.5-.1.6.8.2,1.7.2,2.5.1-1.1.9-2.3,1.8-3.6,2.5,0,0,0,0,0,0-.3-.2-.6.2-.4.4.8.6,1.8.8,2.8.7.7,0,1.3-.3,1.9-.6-.9,1.1-2.1,2.1-3.4,2.7,0,0,0,0,0,0,0,0-.2,0-.2,0-.3-.1-.5.4-.1.5,1.8.8,3.9.7,5.7,0-.3.7-.6,1.4-.9,2.1-.3.7-.6,1.5-1,2.2-.2,0-.4.3-.2.4,0,.2.3.4.5.2,2.2.7,4.6.8,6.8.4-.3,1.2-.9,2.4-1.6,3.4,0,0,0,0,0,0-.3.1-.1.6.2.5,1.6-.4,3.1-1.4,4-2.8.4,1.7.5,3.4.3,5.1,0,0,0,.1,0,.2,0,0,0,0,0,0-.3,0-.2.6.1.5,1.2-.3,2.4-.6,3.5-1.1.7-.3,1.3-.6,1.8-1.1.2,1.6.9,3,1.9,4.2,1.5,1.8,3.5,2.9,5.6,3.7.7.3,1.4.5,2.1.7,0,0,.1,0,.2,0,.5.2,1,.3,1.5.4,0,0,.2,0,.3,0,0,0,.2,0,.2,0,0,0,0,0,0,0,0,0,0,0,0,0,0,0,.2-.2.2-.3,0-.2-.1-.3-.3-.3,0,0-.2,0-.2,0-.6-.2-1.2-.3-1.7-.5-1.4-.5-2.6-1.4-3.6-2.4,2.1,1.2,4.4,2.1,6.8,2.5.2,0,.3,0,.3-.2.7.4,1.4.7,2.1,1,.5.2,2,.6,2-.4,0-.3-.1-.5-.2-.8,0-.2-.1-.3-.2-.5,1.3-.3,2.5-1.1,3.3-2.2.8-1.2,1.2-2.6,1-4,.4.6,1.1,1.1,1.8,1.4,1.2.6,2.4,1,3.7,1.3.3,0,.4-.3.3-.4,0-.1,0-.4-.1-.5-1.9-.7-3.3-2.4-3.9-4.4.7.4,1.5.7,2.3.7.2.2.5,0,.5-.2,0-.1,0-.3-.1-.4-.3-.6-.5-1.3-.5-2,.9,2,2.7,3.6,4.8,4.2.8.2,1.6.3,2.4.3,0,0,0,0,0,0,0,0,.1,0,.2.1.3.2.6-.3.3-.5-1.7-1.1-2.8-3-2.9-5.1,1,.9,2.4,1.4,3.7,1.2.2,0,.5,0,.4-.3-.1-.4-.2-.8-.3-1.2,1,1.3,2.5,2.2,4.1,2.7.8.2,1.7.3,2.5.2.2,0,.3-.2.3-.4,0-.1,0-.3-.1-.4-.4-.2-.7-.5-1-.8.6.2,1.2.3,1.8.3,0,0,0,0,0,0,0,0,0,0,0,0,0,.1.3.1.4,0,.1-.1,0-.3,0-.4-.3-.4-.7-.8-1-1.2.7.2,1.5.3,2.3.2,0,0,0,0,0,0,0,0,.2,0,.3,0,0,0,.1-.2.1-.3.4.2.7.3,1.1.5.3,0,.4-.3.3-.5-.8-1-1.6-1.9-1.9-3.2-.2-.6-.3-1.3-.4-1.9,0-.3-.1-.6-.2-.9.3.3.6.7.9,1,.2.2.5.4.8.6.2.2.5.4.8.4.4,0,.4-.4.4-.8,0-.4-.1-.8-.2-1.2-.1-.7-.2-1.5-.4-2.2.3.5.5,1.1.7,1.7,0,.3.6.2.5,0-.1-1.1.2-2.1.6-3.1.2.6.5,1,1,1.4.2.2.5-.2.4-.4-.4-.7-.1-1.4,0-2.1.2-.6.3-1.3.3-1.9,0-.5-.1-1-.3-1.4,1.1.7,2.4,1.1,3.7,1,.2,0,.3-.2.3-.4,0-.1.1-.3,0-.4-.7-.8-1.4-1.7-2-2.7.6-1.6.8-3.2.7-4.9.8,1.3,2.1,2.3,3.6,2.6.3,0,.5-.5.1-.5,0,0,0,0,0,0-1.9-2.6-2.8-5.9-2.7-9.1,0-.8.1-1.5.3-2.3,2.4,2.8,5.6,4.8,9.1,5.6.4.1.9.2,1.3.3.3,0,.5-.3.2-.5-1.6-1.1-2.8-2.7-3.6-4.5.5-3.2,1.5-6.4,3.1-9.2,1.6-2.9,3.8-5.5,4.9-8.7.4-1.2.6-2.4.7-3.6.3,1,.4,2,.2,3,0,.3.3.5.5.2,1.7-2.8,2.5-6.1,2.4-9.3,0-.3,0-.6,0-.9.9.2,1.7.9,2,1.9,0,.3.5.2.5,0,0-2.6-.7-5.2-2.2-7.3-.2-.2-.3-.5-.5-.7.7.2,1.3.3,2,0ZM142.3,31.5s0,0-.1-.1c0,0-.2,0-.3,0,0,0-.1,0-.2,0-.3-.1-.5.4-.1.5.1,0,.3.1.4.2,1.9,1.9,3.1,4.5,3.3,7.3-.5-.6-1.1-1-1.8-1.2,0,0-.1,0-.2,0,0-.4-.1-.9-.2-1.3,0-.4-.6-.2-.5.2.6,3.1.2,6.3-.9,9.3-.2.4-.4.9-.6,1.3,0-1.3-.4-2.5-1-3.6,0,0,0,0,0,0,0-.1,0-.2-.2-.2-.2-.3-.6,0-.5.3,0,0,0,.1.1.2.6,3.2-.9,6.4-2.6,9-.9,1.4-1.8,2.7-2.7,4.2-.8,1.4-1.5,2.9-2.1,4.4-.5,1.4-.9,2.8-1.1,4.3-.1-.4-.2-.8-.3-1.2-.1-.8-.2-1.5-.2-2.3,0-.4-.5-.4-.6,0,0,1.6.2,3.2.9,4.7,0,0,0,0,0,.1.5,1.2,1.2,2.2,2,3.1.3.3.5.6.8.8-3.2-.8-6.2-2.5-8.5-4.9-2.8-3-4.3-6.9-5-10.9-.8-4.4-.7-8.9-.7-13.4,0-4.4-.2-9-1.6-13.2-.1-.4-.3-.9-.5-1.3-.6-1.8-1.3-3.6-2.1-5.4-.4-.8-.7-1.6-1.2-2.3-.2-.3-.6,0-.5.3.6,1.1,1.1,2.2,1.6,3.3-1-1.4-2.1-2.6-3.4-3.7-.4-.3-.7-.5-1.1-.7-.3-.2-.6.3-.3.5,3,1.9,5.1,4.9,6.5,8.2,0,.2.2.5.2.7.3.8.5,1.6.7,2.5,0,0,0,.1.1.2.8,3.3,1,6.7,1,10.1,0,4.5-.1,9,.6,13.5.6,3.9,1.9,7.8,4.4,11-.8,3.2-.5,6.7.9,9.8.3.6.6,1.3,1,1.8-1.6-.7-2.7-2.2-3-3.9,0-.4-.6-.2-.5.2,0,0,0,.1,0,.2,0,0,0,.1,0,.2.4,1.9.3,4-.2,5.8-.8-1.4-1.5-3-2.1-4.5-.1-.3-.6-.2-.5.2.6,1.8,1.4,3.5,2.4,5.1,0,0,0,0,0,0,0,.2.1.4.3.3.5.9,1.1,1.7,1.8,2.4-1.7,0-3.3-.7-4.3-2,0,0,0,0-.1,0,0,0-.1-.1-.2-.2-.3-.2-.7.2-.4.4.9.8,1.4,2,1.4,3.3,0,.9-.5,1.9-.5,2.8-.2-.3-.3-.7-.4-1.1,0-.1,0-.2,0-.3.2-1.1.1-2.4-.7-3.3-.2-.5-.4-.9-.8-1.2-.2-.3-.6.1-.4.4.2.2.4.5.6.8,0,0,0,.2,0,.3,0,0,0,0,0,0,.3.8.3,1.6.4,2.4,0,.3,0,.5.1.8-.2.9-.6,1.7-.8,2.6-.7-1.4-1.8-2.6-3.2-3.3-.3-.2-.6.3-.3.5.9.5,1.7,1.1,2.3,1.9,0,0-.2.2-.1.3.1.9.3,1.7.4,2.6,0,.4.2.9.2,1.3,0,0-.1,0-.2,0-.1,0-.3-.2-.4-.3-1.1-.8-2-2-2.5-3.2-.1-.3-.7-.2-.5.2.1.4.3.7.5,1.1,0,0,0,0,0,0,.1.7.2,1.4.4,2.1.1.7.2,1.4.4,2,.3.9.7,1.7,1.3,2.4-1.3-.6-2.6-1.5-3.5-2.7-.2-.3-.6.1-.4.4.6.7,1.2,1.2,1.9,1.7,0,0,0,0,0,0,0,.1,0,.3.2.3,0,0,.1,0,.2,0,0,0,0,0,0,0,0,0,0,0,0,0,0,0,0,0,0,0,0,0,0,0,0,0,0,0,0,0,0,0,0,0,0,0,0,0,0,0,0,0,.1,0,0,0,0,0,0,0,0,0,0,0,0,0,0,0,0,0,0,0,0,0,0,0,0,0,0,0,0,0,0,0,0,0,0,0,0,0,0,0,0,0,0,0-1,0-1.9-.1-2.8-.6-.3-.2-.6.3-.3.5,0,0,0,0,0,0,0,0,0,0,0,.1.4.5.7.9,1.1,1.4-.9,0-1.7-.4-2.4-.9-.2-.2-.3-.4-.4-.6-.2-.3-.6,0-.5.3,0,0,0,.2,0,.3.2.2.3.3.5.4.5.7,1.1,1.3,1.8,1.8-2.6,0-5.1-1.4-6.4-3.8,0-.1-.1-.2-.2-.3,0-.3-.1-.5-.2-.8,0-.1-.1-.2-.2-.2,0-.3-.2-.6-.2-.8,0-.4-.6-.2-.5.2.1.7.4,1.3.7,1.9.2.8.5,1.7.7,2.5-1.3.1-2.7-.5-3.5-1.5,0-.1,0-.2-.2-.2,0,0,0,0,0,0-.2-.3-.7,0-.5.3,0,0,0,0,0,.1-.1,2.1.8,4.2,2.3,5.6-2.4-.1-4.5-1.5-5.7-3.6-.3-.6-.6-1.3-.7-2,0-.4-.6-.2-.5.2,0,0,0,.2,0,.2,0,0,0,0,0,0-.2,1.1,0,2.3.3,3.3-.8,0-1.6-.4-2.3-1-.1,0-.3-.1-.4,0,0,0,0,.1,0,.2,0,0,0,.1,0,.2.4,2.1,1.8,3.9,3.5,4.9-.8-.2-1.6-.5-2.3-.9-.9-.4-2.1-1.1-2.2-2.3,0-.4-.6-.4-.6,0,0,.2,0,.4.1.6-.2,0-.3.1-.3.4.3,1.4,0,2.9-.9,4-.7,1-1.9,1.7-3.1,2-.2-.5-.4-1.1-.7-1.6,0-.1-.2-.2-.3-.2-.1,0-.3.2-.2.3.4.9.7,1.8,1.1,2.7,0,.1.2.4.2.5,0,.1-.3,0-.4,0-.3,0-.7-.2-1-.3-1.4-.4-2.6-1.3-3.6-2.3-.5-.5-.9-1.1-1.2-1.8,0,0,0,0,0-.1,0-.2-.2-.3-.3-.3-.2,0-.4.2-.3.4,0,0,0,.1,0,.2.2,1.1.7,2.1,1.6,2.8-2.3-.6-4.5-1.6-6.5-3,0-.1-.1-.2-.2-.3-.2-.3-.6,0-.5.2,0,.1,0,.3,0,.4,0,0,.2.1.2.2.6.9,1.3,1.7,2.2,2.3-.6-.2-1.1-.5-1.6-.8-1.8-1-3.4-2.6-4.2-4.6-.3-.8-.5-1.7-.5-2.5,0,0,0,0,0,0,0,0,0-.1,0-.2,0-.3,0-.5,0-.8,0-.4-.5-.5-.5-.2,0,.4,0,.7-.1,1.1-.4.9-1.4,1.4-2.2,1.7-.9.3-1.7.6-2.6.8.3-2.1.1-4.2-.5-6.1-.1-.3-.6-.2-.5.2,0,0,0,0,0,.1-.7,1.3-1.8,2.3-3.1,2.8.7-1,1.2-2.2,1.5-3.4,0,0,0-.2,0-.3,0-.2,0-.4.1-.6,0-.4-.5-.5-.5-.2,0,.2,0,.4-.1.6-2.2.4-4.5.3-6.7-.3.4-.6.6-1.4.9-2,.4-.9.8-1.8,1.1-2.7,0-.1,0-.3,0-.4-.1,0-.3,0-.4,0,0,0-.1,0-.2,0-1.4.7-3.1.9-4.6.5,1.5-.8,2.8-2.1,3.7-3.5,0,0,0,0,.1,0,.1,0,.2-.2.1-.3,0,0,0,0,0,0,.2-.3-.3-.6-.5-.3,0,.1-.1.2-.2.3-1.4.7-3.1,1.5-4.6.8,1.5-.9,2.9-2,4.3-3.2,0,0,0,0,0,0,0,0,.2,0,.2-.2,0,0,0,0,0,0,.3-.2-.1-.6-.4-.4,0,0,0,0-.1.1-.7.2-1.5.3-2.3.2,1.6-.8,2.7-2.4,2.7-4.3,0-.4-.5-.4-.6,0,0,0,0,.1,0,.2,0,0-.2,0-.2.1-.6,1-1.5,1.8-2.6,2.2,1.4-1.9,2.3-4.2,2.4-6.5,0,0,.2,0,.2-.2.7-1.9,1-3.9.8-5.9.1-.2.3-.4.4-.5,0-.1.1-.3,0-.4-.1,0-.3-.1-.4,0,0,0,0,.1-.1.2,0,0,0,0,0-.1,0-.1,0-.2,0-.3,0,0,0-.1,0-.2.2-.2.3-.5.5-.7,0-.1,0-.3,0-.4-.1,0-.3,0-.4.1,0,0-.1.2-.2.3.7-3.1,1-6.3,1-9.5,0-1,0-2,0-3,0-.4-.6-.4-.6,0,0,1,0,1.9,0,2.9-.6-5.4-.7-10.8-.3-16.2.2-2.6.5-5.3.9-7.9.4-2.3,1-4.7,1.8-6.9.9-2.4,2.2-4.8,3.9-6.7.2-.3-.2-.7-.4-.4-.7.8-1.3,1.7-1.9,2.6,0,0-.2,0-.3,0-2.9,1.6-5.1,4.3-6.1,7.4-.3.9-.5,1.8-.6,2.8,0,.4.5.4.6,0,.4-3.1,2-6.1,4.3-8.2.5-.5,1.1-.9,1.7-1.3-1.7,2.9-2.7,6.2-3.3,9.5-.5,2.6-.8,5.2-1,7.8-.2,2.9-.4,5.7-.3,8.6,0,3.2.2,6.5.6,9.7,0,.3.3.3.5.2,0,2.2-.3,4.4-.6,6.6-.2,1-.4,2-.6,2.9,0,0,0,.1,0,.2,0,.1,0,.3.1.4,0,0,.1,0,.2,0v.9c-.2.1-.1.3,0,.3,0,0,.2,0,.3,0,0,1.5-.2,3-.6,4.4-.1-.2-.5-.1-.5.2,0,0,0,.1,0,.2,0,0-.1,0-.1.2-.2.7-.6,1.2-1.1,1.7,0-.9,0-1.8,0-2.7,0-.4-.6-.4-.6,0,0,0,0,0,0,0-.3.6-.7,1.1-1.3,1.5.5-2.3.4-4.7-.4-6.9,0,0,0,0,0,0,0-.1,0-.3-.2-.3-.2,0-.3,0-.3.2,0,0,0,0,0,0,0,0,0,0,0,0-.2.5-.4.9-.5,1.4-.2-2.9-.9-5.8-2.2-8.4-.4-.9-.9-1.7-1.4-2.5,0,0-.1-.1-.2-.1-2.7-3.2-4.7-7-6.1-11-.4-1.2-.7-2.4-1-3.6,0-.3-.4-.3-.5,0-.2.3-.4.6-.7,1-.3-2.5.2-5.1,1.3-7.4.1-.3-.2-.5-.4-.3-1.1.9-2.2,1.8-3.2,2.7,0-2.5,1.2-5,3-6.7.6-.5,1.2-1,1.8-1.3.2-.1.1-.4,0-.5-.9-.4-1.8-.8-2.8-1.2,2.2-.1,4.4-1,6.2-2.4.6-.5,1.2-1.1,1.6-1.7.1-.2,0-.5-.2-.5-1.3,0-2.5-.5-3.3-1.5,3.4-.1,6.8-.8,9.9-2.1.3-.1.3-.6,0-.6-1,0-2.1-.2-2.9-.8,1.1-.5,2.1-1.1,3.2-1.6.2,0,.2-.3,0-.4,0,0-.2-.2-.3-.3,1.1,0,2.2-.2,3.3-.2.2,0,.3-.2.2-.4-.2-.3-.3-.7-.5-1,1.3.2,2.6.4,3.9.6.2,0,.4,0,.4-.3,0-.8-.4-1.6-.9-2.2,2.2.3,4.4,1.2,6.3,2.4,0,.2.3.5.5.3,2.4-2.1,5.2-3.9,8.1-5.3.8-.4,1.6-.7,2.5-1-.1.5-.2.9-.3,1.4,0,.2.1.3.3.3.2,0,.3-.1.3-.3.1-1.1.5-2.3.9-3.3.2-.4.4-.9.8-1.2.3-.2.8-.3,1.1,0-.1.2-.3.4-.4.6-.2.3.3.6.5.3,1.1-1.6,2.4-3,4-4.2-.4,1.3-1,2.5-1.6,3.7-.2.3.3.6.5.3,0,0,0-.1.1-.2,0,0,.1,0,.2,0,1.1-.9,2-1.8,2.9-2.9-.1.6-.2,1.2-.3,1.8,0,0,0,0,0,.1,0,0-.1.1-.2.2,0,.1,0,.3,0,.4.1,0,.3,0,.4-.1.7-1,1.5-1.9,2.4-2.8,0,.6-.3,1.2-.6,1.8,0,0,0,0,0,0-.2.2,0,.5.2.5,0,0,.2,0,.2-.1,0,0,0,0,0,0,1.1-1,2.1-1.9,3.2-2.9,0,.9-.1,1.8-.2,2.8,0,0,0,0,0,0,0,.3.3.5.5.2,1.8-2.4,4.6-4.1,7.6-4.4.3,0,.7,0,1,0-.4.3-.7.6-1.1,1-.7.7-1.6,1.7-2.7,1.3-.3-.1-.5.4-.1.5.8.3,1.6,0,2.3-.6,0,0,.1,0,.2,0,1.2-.9,2.8-1,4.3-.9,1.3,0,2.7.2,4,0-.8.9-1.9,1.5-3,2l-.4-.2c-.3-.1-.4.2-.3.4-.7.2-1.4.3-2.1.4-.4,0-.4.6,0,.6,1,0,1.9-.2,2.8-.6,1.4.6,2.9,1.2,4.3,1.8,1.4.6,2.9,1.1,4.4.9.5,0,1-.3,1.5-.5-.4,1.5-1.7,2.8-3.3,3.1,0,0-.1,0-.2,0,0,0,0,0,0,0-.4,0-.4.6,0,.6,1.7,0,3.2-.9,4.6-1.7,1.3-.8,2.6-1.6,4.2-1.7-.8,1.1-1.6,2.3-2.5,3.4,0,0,0,.1,0,.2,0,0,0,0,0,0-.4,0-.2.6.1.5,2.3-.3,4.6.2,6.6,1.4-.6,0-1.2.2-1.7.4,0,0,0,0-.1,0,0,0,0,0,0,0-.1,0-.3,0-.3.1-.7.2-1.4.2-2.1-.1-.3-.2-.6.3-.3.5.8.5,1.8.4,2.6.2,0,0,0,0,0,0,0,0,0,0,0,0,0,0,.2,0,.2.1,0,0,.2,0,.2.1,0,0,0,0,0,0,0,0,0,0,0,0,0,0,0,0,0,0,.1.1.3.3.4.4,0,0,0,0,0,0-.6,0-1.1,0-1.7.2-.3,0-.2.6.1.5.7-.2,1.3-.2,2-.2,0,0,0,0,.1,0,2.6,0,5.1,1.4,7.3,2.7,2.8,1.7,5.7,3.6,9.1,3.9,1.4.1,3-.1,4.4.3-1,.3-2,.8-3,1.1-.2,0-.4.1-.7.2,0,0,0,0-.1,0-.9.2-1.9.2-2.7-.3-.3-.2-.6.3-.3.5,1,.6,2,.6,3.1.3.8.9,1.7,1.8,2.6,2.5.8.6,1.7,1.1,2.7,1-.2.6-.9,1-1.6,1.2-.8.2-1.7-.1-2.5-.4Z"/>
      <polygon class="st3" points="115 96.6 115 96.6 115 96.6 115 96.6"/>
    </g>
    <g>
      <path class="st9" d="M111.5,36.4c-.8,0-1.6,0-2.3-.5-.7-.4-1.3-1-1.9-1.6-.6-.7-1.2-1.4-1.7-2.1-.5-.7-1-1.3-1.6-1.9-1.1-1.1-2.4-2-4-2.1-1.4-.1-2.8.4-3.6,1.5-.5.7-.7,1.6-.8,2.5,0,.5-.2,1-.4,1.4-.2.3-.4.7-.7.9,0,0,0,0,0,0,0,0,0,0,0,0,0,0,0,0,0,.1,0,0,0,0,0,0,0,0,0,0,0,0,0,0,0,0,0,0,0,0,0,0,0,0,0,0,0,0,0,0,0,0,0,0,0,0,0,0,0,0,0,0,.8.5,1.6,1,2.5,1.4.6.3,1.3.6,2,.8.9.2,1.7.1,2.6,0,.8-.2,1.6-.5,2.2-1.1.6-.6,1.1-1.3,1.3-2.1.5.7,1,1.4,1.7,1.9.6.6,1.4.9,2.2,1.1.8.2,1.6.2,2.4-.1,0,0,0,0,0,0,0,0,0-.3,0-.2ZM103.9,35.6c-.6.6-1.3.9-2.1,1.2-.8.2-1.7.3-2.5.1-.7-.1-1.3-.4-1.9-.7-.8-.4-1.6-.9-2.4-1.4.8-.3,1.2-1.5,1.5-2.2.2-.6.4-1.2.8-1.6.4-.6,1.1-1,1.8-1,.7,0,1.5,0,2.1.3.4.1.7.3,1,.5.4.2.8.5,1.1.8.7.6,1.2,1.3,1.8,2-.2.8-.6,1.5-1.1,2ZM109.1,36.6c-.8-.2-1.4-.5-2-1-1.4-1.2-2.2-3-3.6-4.2-.3-.3-.7-.5-1.1-.8-.3-.2-.6-.4-1-.5-.7-.3-1.4-.3-2.1-.4-.7,0-1.3.2-1.9.6-.4.3-.7.8-.9,1.3-.3.6-.5,1.3-.8,1.9-.1.3-.3.6-.6.8.2-.3.4-.8.5-1.2.1-.4.1-.8.2-1.2,0-.4.1-.8.3-1.2.3-.8.8-1.4,1.5-1.8.6-.4,1.3-.5,2-.5,1.6,0,3,.9,4.1,2,.6.6,1.1,1.2,1.6,1.9.5.7,1.1,1.4,1.7,2.1.6.7,1.3,1.3,2.1,1.8.5.3,1.1.4,1.6.5-.5,0-1,0-1.5-.1Z"/>
      <path class="st9" d="M105.5,55.3c-.6-.5-1.3-1-2.1-1.3-.2,0-.2.2,0,.3.7.3,1.4.7,2,1.2,0,0-.2,0-.2,0-1.4,4.3-5,7.5-9,9-4.8,1.8-10.2,1-14.9-.9-.7-.3-1.4-.6-2-.9-.6-.3-1.1-.6-1.6-1.1-1-1-1.2-2.3-1.3-3.7.3,0,.6,0,.9-.1,0,0,.2,0,.3,0,2.2-.5,4.3-1.7,6-3.3.7-.7,1.4-1.4,1.9-2.2.6-.8,1.1-1.6,1.5-2.6.6-1.8.4-3.8-1-5-.7-.6-1.4-.9-2.2-1.2-.9-.3-1.9-.5-2.8-.7-2-.3-4-.3-6,0-2,.3-3.9.9-5.7,1.7-.8.4-1.7.8-2.3,1.5-.6.7-.9,1.5-1,2.4,0,.5,0,1,0,1.5,0,0,0,0,0,0,0,0,0,0,0,0,.2.8.4,1.6.8,2.3.4.9.9,1.7,1.6,2.5,1.2,1.4,2.8,2.5,4.5,3,1.1.3,2.2.4,3.3.3,0,1.1.3,2.4.9,3.3,0,0,0,.1.1.2,0,0,0,0-.1,0-1.1,1.1-2.4,2-3.8,2.6-1.4.6-2.9.9-4.4.8-.7,0-1.5-.2-2.2-.5-.7-.3-1.3-.8-1.8-1.3-.5-.5-1-1-1.3-1.7-.4-.8-.5-1.7-.6-2.6-.2-2-.1-3.9.3-5.9.2-.9.5-1.9.8-2.8.3-.9.5-1.8.8-2.6.6-1.5,1.4-2.9,2.5-4.1,1.1-1.2,2.4-2.1,3.9-2.7,3.3-1.4,6.8-1.4,10.3-1.2.5,0,1,0,1.4.1.2,0,.2-.3,0-.3-3.7-.4-7.4-.5-11,.7-.1,0-.3,0-.4.1,1.1-1,1.9-2.4,2.2-3.9.2-.9.2-1.7.1-2.6,0,0,0-.1,0-.2,0,0,0,0,0-.1,0-.2-.1-.3-.2-.5-.2-.8-.6-1.6-1-2.3-.7-1.2-1.5-2.3-2.3-3.5,0-.2-.3,0-.2.1.6,1,1.3,1.9,1.9,2.9-.8-.7-1.9-.9-2.9-.5-2.4.8-3.2,3.4-4.5,5.4-.7,1.1-1.6,2.1-2.9,2.5,0,0,0,0,0,.1,0,0,0,0,0,0-.2,0-.2.3,0,.3,1.6-.1,2.9-1.1,3.9-2.3.4.5.7.9,1.2,1.2.7.5,1.5.6,2.3.7,1.5,0,3.1-.4,4-1.7.2-.3.3-.5.4-.8,0,1.2-.4,2.4-1,3.5-.5.9-1.3,1.7-2.2,2.3,0,0,0,0,0,0-1,.5-1.9,1.1-2.7,1.8-1.2,1.1-2.2,2.5-2.9,4-.4.8-.6,1.6-.9,2.5-.3,1-.6,1.9-.9,2.9-.5,2-.8,3.9-.7,6,0,1,.2,2,.4,2.9.2.7.6,1.3,1,1.9.5.6,1.1,1.1,1.7,1.5.6.4,1.3.7,2,.8.8.2,1.6.2,2.3.1-1.8,3.2-2.6,7.2-1.7,10.8.4,1.5,1.1,2.8,2.1,3.8,1,1,2.2,1.6,3.4,2,1.4.5,2.9.7,4.4.9,1.4.2,2.7.2,4.1.1,1.5-.1,3-.3,4.4-.8.7-.3,1.4-.6,2.1-.9.8-.4,1.5-.8,2.3-1.3,2.9-1.9,4.6-5,6.3-7.9.2-.4.4-.8.7-1.1,0-.2-.1-.3-.2-.1-1.7,2.9-3.2,6-5.8,8.1-.7.6-1.4,1-2.1,1.4-.7.4-1.4.8-2.1,1.1-1.3.6-2.7.9-4.1,1.1-1.4.2-2.8.2-4.2.1-1.5-.1-2.9-.4-4.3-.7-1.2-.3-2.5-.7-3.6-1.4-1.2-.8-2.2-2-2.7-3.4-.6-1.6-.8-3.3-.7-5,0-1.9.6-3.8,1.3-5.5.2-.4.4-.9.6-1.3,0,0,0-.1,0-.2.3,0,.7,0,1-.2-.6.9-1,1.9-1.3,2.9-.3,1-.6,2.1-.4,3.1.3,1.2,1.1,2.3,2.1,3,1,.7,2.2.9,3.3,1.1,1.2.2,2.5.3,3.7.2,1.4,0,2.9,0,4.3-.2,2.6-.3,5.3-1.1,7.3-3,1.7-1.6,2.6-3.7,3.4-5.8.1-.3.2-.6.3-.9.5,0,.9-.2,1.3-.3,2.1-.7,4.2-1.8,5.9-3.3,1.7-1.5,3.1-3.3,3.9-5.4.1-.3.2-.5.3-.8,0,0,0,0,0-.1,1.7,1.5,2.6,3.8,2.9,6,.1,1,.1,1.9,0,2.9,0,.2.3.2.3,0,.2-3.3-.5-6.9-3.1-9.2ZM83,53.4c-.6.2-1.3.2-1.9-.2-.5-.3-1-.8-1.2-1.4-.5-1-1.1-3,.5-3.4,1.4-.4,2.4,1.1,3.2,2,.5.5,1,.9,1.7.9.2,0,.3,0,.5,0-.7.9-1.6,1.8-2.7,2.2ZM70,51.2c0-.3-.3-.4-.4-.6-.2-.3-.2-.7,0-1,.2-.6.9-1.3,1.5-1.3.7,0,1,.8,1,1.4,0,.7-.5,1.4-.8,1.9-.3.5-.8,1-1.4,1.2-1.1.4-2.2-.2-2.9-1.1.6.3,1.5.3,2.2.2.4,0,1.1-.2,1-.8ZM73.9,57.7c-3.2-.5-5.8-2.7-7.1-5.7.6.7,1.4,1.2,2.3,1.2.6,0,1.2-.2,1.7-.6.5-.4.8-1,1.1-1.6.3-.6.6-1.3.4-2-.1-.5-.6-1-1.2-1-.6,0-1.2.5-1.5,1-.4.5-.5,1.2-.2,1.7.2.3.7.7.1,1-.2,0-.4,0-.6.1-.2,0-.4,0-.6,0-.8,0-1.7-.2-2-1.1,0,0,0,0,0,0,0-.3-.1-.5-.2-.8,0-.9,0-2,.3-2.8.4-.8,1.1-1.4,1.9-1.8,1.7-.9,3.5-1.6,5.3-1.9,1.9-.4,3.8-.5,5.7-.4.9,0,1.9.2,2.8.4.8.2,1.7.4,2.5.8.7.4,1.4.9,1.9,1.6.5.8.6,1.8.5,2.8,0,.6-.3,1.1-.5,1.7,0,0,0,0,0,0-.3.7-1.1.8-1.7.5-.7-.3-1.1-1-1.6-1.5-.8-.9-2.2-1.8-3.3-1-1.1.8-.6,2.5,0,3.6.6,1.2,1.7,2,3,1.8.9-.1,1.7-.6,2.4-1.3-.3.3-.6.7-.9,1-1.8,1.9-4,3.4-6.5,4,0,0,0,0-.1,0,0,0,0,0-.1,0,0,0-.1,0-.2,0-.6,0-.9-.9-1.1-1.4-.2-.7-.3-1.5-.3-2.3,0-1.6,0-3.2,0-4.9,0-.9,0-1.9,0-2.8,0-.2-.3-.2-.3,0,0,1.9,0,3.7,0,5.6,0,1.7-.2,3.5.5,5,.1.3.4.7.6.9-.9.1-1.8.1-2.7,0ZM71.5,36.9c-.7.3-1.4.4-2.1.4-.8,0-1.5-.1-2.2-.5-.6-.3-1-.8-1.4-1.3.6-.7,1.1-1.4,1.6-2.2,0-.2-.1-.3-.2-.1-.5.7-.9,1.4-1.5,2.1,0,0-.1-.1-.2-.2-.1-.1-.3,0-.2.1,0,0,.1.2.2.3-.8.9-1.7,1.6-2.7,2,1.6-.9,2.5-2.8,3.4-4.4.6-1,1.2-2,2.2-2.7.9-.6,2.1-.8,3.1-.2,1,.6,1.5,1.7,1.9,2.8,0,.1,0,.3.1.4,0,0,0,.1,0,.2.2,1.4-.8,2.7-2,3.3ZM90.7,71.4c-1.7,1.9-4.1,2.9-6.5,3.3-1.4.2-2.8.3-4.1.3-1.2,0-2.5,0-3.7,0-1.2-.1-2.3-.3-3.4-.7-1.1-.4-2.2-1.3-2.7-2.4-.2-.5-.4-1-.4-1.6,0-.5.1-1,.2-1.6.3-1.1.7-2.2,1.2-3.1.1-.2.2-.4.3-.6,0,0,0,0,0-.1.2,0,.4,0,.5-.2,1.5-.5,2.9-1.2,4.2-2.3.3-.3.6-.5.9-.8,0,0,0,0,0,0,.7.8,1.7,1.3,2.7,1.7,2.5,1.2,5.1,2,7.8,2.3,2,.2,4.1.2,6.1-.2-.8,2-1.6,4.2-3,5.8Z"/>
    </g>
    <path d="M111.2,36.3c-.8,0-1.6,0-2.3-.5-.7-.4-1.3-1-1.9-1.6-.6-.7-1.2-1.4-1.7-2.1-.5-.7-1-1.3-1.6-1.9-1.1-1.1-2.5-2-4.1-2.1-1.4-.1-2.9.4-3.7,1.6-.5.8-.8,1.7-.8,2.6,0,.5-.1.9-.3,1.3-.1.3-.3.7-.6.9,0,0,0,0,0,0,0,0,0,0,0,0-.1,0-.1.2,0,.3,0,.1,0,.2.2.2,0,0,0,0,0,0,0,0,0,0,0,0,.8.5,1.6,1,2.5,1.4.7.3,1.3.6,2,.8.9.2,1.8.1,2.7,0,.8-.2,1.6-.5,2.3-1.1.5-.5,1-1.2,1.2-1.9.5.6.9,1.2,1.5,1.7.7.6,1.4.9,2.3,1.1.8.2,1.7.2,2.5-.1,0,0,.1-.1.1-.2,0-.2,0-.4-.2-.4Z"/>
    <path d="M74.2,33.7c-.4-1.2-.8-2.5-1.7-3.3-.9-.8-2-1-3.1-.6-2.4.8-3.3,3.4-4.5,5.4-.7,1.1-1.6,2.1-2.8,2.4,0,0-.1,0-.2.1-.3,0-.3.6,0,.5,1.6-.1,2.9-1,3.9-2.2.3.4.7.8,1.2,1.1.7.5,1.5.7,2.4.7,1.6,0,3.2-.5,4.2-1.8.5-.7.7-1.4.6-2.2,0,0,0-.1,0-.2Z"/>
    <path class="st1" d="M90.6,71.2c-1.7,1.9-4.1,2.9-6.5,3.3-1.4.2-2.7.3-4.1.3-1.2,0-2.5,0-3.7,0-1.1-.1-2.3-.3-3.4-.6-1.1-.4-2.1-1.2-2.7-2.3-.2-.5-.4-1-.4-1.5,0-.5.1-1,.2-1.5.3-1.1.7-2.1,1.2-3.1.1-.2.2-.4.3-.6,0,0,0,0,0,0,.1,0,.3,0,.4-.1,1.5-.5,3-1.2,4.2-2.3.3-.3.6-.5.9-.8.7.7,1.7,1.2,2.6,1.6,2.5,1.2,5.1,2,7.8,2.3,1.9.2,3.9.2,5.8-.1-.7,1.9-1.5,3.9-2.9,5.5Z"/>
    <path d="M82.8,53.2c-.6.2-1.3.2-1.9-.2-.5-.3-1-.8-1.2-1.4-.5-1-1.1-3,.5-3.4,1.4-.4,2.4,1.1,3.2,2,.5.5,1,.9,1.7.9.2,0,.3,0,.5,0-.7.9-1.6,1.8-2.7,2.2Z"/>
    <path d="M70,51.1c0-.3-.3-.4-.4-.6-.2-.3-.2-.7,0-1,.2-.6.9-1.3,1.5-1.3.7,0,1,.8,1,1.4,0,.7-.5,1.4-.8,1.9-.3.5-.8,1-1.4,1.2-1.1.4-2.2-.2-2.9-1.1.6.3,1.5.3,2.2.2.4,0,1.1-.2,1-.8Z"/>
    <path class="st11" d="M70.6,68.7c.1,1.3,1,2.5,2.1,3.2s2.8,1,4.1,1c2,0,4.6-.6,7.5-1.2s.2,0,.2.1c.2.4.3.8.4,1.2s0,.2-.1.2c-3,.8-6,1-9.1.7-1,0-2.2-.2-3.1-.6s-1.8-1-2.3-1.9-.4-2.2.2-3v.3Z"/>
    <path class="st11" d="M85.7,72.9c0,0,.1.1.2,0,.4-.2,1-.4,1.5-.8,1.4-1.2,1.6-2.8,1.8-4.6-.8,1.5-2,2.9-3.8,3.9s-.1.2,0,.3l.4,1.2Z"/>
    <ellipse class="st11" cx="69.7" cy="31.6" rx="1.5" ry="1"/>
    <ellipse class="st11" cx="100.6" cy="30.5" rx="1.5" ry="1"/>
    <path class="st15" d="M88.4,67.6s-3-.9-5.4-.7-5.3,2-5.3,2h-.1c0-.1,1.8-1.1,1.8-1.1,0,0-2.4-1.4-4.5-1.3s-3.7,1.4-3.7,1.4c0,0,0,0,0,.6s.6,1.6,1.7,2.5,4.1,1.2,6.4.9c3.6-.5,5.7-1.1,6.1-1.3,2.2-1.1,3.1-2.9,3.1-2.9Z"/>
  </g>
  <path class="st10" d="M319.7,15.5c.1-1.8-.9-3.8-2.2-4.4-1.5-.7-4.4-1.4-7.3-.8-2.7.6-3.8,1.5-4.1,3.7-.4,2.7-.7,6.3-1,10.1-2.4-.5-4.8-.5-6.2-.1-8.3,1.9-14.7,15.7-14.4,28,.4,12.3,6.1,20.4,13.4,21.6,1.8.3,7.1.7,10.5-1.5.3.9.5,1.6.8,2,1.5,2.5,6.3,1.8,7.7.9,1.4-.8,2.5-2.8,2.5-2.8,0,0-.9-7.6-1-9.8-.3-5-.7-11.1-.5-20.1.2-9,1.7-25,1.8-26.8ZM305.3,64.4c-2.3.4-5.6-.2-6.6-.9-2.6-2-4.8-5.9-4.4-14.1.4-8.2,4-14.8,6.7-16,.7-.3,1.8-.4,2.8-.2.7.1,1.1.7,1.1,1.4,0,8.6.4,20.8,1.8,27.7.2,1-.4,1.9-1.4,2.1Z"/>
  <path class="st10" d="M379.3,50.8c-1.1,0-2,.6-2.5,1.6-1.9,4.6-8.6,8.9-14.4,9.2-9.1.4-12.8-7.9-13.3-14.5h0c4.1-.7,10.6-1.7,15.4-1.8s8.7-.1,17.2,0,2.4-1.2,2.4-3c0-13.1-12.1-22.4-21.7-22.4-11.8,0-25.4,8.6-26.9,24.6-1.5,16,10.3,31.4,28.3,30.9,10.7-.3,20-10.6,23.4-18.1s.3-2.8-.6-3.7c-1.4-1.4-4.7-2.6-7.4-2.7ZM361.6,31.3c2.1,0,5.8,1.6,8.8,4.6-5.7.5-13.4,1.5-19.4,2.4,2.3-4.4,6.4-7.2,10.5-7Z"/>
  <path class="st7" d="M438.1,46.7c1.1-17.1-12-28.7-21-31.6-4.1-1.3-12.4-4-20.4-3.8s-5.6,3.1-5.5,4.1c.6,8.3.9,22,.3,30.1-.5,7.8-1.9,17.5-3.8,28.9-.3,2,.8,4.1,2.7,4.8,6,2.2,13.5,3.3,17.2,3.1,16.4-.8,29.4-18.5,30.5-35.5ZM424.6,46.3c-.8,12-5.2,17.2-12.3,20.7s-7.5,3.9-10.6,2.8c-.8-.3-1.3-1.2-1.1-2.1,2.8-12.9,3-31.9,2.6-40.5,0-1.2.8-2.5,2-2.6,4.8-.3,8.4,1.7,10.8,3.5,5.5,4.2,9.2,9.2,8.6,18.1Z"/>
  <path class="st7" d="M469.2,52.6c1.1-13.2-8.8-25.2-16.5-26.1-9.5-1.1-21.5,5.9-24.7,21.7-3.2,15.8,3.8,30.6,18.3,32,14.5,1.4,21.8-14.4,22.8-27.5ZM447.2,69.7c-7.1-.5-8.9-10.4-8.6-17,.5-9.3,6.6-16,11.9-15.1,3.1.6,10.1,6.5,9.1,17.6-.7,6.9-5.3,15.1-12.5,14.5Z"/>
  <path class="st10" d="M506.2,55.6c1.2-11.6,1.9-22,1.5-22.9-.8-1.6-2.7-4.2-6.9-6.7-3.3-2-4.9,1-5.6,3.7-4-3-8.5-4.4-12.7-4.3-7.9.3-18.9,11.8-18.9,25.3,0,13.5,6.1,30.2,21,30,2.7,0,5.2-.5,7.5-1.4-2.7,8.8-7.4,18-11.7,19.1-5.9,1.6-9.2-9-10.1-11-.9-2.1-3.3-2.1-6.2-1.8-3,.3-6.9,6.4-3.7,13,3.1,6.6,11.2,12.6,22.9,12,11.7-.6,15.8-14.4,19-28.3,1.2-5.1,2.4-12.9,3.3-20.8.4-1.9.6-3.8.7-5.8ZM484.7,70.1c-7.3,0-11.4-8.8-11.6-15.9-.2-11.4,7.5-16.8,10.7-17.1,5.5-.5,11.2,6.9,11,16.4-.2,6.8-2.8,16.7-10.1,16.6Z"/>
  <path class="st10" d="M322,15.4s.2,30.7,0,36.8c-.2,6.1-.3,12.9-.2,15.7s.8,5.7,6,6.1c5.2.4,14.6,1.1,17.4,1.1s3.5-2.9,3.7-4.1,2.8-5.6-1.2-5.8c-6.1-.3-9.7,1.1-12.9.7s-3.1-1.6-3.1-2.5.5-17.1.6-23.8,0-21.8,0-24.1-1.1-3.1-2.5-3.4-4.2,0-5.3.6-2.2,2.1-2.4,2.7Z"/>
  <path class="st10" d="M656.5,32c-4.8-.4-6.2-4.7-6.1-7.5.1-4,4.1-6.7,7.7-6.2,2.1.3,6.9,3,6.4,7.8-.3,2.9-3.3,6.3-8.1,5.9Z"/>
  <path class="st7" d="M242.5,40.8c-.7-16.5-14.2-30-23.4-29.9-11.4.1-24.7,10.8-26.2,31-1.5,20.2,9,37.4,26.5,36.8,17.5-.6,23.8-21.4,23.1-37.9ZM218.8,65.7c-8.6.5-12.1-11.5-12.7-19.8-.8-11.6,5.5-21,12-20.7,3.7.2,13,6.5,13.4,20.4.2,8.7-4.1,19.6-12.7,20.1Z"/>
  <path class="st10" d="M289.2,38.4c-.7-16.5-14.2-30-23.4-29.9-11.4.1-24.7,10.8-26.2,31-1.5,20.2,9,37.4,26.5,36.8,17.5-.6,23.8-21.4,23.1-37.9ZM277.2,43.7c-.6,8.3-4.1,20.3-12.7,19.8-8.6-.5-13-11.4-12.7-20.1.4-14,9.7-20.2,13.4-20.4,6.5-.4,12.8,9,12,20.7Z"/>
  <path class="st7" d="M185.9,14.9c-8.3-4.9-31.3-5.1-44.7,4.5-12.5,9-19.4,19.7-19.4,19.7,0,0,4.4,8.2,6,11.2,1.5,2.8,7.5,3,10.5-.4s3.3-3.7,6.2-6.7l12.2,60.6s4.2.7,9.2.3c5-.4,7.8-.7,15.1-5.6,7.3-4.9,19-17.5,22.4-37.2,4.4-25.8-9.1-41.6-17.4-46.6ZM170,83.9l-10.8-54c1.4-1,2.7-1.8,3.8-2.1,6.6-2.3,19.9-1.9,25.9,19.7,6,21.6-18.9,36.4-18.9,36.4Z"/>
  <g>
    <path class="st13" d="M4.7,78.2s.1,0,.1-.1c0,0-.1,0-.2,0l-.6.3.4-.6c.2-.2,4-5.7,6.4-6.9,3.9-2,8-2.8,10-3.1.1,0,.2,0,.3,0,1.3,0,2,1.1,2.3,1.4l2.9-.4.6,3.3h0s.3,2.8.3,2.8l-2.9.3c-.1.4-.7,1.8-2.2,1.9,0,0-.1,0-.2,0-.6,0-1.5-.2-2.6-.4-1.8-.4-4-.8-6.5-.8s-.9,0-1.4,0c-4,.3-6.4,2.4-6.5,2.5l-.3-.3Z"/>
    <path d="M21.1,68c1.4,0,2.2,1.4,2.2,1.4l2.9-.4.6,2.9h0s.3,2.8.3,2.8l-2.8.3s-.5,1.8-2,1.9c0,0-.1,0-.2,0-1.6,0-5.1-1.3-9.1-1.3s-.9,0-1.4,0c-4.1.3-6.4,2.4-6.6,2.6,0,0,.4-.4.3-.5,0,0,0,0,0,0-.2,0-.6.2-.6.2,0,0,3.9-5.6,6.3-6.9,4.1-2.1,8.4-2.9,9.9-3.1.1,0,.2,0,.3,0M4.9,78.3s0,0,0,0c0,0,0,0,0,0M21.1,67.6c-.1,0-.2,0-.4,0-2.1.3-6.1,1.1-10.1,3.2-2.4,1.3-6.3,6.8-6.4,7l-.8,1.2,1.3-.6s0,0,0,0l.3.3-.2-.2.2.2c0,0,2.4-2.1,6.3-2.5.4,0,.9,0,1.4,0,2.4,0,4.6.5,6.4.8,1.1.2,2,.4,2.7.4s.2,0,.2,0c1.5-.1,2.1-1.4,2.3-2l2.6-.3h.4s0-.4,0-.4l-.3-2.4h0s0-.4,0-.4l-.6-2.9v-.3c0,0-.4,0-.4,0l-2.7.3c-.3-.4-1.1-1.4-2.4-1.4h0Z"/>
  </g>
  <path class="st12" d="M17.1,69.1c-.4,0-.8.2-1.2.4-.6.2-1.1.5-1.6.8-.1,0,0,.2.1.2.9-.4,1.8-.8,2.8-1.1,1.1-.2,2.3-.3,3.4-.2.2,0,.4,0,.6,0,0,0,0,0-.1,0-.2,0-.2.1,0,.2,0,0,.2,0,.3.1-.7,0-1.4,0-2,.3-.1,0,0,.2,0,.2.8,0,1.5.3,2.1.6-.3,0-.5,0-.8,0-.1,0-.2.2,0,.2.3,0,.5.1.8.2-1.4-.1-2.9,0-4.3.3-.5.1-1.1.3-1.6.4-.1,0,0,.2,0,.2,1.4-.2,2.8-.3,4.1-.2l1.3.3s0,0,0,0c-.1,0-.2.2,0,.2,0,0,.1,0,.2,0,0,0,0,0-.1,0,0,0-.1.1,0,.2h-1c-.1.1-.1.2,0,.3h-1.1c-.2,0-.1.3,0,.3h.5c-1,.2-2,.3-3.1.3-.5,0-.9,0-1.4,0-.2,0-.2.2,0,.2,2,.2,4,.3,6,.1-.1,0-.1.2,0,.2l.7.2c-.2,0-.4,0-.6,0-.1,0-.2.2,0,.2.2,0,.5,0,.7,0-1.2.2-2.4.4-3.7.4-.4,0-.8,0-1.3,0-.1,0-.2.2,0,.2,1.1.3,2.3.4,3.4.4-.1,0-.3,0-.4,0-.4,0-.9,0-1.3,0-.2,0-.2.2,0,.2l2.5.3s0,0-.1,0c-.1,0-.2.2,0,.2.4.1.9.2,1.3.1-.2,0-.4.1-.7,0-.2,0-.2.2,0,.2.8,0,1.8.1,2.4-.4.3-.2.6-.9.7-1.1.1,0,2.5,0,3-.6s0-2.1,0-2.1l-.3-2.1h-.1c0-.1-2.3-.8-3.4-.8-.3-.5-.8-.9-.8-.9,0,0-.3.1-.4.2-.2,0-.3,0-.5,0-.1,0-.2.1,0,.2,0,0,0,0,0,0-.7-.2-1.4-.2-2.1-.2-.8,0-1.6.2-2.4.5Z"/>
  <path class="st4" d="M27.7,68.6l.4,3v.2s.5,3,.5,3c0,0,31.3-.3,40.7-1.5.6,0,2.1-.3,2.1-.3,0,0-.4-.9-.2-.9s1.7,0,1.7,0c0,0,1.5.6,2,.6,2.9-.4,6.1-.8,10.2-1.3s1.2-.8,1.4-1,1.1-.2,1.6-.2.3.1.3.3,0,.4,0,.7c16.6-2,38.2-4.8,42.2-5.5,2.2-.4,3-1.2,2.9-1.7v-.8c-.2-.5-1.2-1.1-3.5-.9-3.2.2-16.9.6-30.7,1.1-3.1,1.8-6.4,2.5-9.5,2.6s-6.6-.7-8.9-1.9c-2.9.1-5.6.2-7.8.3-2.4,1-3.9,1.6-7.2.5-11,1.1-38.6,4.1-38.6,4.1Z"/>
  <polygon class="st0" points="24.2 75 28.7 74.8 27.8 68.6 23.3 69.4 24.2 75"/>
  <path d="M21.9,74.2s0,0,0,0c0,0,0,0,0,0,0,0,0,0,0,0,0,0,0,0,0,0Z"/>
  <path class="st2" d="M8.9,72.6c-.4.4-.9.8-1.3,1.2-.8.8-1.3,1.7-2.1,2.5-.4.4-1.6,2.1-1.7,2.3,0,0,0,.1.2.1,0,0,.1,0,.2,0,0,0,0,.2,0,.3,0,0,.1.2.2.1.6-.5,1.3-.9,2-1.2.8-.3,1.6-1,2.4-1.3.5-.2,1-.3,1.4-.5,0,0,.1-.1,0-.2,0,0-.2-.1-.3-.2,0,0,0,0,.1,0,.1,0,.2-.1,0-.2h0s0,0,.1,0c.1,0,.2-.2,0-.2,0,0-.1,0-.2,0,0,0,0,0,0,0,.1,0,0-.2,0-.2,0,0-.2,0-.3,0,1-.6,2.1-1.1,3.3-1.3.1,0,.1-.1,0-.2,0,0,0,0,0,0-1-.1-2.1,0-3.1.2,0,0,0-.1,0-.2h-.2c.1-.1.3-.2.4-.4,0,0,0-.2,0-.2,0,0-.2,0-.3,0,0,0,.2-.2.3-.3,0,0,0-.1,0-.2,0,0,0,0,0,0,0-.1.2-.2.3-.3,0,0,0-.1,0-.2-.6-.1-1,.2-1.4.5Z"/>
  <path d="M8.1,74.7c0,0,.1-.1.2-.2.7-.4,1.5-.6,2.4-.7-.9.2-1.8.5-2.6.9Z"/>
  <path d="M4.5,78s0,0,0,0c0,0,0,0,0,0,0,0,0,0,0,0,0,0,0,0,0,0Z"/>
  <path class="st14" d="M81.3,64l-8,.4s-2,.9-3.7,1-3.3-.5-3.3-.5l-38,4.2.6,3.4s5.1-2.5,13.8-3.5,43.3-3.4,43.3-3.4c0,0-1.3-.3-2.8-.8s-1.9-.8-1.9-.8Z"/>
  <path class="st14" d="M133.5,63.8s-.4-1.1-8.4-.9c-12.6.4-26.4.9-26.4.9l.9-.5s30.6-1,31.3-1,1.4,0,1.8.2.6.3.7.5.2.9.2.9Z"/>
  <path class="st8" d="M535.6,29.3c1.1,1.3,4.7.4,6.9-2.1s4.6-6.9,1-10.4c-3-2.9-11.9-9.2-27-5.9-15.1,3.3-18.6,16.9-15.7,25.7,2.8,8.8,9.8,11.5,13.8,12.1s17.9,2,18.9,8.8-7.4,9.7-11.7,8.6c-4.3-1.1-8-4.9-11-6.2s-5.2.4-6.4,2.7-1.9,6.2-.5,7.8c1.4,1.6,10.8,8.2,18.2,8.8,7.3.6,21.4-2.5,25.5-11,4.1-8.6,2.6-19.2-4.9-24.3s-18.1-4.9-23.2-6.8-6.7-9.4,1.7-12.3,13.4,3.2,14.5,4.5Z"/>
  <path class="st6" d="M705,47.2c1-10.8-8.2-20.7-15.4-21.4-8.9-.9-20.1,4.9-23.1,17.8s3.6,25,17.1,26.2c13.6,1.1,20.3-11.8,21.3-22.5ZM684.4,61.3c-6.7-.4-8.3-8.5-8-13.9.4-7.6,6.2-13.1,11.2-12.3,2.9.5,9.5,5.3,8.5,14.4-.6,5.6-5,12.3-11.7,11.9Z"/>
  <path class="st6" d="M647.2,13.7c0-1.7-1.1-3.6-2.6-4.2-1.7-.6-4.8-1.2-8-.4-3,.7-4.1,1.6-4.3,3.8-.3,2.6-.5,15.2-.7,19-2.7-.3-5.3-.2-6.8.2-8.9,2.3-14.2,9.7-14.5,18.8s7.5,19.5,15.6,20.3c2,.2,5.2.5,8.7-2.5.2.9.5,1.6.7,2,1.4,2.5,6.7,2.2,8.3,1.6,1.6-.7,2.9-2.5,2.9-2.5,0,0-1-7.2-1-9.3,0-4.9-.6-11.6,0-20.8.5-8.8,1.7-24.2,1.7-25.9ZM631.8,61.6c-2.2,1.6-4.3.4-5.7-.6-2.7-1.9-4.6-5.4-4.5-9.9,0-5.3,3.2-8.7,6-10,.8-.4,2-.5,3-.4.7,0,1.3.7,1.3,1.3.1,5.8.7,12.9,1.1,17.1s-.3,1.8-1.2,2.4Z"/>
  <path class="st6" d="M663,39.2c0,0,0,0,0-.2,0-1.7-1.7-2.7-3.3-2.7s-3.9-.1-5.6.6-1.9,2.6-1.9,3,.3,18.5.3,22.1c0,3.6-.1,8-.1,9.4s1,3.2,1.9,3.2,4.2,0,6-.6,2.9-1.5,2.9-3.2-.4-15.3-.1-18.3.1-12.3,0-13.2Z"/>
  <path class="st8" d="M609.9,71.4c-.4-4.4-1.4-11.7-1.2-21.6.2-6.9.2-12,.3-17.7s-1.6-3.4-3.3-3.5c-2.5,0-5-.2-6.8,0s-2.1,1.4-2.1,3.1c0,3.5.3,8.5.5,14.8s.6,10.6.7,13.2c0,1.2-1.7,2.7-3.7,3.4-2.2.8-5.2.4-6.4-1.7-1.4-2.4-1.6-10.1-1.4-13.2,0-1.7.4-7.4,1.7-13.2.3-1.5.7-3.9-.4-4.6-1.9-1.2-4-1.3-6.2-1.1s-2.8,1.7-3.2,2.6c-.9,1.8-1.5,7.8-1.6,12.3-.1,6.5,0,10.8,1.1,19,.4,3,1.8,8.1,6.9,10.3,3,1.3,8.4,1.3,11-.4,1.8-1.1,3.9-3.3,3.9-3.3,0,0,.2,1,.7,3.1.5,2.1,6.9,2.3,8.8,1.3,1.1-.6,1-1.9.9-2.8Z"/>
  <path class="st8" d="M572.4,64.4c-1.6-1.4-6.3-1.6-7.6-4.7-.7-1.5-.6-9.4-.5-17.5,2,.3,3.8.6,5.2.6,2.5,0,4.6-1.8,4.1-6-.5-4.2-2.9-6-5.7-6.2-1,0-2.1-.2-3.4-.3,0-3.3,0-5.8,0-6.7-.5-3.3-1.4-4.4-2.9-4.4-1.5,0-3.9-.3-6.2-.3s-3.7,2.4-3.9,4.1c0,.7-.1,3.9-.1,8.3-2.9.8-5.6,1.8-6.9,2.7-2.1,1.5-2.7,4-2.1,5.4.7,1.4,1.3,3.1,3.5,3,1.3,0,3.2-.2,5.4-.3,0,8.4,0,16.9,0,19,0,4.4,0,12.3,8.2,14.5,8.3,2.2,12.2.3,13.7-2,1.5-2.2.7-7.8-.8-9.2Z"/>
</svg>